<?xml version="1.0" standalone="no"?>
<!DOCTYPE svg PUBLIC "-//W3C//DTD SVG 1.1//EN" "http://www.w3.org/Graphics/SVG/1.1/DTD/svg11.dtd" >
<svg xmlns="http://www.w3.org/2000/svg" xmlns:xlink="http://www.w3.org/1999/xlink" version="1.1">
<metadata>
Created by FontForge 20170910 at Sat Dec 21 00:53:38 2013
 By Jimmy Wärting
Copyright (c) 2013 by Alvaro Thomaz Fonts. All rights reserved.
</metadata>
<defs>
<font id="HomizioNova-Light" horiz-adv-x="1088" >
  <font-face 
    font-family="Homizio Nova"
    font-weight="300"
    font-stretch="normal"
    units-per-em="2048"
    panose-1="2 0 5 6 0 0 0 2 0 4"
    ascent="1638"
    descent="-410"
    x-height="1024"
    cap-height="1434"
    bbox="-109 -481 2330 1934"
    underline-thickness="119"
    underline-position="-237"
    unicode-range="U+000D-FB06"
  />
<missing-glyph horiz-adv-x="1151" 
d="M80 0v1398h990v-1398h-990zM228 148h694v1102h-694v-1102z" />
    <glyph glyph-name="AE" unicode="AE" horiz-adv-x="1587" 
d="M856 0v446h-502l-219 -446h-109l697 1434h803v-97h-572v-571h531v-90h-531v-586h604v-90h-702zM856 1337h-78l-383 -800h461v800z" />
    <glyph glyph-name="OE" unicode="OE" horiz-adv-x="1755" 
d="M1023 0q-88 -13 -158 -19t-124 -6q-164 0 -291.5 54t-215 150.5t-133.5 230t-46 292.5q0 171 48 310.5t138.5 238.5t221 153t294.5 54q141 0 266 -24h670v-91h-571v-575h530v-90h-530v-588h604v-90h-703zM1023 1341q-131 27 -272 27q-137 0 -247 -48.5t-187 -135.5
t-118.5 -207.5t-41.5 -263.5q0 -144 38.5 -263.5t112.5 -204.5t182.5 -132t248.5 -47q138 0 284 30v1245z" />
    <glyph glyph-name="oe" unicode="oe" horiz-adv-x="1844" 
d="M1027 508q0 -104 25 -187.5t71.5 -141.5t114 -89t153.5 -31q176 0 336 127l36 -77q-194 -134 -386 -134q-294 0 -399 297q-116 -297 -433 -297q-113 0 -203 39.5t-152.5 110.5t-96 168t-33.5 213q0 129 36 229.5t101.5 170.5t157 106.5t201.5 36.5q78 0 145.5 -21
t122 -59.5t94.5 -93.5t62 -123q118 297 411 297q95 0 168.5 -34.5t123.5 -99t76 -157t26 -209.5v-41h-758zM1688 592q-3 88 -24.5 157.5t-60.5 117.5t-94 73t-124 25q-73 0 -133.5 -25t-106.5 -73t-75 -117.5t-39 -157.5h657zM552 965q-90 0 -163 -31.5t-125 -90.5
t-80 -144.5t-28 -194.5q0 -100 27 -182t78 -140.5t123.5 -90.5t163.5 -32q92 0 164 31t121 89.5t74.5 142.5t25.5 190q0 221 -98.5 337t-282.5 116z" />
    <glyph glyph-name="fi" unicode="fi" horiz-adv-x="856" 
d="M810 1024v-1024h-92v940h-418v-940h-92v940h-184v84h184v178q0 82 22 144t60.5 103t90.5 62t112 21q65 0 145 -39l-37 -74q-38 29 -112 29q-189 0 -189 -254v-170h510z" />
    <glyph glyph-name="fl" unicode="fl" horiz-adv-x="1117" 
d="M727 1328q-29 120 -229 120q-189 0 -189 -254v-170h271v-84h-271v-940h-92v940h-184v84h184v178q0 82 22 144t60.5 103t90.5 62t112 21q285 0 317 -204v-1064q0 -106 33.5 -153.5t113.5 -47.5q59 0 123 37v-86q-69 -34 -135 -34q-227 0 -227 272v1076z" />
    <glyph glyph-name="ae" unicode="ae" horiz-adv-x="1826" 
d="M352 268q0 -46 15.5 -84.5t45 -66t72 -43t96.5 -15.5q147 0 239 74q93 76 103 127v168q-69 46 -137 67t-134 21q-63 0 -117.5 -18t-95 -51t-64 -78.5t-23.5 -100.5zM996 828q125 221 388 221q96 0 169.5 -35t123.5 -99.5t76 -157.5t26 -208v-41h-758q0 -106 25 -189.5
t72.5 -141t115 -88t152.5 -30.5q174 0 307 109l42 -69q-172 -124 -368 -124q-272 0 -385 227q-51 -60 -100 -103t-99 -70.5t-102.5 -40.5t-109.5 -13q-73 0 -131.5 22t-99.5 60.5t-63 91.5t-22 115q8 81 42.5 143t87 103.5t119 62.5t138.5 21t144.5 -20.5t138.5 -65.5
l-1 161q-12 296 -247 296q-183 0 -317 -122l-58 61q139 145 384 145q158 0 223 -74q64 -74 87 -147zM1683 592q-3 88 -24.5 157.5t-60.5 117.5t-94 73t-124 25q-72 0 -132 -24.5t-106 -71.5t-76 -117t-41 -160h658z" />
    <glyph glyph-name=".notdef" horiz-adv-x="1151" 
d="M80 0v1398h990v-1398h-990zM228 148h694v1102h-694v-1102z" />
    <glyph glyph-name="uni000D" unicode="&#xd;" horiz-adv-x="0" 
 />
    <glyph glyph-name="nonmarkingreturn" horiz-adv-x="199" 
 />
    <glyph glyph-name="space" unicode=" " horiz-adv-x="561" 
 />
    <glyph glyph-name="exclam" unicode="!" horiz-adv-x="220" 
d="M152 403h-86v1031h96zM111 -18q-34 0 -57 23.5t-23 57.5q0 35 23 57.5t57 22.5t58 -22.5t24 -57.5q0 -34 -24 -57.5t-58 -23.5z" />
    <glyph glyph-name="quotedbl" unicode="&#x22;" horiz-adv-x="498" 
d="M411 985h-76v449h86zM173 985h-86v449h86v-449z" />
    <glyph glyph-name="numbersign" unicode="#" horiz-adv-x="1136" 
d="M1095 946h-272l-76 -346h285l-18 -78h-283l-86 -399h-80l86 399h-268l-86 -399h-80l86 399h-283l19 78h280l76 346h-293l19 78h290l88 410h80l-88 -410h269l88 410h80l-89 -410h275zM475 946l-76 -346h268l76 346h-268z" />
    <glyph glyph-name="dollar" unicode="$" horiz-adv-x="785" 
d="M433 4v-213h-78v209q-187 0 -327 80v102q152 -98 327 -98v598q-101 57 -164.5 103.5t-99.5 91t-49.5 91t-13.5 103.5q0 67 23 128t65.5 109t103 80.5t135.5 43.5v182h78v-180q155 0 260 -43v-103q-104 60 -260 60v-607q93 -51 155.5 -95.5t100.5 -89.5t54 -93.5
t16 -106.5q0 -70 -22 -129.5t-64 -105.5t-102.5 -76t-137.5 -41zM355 1346q-53 -8 -96 -30.5t-73 -57t-46 -79t-16 -96.5q0 -45 9.5 -82t35.5 -71.5t70.5 -69t115.5 -74.5v560zM433 635v-549q114 20 172 87.5t58 164.5q0 46 -11 83.5t-37 72t-70.5 68.5t-111.5 73z" />
    <glyph glyph-name="percent" unicode="%" horiz-adv-x="1551" 
d="M384 729q-78 0 -139.5 27t-104 75t-65.5 114.5t-23 146.5q0 88 25 156.5t70 116t108 72.5t139 25q75 0 135 -25t102.5 -72.5t65.5 -115.5t23 -155q0 -77 -23.5 -143.5t-67.5 -115.5t-106 -77.5t-139 -28.5zM392 1380q-57 0 -103 -19.5t-78.5 -57t-49.5 -91t-17 -122.5
q0 -64 16.5 -116t47.5 -88.5t76 -56.5t102 -20t102 20.5t76.5 58.5t48 90.5t16.5 117.5q0 141 -64 212.5t-173 71.5zM386 -33h-99l863 1465h96zM1168 -25q-77 0 -138 26.5t-104.5 74.5t-66.5 115t-23 147q0 88 25.5 157.5t71 116.5t108 72t137.5 25t135 -25.5t102.5 -73
t65.5 -116t23 -154.5q0 -77 -23.5 -143.5t-67.5 -115.5t-106 -77.5t-139 -28.5zM1176 627q-57 0 -103 -20.5t-78 -58t-49.5 -91.5t-17.5 -121q0 -64 16.5 -116t47.5 -88.5t76 -56.5t102 -20q58 0 103.5 20.5t76.5 58t47.5 90.5t16.5 118q0 142 -63.5 213.5t-174.5 71.5z" />
    <glyph glyph-name="ampersand" unicode="&#x26;" horiz-adv-x="1343" 
d="M1171 0l-193 188q-201 -213 -479 -213q-106 0 -189 29t-140.5 80.5t-87.5 122t-30 153.5q0 275 332 424q-162 187 -162 342q0 70 26.5 130.5t73.5 105.5t111.5 70.5t141.5 25.5q71 0 128 -21.5t96.5 -60t61 -91.5t21.5 -116q0 -69 -20 -126.5t-62 -107t-107 -93
t-155 -84.5q150 -159 440 -434q125 187 133 434h96q-7 -267 -166 -498q87 -85 154.5 -149.5t118.5 -112.5zM474 823q88 39 147.5 76.5t96 77.5t52 84t15.5 96q0 49 -17 89.5t-46.5 68.5t-69.5 43.5t-86 15.5q-56 0 -101.5 -19.5t-78 -53.5t-50 -79.5t-17.5 -97.5
q0 -128 155 -301zM917 250q-168 162 -284 278t-185 191q-299 -131 -299 -352q0 -68 24.5 -124.5t71 -97t113 -63.5t149.5 -23q228 0 410 191z" />
    <glyph glyph-name="quotesingle" unicode="'" horiz-adv-x="233" 
d="M164 985h-86v449h86v-449z" />
    <glyph glyph-name="parenleft" unicode="(" horiz-adv-x="461" 
d="M334 -326q-303 354 -303 871q0 540 307 889h98q-313 -358 -313 -887q0 -497 309 -873h-98z" />
    <glyph glyph-name="parenright" unicode=")" horiz-adv-x="462" 
d="M128 -326h-98q309 376 309 873q0 529 -313 887h98q307 -349 307 -889q0 -519 -303 -871z" />
    <glyph glyph-name="asterisk" unicode="*" horiz-adv-x="740" 
d="M423 1051l199 -267l-76 -51l-174 277l-178 -277l-74 51l199 267l-295 75l26 86l289 -102v324h78v-324l272 102l27 -86z" />
    <glyph glyph-name="plus" unicode="+" horiz-adv-x="917" 
d="M501 555v-412h-84v412h-412v84h412v412h84v-412h411v-84h-411z" />
    <glyph glyph-name="comma" unicode="," horiz-adv-x="283" 
d="M97 -248h-78l150 475h102z" />
    <glyph glyph-name="hyphen" unicode="-" horiz-adv-x="708" 
d="M80 555v90h547v-90h-547z" />
    <glyph glyph-name="period" unicode="." horiz-adv-x="278" 
d="M139 -18q-34 0 -57 23.5t-23 57.5q0 35 23 57.5t57 22.5t58 -22.5t24 -57.5q0 -34 -24 -57.5t-58 -23.5z" />
    <glyph glyph-name="slash" unicode="/" horiz-adv-x="797" 
d="M96 -238h-92l693 1672h96z" />
    <glyph glyph-name="zero" unicode="0" horiz-adv-x="986" 
d="M481 -25q-99 0 -177.5 46t-132.5 136t-83 223t-29 306q0 383 117.5 577.5t335.5 194.5q414 0 414 -735q0 -183 -30 -322.5t-87 -234t-140 -143t-188 -48.5zM504 1374q-165 0 -257 -169t-92 -507q0 -152 22 -271t65 -201t106 -124.5t145 -42.5q80 0 142.5 43.5
t105.5 126.5t65.5 204t22.5 276q0 665 -325 665z" />
    <glyph glyph-name="one" unicode="1" horiz-adv-x="524" 
d="M351 0v1364l-351 -125v92l443 154v-1485h-92z" />
    <glyph glyph-name="two" unicode="2" horiz-adv-x="913" 
d="M53 0v98l391 416q209 222 274 329q66 106 66 236q0 142 -77 218.5t-222 76.5q-188 0 -358 -149v108q164 125 370 125q92 0 163.5 -26t120 -74t74 -115t25.5 -149q0 -147 -71 -268q-36 -60 -110.5 -151t-192.5 -216l-351 -371v-4h717v-84h-819z" />
    <glyph glyph-name="three" unicode="3" horiz-adv-x="855" 
d="M28 51v105q163 -97 309 -97q87 0 155.5 23.5t116 65.5t72.5 101t25 130q0 159 -112.5 241t-320.5 82h-110v84h98q194 0 293.5 80.5t99.5 231.5q0 130 -72.5 203t-213.5 73q-135 0 -283 -94v98q165 80 297 80q85 0 153 -24t116 -68.5t74 -106.5t26 -137q0 -291 -279 -370
v-4q73 -8 134 -37t104.5 -75t67.5 -108t24 -135q0 -94 -34.5 -171t-96.5 -132t-147.5 -85t-188.5 -30q-162 0 -307 76z" />
    <glyph glyph-name="four" unicode="4" horiz-adv-x="982" 
d="M757 406v-406h-92v406h-661v77l661 951h92v-945h191v-83h-191zM665 1169q0 42 1 73.5t3 55.5h-4q-14 -25 -26.5 -46.5t-24.5 -39.5l-502 -723h553v680z" />
    <glyph glyph-name="five" unicode="5" horiz-adv-x="823" 
d="M51 29v106q136 -76 274 -76q88 0 158 25.5t118 72t73.5 112t25.5 145.5q0 350 -399 350q-164 0 -211 -35v705h645v-84h-553v-510q54 4 92 6t61 2q114 0 200 -28.5t144 -83t87.5 -133t29.5 -177.5q0 -100 -31.5 -183t-92.5 -142.5t-150.5 -92.5t-204.5 -33q-155 0 -266 54
z" />
    <glyph glyph-name="six" unicode="6" horiz-adv-x="945" 
d="M821 1423v-98q-101 49 -211 49q-107 0 -192 -53t-145 -149t-92 -229.5t-32 -293.5h4q105 248 359 248q88 0 160 -34t123.5 -94t79.5 -140.5t28 -173.5q0 -104 -31.5 -192t-88.5 -152t-135.5 -100t-172.5 -36q-99 0 -177 42.5t-132 125t-82.5 205t-28.5 281.5
q0 188 37 341t108.5 261.5t175 167.5t236.5 59q116 0 209 -35zM491 813q-71 0 -131.5 -29.5t-104.5 -78t-69 -110.5t-25 -126q0 -82 23 -156.5t65 -130.5t101.5 -89.5t132.5 -33.5q69 0 128.5 28.5t102.5 79t67.5 119.5t24.5 150q0 84 -21.5 153.5t-62.5 119t-99.5 77
t-131.5 27.5z" />
    <glyph glyph-name="seven" unicode="7" horiz-adv-x="888" 
d="M298 0h-100l557 1350h-746v84h864v-25z" />
    <glyph glyph-name="eight" unicode="8" horiz-adv-x="951" 
d="M376 745v5q-272 131 -272 360q0 74 29 138t81 110.5t123.5 73t157.5 26.5q79 0 144 -24.5t111.5 -67.5t72.5 -103t26 -130q0 -244 -289 -379v-4q336 -122 336 -398q0 -83 -30 -152t-87 -119t-141 -78t-192 -28q-87 0 -159 26.5t-123.5 74.5t-80 115t-28.5 147
q0 270 321 407zM472 797q281 111 281 325q0 59 -20 106t-56 79.5t-86 49.5t-110 17q-58 0 -109 -19t-89.5 -52.5t-60.5 -79t-22 -99.5q0 -214 272 -327zM464 700q-84 -34 -143 -70.5t-97 -79t-55.5 -94t-17.5 -114.5q0 -62 23 -113.5t65.5 -89.5t102.5 -59t134 -21
q76 0 136.5 21.5t102 59.5t63.5 89.5t22 110.5q0 66 -20.5 120t-62 97.5t-105 78.5t-148.5 64z" />
    <glyph glyph-name="nine" unicode="9" horiz-adv-x="946" 
d="M118 12v101q115 -54 211 -54q227 0 346 181.5t119 535.5h-4q-99 -231 -352 -231q-89 0 -161.5 33t-125 91.5t-81 139t-28.5 176.5q0 106 32.5 193t90.5 149t137.5 96.5t172.5 34.5q95 0 172 -40.5t131 -122t83 -203t29 -283.5q0 -200 -36.5 -355t-107.5 -261.5t-176 -162
t-243 -55.5q-108 0 -209 37zM462 1374q-71 0 -130 -28t-102 -77.5t-67 -117.5t-24 -147q0 -87 23.5 -156.5t65.5 -118t101 -74.5t131 -26q66 0 125 26.5t102.5 71t69 104t25.5 125.5q0 91 -23.5 168t-66 132.5t-101.5 86.5t-129 31z" />
    <glyph glyph-name="colon" unicode=":" horiz-adv-x="253" 
d="M127 881q-34 0 -57 24t-23 58t23 56.5t57 22.5t58 -22.5t24 -56.5t-24 -58t-58 -24zM127 -18q-34 0 -57 23.5t-23 57.5q0 35 23 57.5t57 22.5t58 -22.5t24 -57.5q0 -34 -24 -57.5t-58 -23.5z" />
    <glyph glyph-name="semicolon" unicode=";" horiz-adv-x="294" 
d="M201 881q-35 0 -57.5 24t-22.5 58t22.5 56.5t57.5 22.5q34 0 57.5 -22.5t23.5 -56.5t-23.5 -58t-57.5 -24zM90 -248h-78l150 475h102z" />
    <glyph glyph-name="less" unicode="&#x3c;" horiz-adv-x="910" 
d="M1 580v18l833 467v-94l-677 -379v-4l677 -334v-96z" />
    <glyph glyph-name="equal" unicode="=" horiz-adv-x="1001" 
d="M80 750v84h907v-84h-907zM80 362v84h907v-84h-907z" />
    <glyph glyph-name="greater" unicode="&#x3e;" horiz-adv-x="909" 
d="M75 158v96l678 334v4l-678 379v94l833 -467v-18z" />
    <glyph glyph-name="question" unicode="?" horiz-adv-x="754" 
d="M322 398q-10 25 -17.5 65.5t-7.5 80.5q0 47 12.5 85.5t35 72.5t54 66t69.5 65q32 28 63 59.5t55 68t38.5 79t14.5 93.5q0 55 -18.5 98.5t-51.5 74t-79.5 46.5t-102.5 16q-94 0 -173.5 -32.5t-125.5 -92.5l-78 44q105 165 378 171q74 0 137.5 -21t110 -61.5t73 -99
t26.5 -133.5q0 -57 -16 -104t-41.5 -87t-58.5 -75t-67 -68q-53 -51 -87 -85t-53 -62t-26 -54.5t-7 -62.5q0 -46 8 -83.5t16 -63.5h-81zM357 -18q-34 0 -56.5 23.5t-22.5 57.5q0 35 22.5 57.5t56.5 22.5q35 0 58.5 -22.5t23.5 -57.5q0 -34 -23.5 -57.5t-58.5 -23.5z" />
    <glyph glyph-name="at" unicode="@" horiz-adv-x="1701" 
d="M1041 426h-4q-90 -238 -293 -238q-70 0 -126 26t-95.5 74.5t-60.5 116.5t-21 152q0 111 29.5 208t84 168.5t131 112.5t169.5 41q39 0 74 -11t63 -29.5t48 -42.5t30 -50h4q2 31 4.5 60.5t5.5 58.5h88l-51 -584q0 -217 153 -217q62 0 114.5 33.5t90.5 93t59 141.5t21 179
q0 148 -46.5 269t-135 207t-216 132.5t-290.5 46.5q-319 0 -519 -218t-200 -540q0 -163 49.5 -296t141.5 -227t224 -145.5t296 -51.5q251 0 426 88l48 -60q-242 -112 -484 -112q-180 0 -327 59t-251.5 165t-161.5 254t-57 326q0 359 235 600q236 242 590 242
q175 0 317.5 -55t244 -152.5t157 -231t55.5 -290.5q0 -117 -28.5 -216t-79 -171.5t-119.5 -113t-149 -40.5q-222 0 -238 238zM851 1004q-72 0 -130 -31.5t-99 -89.5t-63 -138.5t-22 -179.5q0 -68 15 -122t42.5 -92t68 -58.5t91.5 -20.5q69 0 124 37.5t93.5 103.5t59 156.5
t20.5 196.5q0 118 -53 178t-147 60z" />
    <glyph glyph-name="A" unicode="A" horiz-adv-x="1227" 
d="M1087 0l-164 446h-622l-164 -446h-109l541 1434h94l535 -1434h-111zM647 1200q-11 28 -18 55t-15 54h-4q-16 -65 -33 -107l-241 -665h553z" />
    <glyph glyph-name="B" unicode="B" horiz-adv-x="947" 
d="M80 0v1434h377q84 0 152 -24t116.5 -67.5t74.5 -104.5t26 -136q0 -126 -66 -217t-186 -129v-4q73 -7 132.5 -34.5t101.5 -72t64.5 -104t22.5 -131.5q0 -90 -30.5 -165.5t-86.5 -129.5t-135.5 -84.5t-177.5 -30.5h-385zM179 1343v-555h200q77 0 140.5 20.5t108.5 59
t70 93.5t25 124q0 258 -305 258h-239zM179 698v-608h266q171 0 259.5 80t88.5 231q0 297 -403 297h-211z" />
    <glyph glyph-name="C" unicode="C" horiz-adv-x="1193" 
d="M1114 94q-81 -59 -180 -89t-216 -30q-152 0 -275 53.5t-209.5 149.5t-133.5 229.5t-47 294.5q0 171 48 310.5t138 238.5t218 153t288 54q115 0 212.5 -33t177.5 -94l-51 -81q-70 58 -159.5 88t-196.5 30q-125 0 -230 -47.5t-181 -134t-119 -207t-43 -266.5
q0 -147 39.5 -266.5t113 -204t177 -130.5t231.5 -46q104 0 191.5 27t157.5 80z" />
    <glyph glyph-name="D" unicode="D" horiz-adv-x="1220" 
d="M80 0v1434h359q178 0 314.5 -45t228.5 -133t139 -218t47 -301q0 -162 -51 -297.5t-148 -233t-236 -152t-315 -54.5h-338zM179 1343v-1253h225q160 0 283 42t207 124t127.5 201.5t43.5 275.5q0 610 -641 610h-245z" />
    <glyph glyph-name="E" unicode="E" horiz-adv-x="785" 
d="M79 0v1434h670v-91h-571v-575h530v-90h-530v-588h604v-90h-703z" />
    <glyph glyph-name="F" unicode="F" horiz-adv-x="748" 
d="M177 1343v-585h530v-90h-530v-668h-99v1434h670v-91h-571z" />
    <glyph glyph-name="G" unicode="G" horiz-adv-x="1223" 
d="M1164 138q-60 -47 -115.5 -78.5t-109.5 -50.5t-108.5 -26.5t-112.5 -7.5q-152 0 -275 53.5t-209.5 149.5t-133.5 229.5t-47 294.5q0 171 48 310.5t138 238.5t218 153t288 54q115 0 212.5 -33t177.5 -94l-51 -81q-105 73 -214 100t-212.5 13t-195 -66t-159.5 -136
t-108 -197.5t-40 -250.5q0 -147 39.5 -266.5t113 -204t177 -130.5t231.5 -46q207 0 348 106v451h-338v90h437v-575h1z" />
    <glyph glyph-name="H" unicode="H" horiz-adv-x="1175" 
d="M998 0v688h-821v-688h-99v1434h99v-656h821v656h98v-1434h-98z" />
    <glyph glyph-name="I" unicode="I" horiz-adv-x="259" 
d="M176 1434v-1434h-99v1434h99z" />
    <glyph glyph-name="J" unicode="J" horiz-adv-x="549" 
d="M479 287q0 -519 -360 -519q-59 0 -119 16l37 89q34 -14 84 -14q138 0 199 104.5t61 325.5v1145h98v-1147z" />
    <glyph glyph-name="K" unicode="K" horiz-adv-x="997" 
d="M814 0l-611 686q-17 19 -24 33h-4v-719h-99v1434h99v-676h4q5 11 11.5 19t14.5 16l580 641h129l-629 -695l668 -739h-139z" />
    <glyph glyph-name="L" unicode="L" horiz-adv-x="750" 
d="M76 0v1434h99v-1344h575v-90h-674z" />
    <glyph glyph-name="M" unicode="M" horiz-adv-x="1490" 
d="M1319 0v1213l-555 -1213h-32l-564 1233v-1233h-92v1434h92l535 -1155q10 -21 21 -52.5t24 -66.5h6l11 32q1 2 9 25.5t25 69.5l527 1147h88v-1434h-95z" />
    <glyph glyph-name="N" unicode="N" horiz-adv-x="1235" 
d="M1089 0l-854 1159q-14 17 -24.5 35t-21.5 35l-13 20h-4q1 -13 1.5 -28.5t0.5 -34.5v-1186h-99v1434h76l848 -1149q14 -19 29 -42t32 -50h5q-2 35 -3.5 65t-1.5 55v1121h99v-1434h-70z" />
    <glyph glyph-name="O" unicode="O" horiz-adv-x="1447" 
d="M718 -25q-152 0 -275 53.5t-209.5 149.5t-133.5 229.5t-47 294.5q0 171 48 310.5t138 238.5t218 153t288 54q144 0 263.5 -52.5t205 -147t133 -227t47.5 -292.5q0 -177 -48 -318.5t-136.5 -240.5t-213.5 -152t-278 -53zM728 1368q-125 0 -230 -47.5t-181 -134t-119 -207
t-43 -266.5q0 -147 39.5 -266.5t113 -204t177 -130.5t231.5 -46q133 0 239.5 44.5t181.5 129.5t115 206.5t40 276.5q0 151 -39.5 271t-113 203t-178 127t-233.5 44z" />
    <glyph glyph-name="P" unicode="P" horiz-adv-x="884" 
d="M173 575v-575h-99v1434h346q224 0 339.5 -101.5t115.5 -300.5q0 -99 -33 -182.5t-96.5 -144.5t-156 -95.5t-210.5 -34.5h-206zM173 1343v-677h204q196 0 296 91.5t100 262.5q0 323 -371 323h-229z" />
    <glyph glyph-name="Q" unicode="Q" horiz-adv-x="1423" 
d="M718 -25q-152 0 -275 53.5t-209.5 149.5t-133.5 229.5t-47 294.5q0 171 48 310.5t138 238.5t218 153t288 54q144 0 263.5 -52.5t205 -147t133 -227t47.5 -292.5q0 -223 -74.5 -387t-208.5 -260l188 -145l-54 -58l-206 159q-140 -73 -321 -73zM850 195l54 58l130 -102
q124 79 191 224t67 348q0 151 -39.5 271t-113 203t-178 127t-233.5 44q-125 0 -230 -47.5t-181 -134t-119 -207t-43 -266.5q0 -147 39.5 -266.5t113 -204t177 -130.5t231.5 -46q135 0 242 45z" />
    <glyph glyph-name="R" unicode="R" horiz-adv-x="968" 
d="M807 0l-361 639h-274v-639h-99v1434h398q94 0 169.5 -27t128.5 -76t81 -118t28 -152q0 -77 -23 -142.5t-66.5 -116t-106.5 -85t-142 -49.5v-4l379 -664h-112zM172 1343v-614h247q81 0 147 22t112.5 64t72 101.5t25.5 134.5q0 139 -86 215.5t-250 76.5h-268z" />
    <glyph glyph-name="S" unicode="S" horiz-adv-x="851" 
d="M352 -23q-182 9 -315 115l61 74q124 -99 270 -99q169 0 254.5 68.5t85.5 194.5q0 56 -12 97t-46 79t-95 79.5t-159 98.5q-217 126 -276 212q-58 85 -58 198q0 75 31 141.5t87.5 116t136.5 78t178 28.5q182 -9 315 -115l-61 -74q-125 99 -267 99q-73 0 -131.5 -19.5
t-100 -54.5t-63.5 -83t-22 -105t11.5 -97t45 -77.5t94.5 -78.5t160 -99q102 -58 167 -107.5t102 -96.5t51 -96t14 -106q0 -82 -28.5 -150t-85.5 -117t-143 -76.5t-201 -27.5z" />
    <glyph glyph-name="T" unicode="T" horiz-adv-x="946" 
d="M522 1343v-1343h-98v1343h-414v91h926v-91h-414z" />
    <glyph glyph-name="U" unicode="U" horiz-adv-x="1125" 
d="M1060 573q0 -598 -510 -598q-485 0 -485 576v883h98v-869q0 -499 406 -499q393 0 393 485v883h98v-861z" />
    <glyph glyph-name="V" unicode="V" horiz-adv-x="1205" 
d="M624 0h-74l-524 1434h111l415 -1155q13 -36 22.5 -70t14.5 -66h4q10 52 41 138l441 1153h106z" />
    <glyph glyph-name="W" unicode="W" horiz-adv-x="1820" 
d="M1355 0h-82l-319 1079q-24 82 -27 135h-4q-2 -22 -9.5 -55t-21.5 -78l-340 -1081h-82l-426 1434h111l327 -1149q11 -39 18.5 -70.5t12.5 -56.5h4q2 19 11.5 50.5t23.5 76.5l354 1149h50l325 -1149q11 -40 19 -72t12 -55h4q2 14 6.5 30t9.5 34l336 1212h107z" />
    <glyph glyph-name="X" unicode="X" horiz-adv-x="1126" 
d="M952 0l-330 547q-31 52 -53 100h-5q-25 -52 -57 -100l-336 -547h-119l453 723l-426 711h119l321 -539q13 -21 25.5 -45t26.5 -51h4l53 96l319 539h115l-430 -709l440 -725h-120z" />
    <glyph glyph-name="Y" unicode="Y" horiz-adv-x="1042" 
d="M559 545v-545h-98v543l-439 891h111l334 -691q9 -19 20.5 -45.5t24.5 -60.5h4q7 19 19.5 44.5t29.5 59.5l350 693h107z" />
    <glyph glyph-name="Z" unicode="Z" horiz-adv-x="1064" 
d="M170 90h858v-90h-1007v31l868 1312h-799v91h952v-27z" />
    <glyph glyph-name="bracketleft" unicode="[" horiz-adv-x="390" 
d="M71 -326v1760h317v-84h-225v-1592h225v-84h-317z" />
    <glyph glyph-name="backslash" unicode="\" horiz-adv-x="797" 
d="M701 -238l-697 1672h97l692 -1672h-92z" />
    <glyph glyph-name="bracketright" unicode="]" horiz-adv-x="393" 
d="M2 -326v84h225v1592h-225v84h318v-1760h-318z" />
    <glyph glyph-name="asciicircum" unicode="^" horiz-adv-x="861" 
d="M740 702l-307 613h-4l-308 -613h-96l385 756h41l385 -756h-96z" />
    <glyph glyph-name="underscore" unicode="_" horiz-adv-x="993" 
d="M71 -268v90h850v-90h-850z" />
    <glyph glyph-name="grave" unicode="`" horiz-adv-x="359" 
d="M257 1188l-248 328h104l234 -328h-90z" />
    <glyph glyph-name="a" unicode="a" horiz-adv-x="875" 
d="M478 1049q160 0 245.5 -97t85.5 -286v-666h-92v161q-14 -35 -50 -68t-84.5 -59.5t-105.5 -42.5t-114 -16q-73 0 -131.5 22t-99.5 60.5t-63 91.5t-22 115q2 88 36.5 148.5t90.5 99t126.5 57.5t144.5 24.5t145 -0.5t127 -17l-1 93q-12 296 -247 296q-183 0 -317 -122
l-58 61q139 145 384 145zM144 268q0 -46 15.5 -84.5t45 -66t72 -43t96.5 -15.5q147 0 239 74q93 76 103 127v239q-45 9 -105 14.5t-123.5 2.5t-125 -16t-110 -41.5t-78 -75t-29.5 -115.5z" />
    <glyph glyph-name="b" unicode="b" horiz-adv-x="979" 
d="M141 182v-182h-92v1516h92v-703q8 17 31.5 55t65 77t102.5 69t145 33q97 3 182 -37.5t147 -113t98 -172.5t36 -215q0 -127 -34 -226.5t-95.5 -167.5t-146.5 -104t-187 -36q-231 0 -340 207h-4zM141 267q32 -42 66.5 -79.5t76.5 -66t93 -45.5t116 -17q79 0 145 29.5
t113.5 86.5t74 140.5t26.5 191.5q0 96 -31 179t-83.5 144.5t-121 97t-143.5 35.5q-57 -4 -101.5 -19.5t-83 -42.5t-73.5 -66t-74 -90v-478z" />
    <glyph glyph-name="c" unicode="c" horiz-adv-x="882" 
d="M823 63q-58 -42 -130 -65t-157 -23q-113 0 -203 39t-152.5 109.5t-96 168t-33.5 214.5q0 127 35.5 228t101 171t157 107t202.5 37q83 0 152.5 -21t126.5 -62l-50 -71q-93 70 -233 70q-90 0 -163 -31.5t-125 -90.5t-80 -144.5t-28 -194.5q0 -100 27 -182t78 -140.5
t123.5 -90.5t163.5 -32q74 0 133.5 19.5t106.5 57.5z" />
    <glyph glyph-name="d" unicode="d" horiz-adv-x="979" 
d="M812 182q-110 -207 -340 -207q-102 0 -187 36t-146.5 104t-95.5 167.5t-34 226.5q0 115 36 215t98 172.5t146.5 113t182.5 37.5q84 -3 145 -33t102.5 -69t65 -77t31.5 -55v703h92v-1516h-92v182h-4zM816 745q-39 51 -74 90t-73.5 66t-83 42.5t-101.5 19.5
q-75 0 -143.5 -35.5t-121 -97t-83.5 -144.5t-31 -179q0 -108 26.5 -191.5t74 -140.5t113.5 -86.5t145 -29.5q64 0 115.5 17t93.5 45.5t76.5 66t66.5 79.5v478z" />
    <glyph glyph-name="e" unicode="e" horiz-adv-x="951" 
d="M146 508q0 -106 25 -189.5t72.5 -141t115 -88t152.5 -30.5q174 0 307 109l42 -69q-172 -124 -368 -124q-99 0 -180 36.5t-139.5 106t-90.5 170.5t-32 230q0 111 33.5 207.5t94 168.5t145 113.5t186.5 41.5q96 0 169.5 -35t123.5 -99.5t76 -157.5t26 -208v-41h-758z
M808 592q-3 88 -24.5 157.5t-60.5 117.5t-94 73t-124 25q-72 0 -132 -24.5t-106 -71.5t-76 -117t-41 -160h658z" />
    <glyph glyph-name="f" unicode="f" horiz-adv-x="635" 
d="M592 1419q-38 29 -112 29q-189 0 -189 -254v-170h271v-84h-271v-940h-92v940h-184v84h184v178q0 82 22 144t60.5 103t90.5 62t112 21q65 0 145 -39z" />
    <glyph glyph-name="g" unicode="g" horiz-adv-x="996" 
d="M931 76q0 -145 -31 -250t-95 -173.5t-161.5 -101t-230.5 -32.5q-148 0 -305 78l61 73q100 -67 246 -67q424 0 424 448v133q-125 -209 -373 -209q-94 0 -172.5 35t-135.5 101.5t-88.5 163t-31.5 219.5q0 121 33.5 223t95 175.5t148 115t192.5 41.5q226 0 332 -187v162h92
v-948zM839 766q-145 199 -330 199q-85 0 -154 -33.5t-118 -94.5t-76 -146.5t-27 -188.5q0 -105 24.5 -187t69.5 -139t108.5 -87t141.5 -30q232 0 361 218v489z" />
    <glyph glyph-name="h" unicode="h" horiz-adv-x="880" 
d="M767 0v614q0 184 -66.5 267.5t-207.5 83.5q-190 0 -330 -245v-720h-92v1516h92v-676q125 209 356 209q168 0 254 -106t86 -308v-635h-92z" />
    <glyph glyph-name="i" unicode="i" horiz-adv-x="204" 
d="M100 1282q-30 0 -53 22t-23 56q0 33 23.5 53.5t52.5 20.5q31 0 54.5 -20t23.5 -54q0 -32 -23 -55t-55 -23zM55 0v1024h92v-1024h-92z" />
    <glyph glyph-name="j" unicode="j" horiz-adv-x="580" 
d="M461 1282q-30 0 -53 22t-23 56q0 33 23.5 53.5t52.5 20.5q31 0 54.5 -20t23.5 -54q0 -32 -23 -55t-55 -23zM508 29q0 -510 -362 -510q-27 0 -54 5.5t-51 13.5t-42.5 17t-28.5 16l30 79q80 -47 156 -47q260 0 260 409v1012h92v-995z" />
    <glyph glyph-name="k" unicode="k" horiz-adv-x="792" 
d="M657 0l-490 506h-4v-506h-92v1516h92v-977h4l465 485h119l-486 -496l525 -528h-133z" />
    <glyph glyph-name="l" unicode="l" horiz-adv-x="241" 
d="M161 0h-92v1516h92v-1516z" />
    <glyph glyph-name="m" unicode="m" horiz-adv-x="1515" 
d="M806 658v-658h-92v623q0 342 -260 342q-188 -16 -291 -208v-757h-92v1024h92v-170q66 100 144.5 147.5t172.5 47.5q39 0 79 -11.5t77.5 -35t70.5 -59t56 -83.5q66 97 143 143t170 46q55 0 113 -23.5t105 -71.5t77.5 -122t30.5 -174v-658h-92v623q0 342 -260 342
q-164 -15 -264 -163q9 -32 14.5 -67.5t5.5 -76.5z" />
    <glyph glyph-name="n" unicode="n" horiz-adv-x="924" 
d="M806 658v-658h-92v623q0 342 -260 342q-188 -16 -291 -208v-757h-92v1024h92v-170q66 100 144.5 147.5t172.5 47.5q55 0 113 -23.5t105 -71.5t77.5 -122t30.5 -174z" />
    <glyph glyph-name="o" unicode="o" horiz-adv-x="1072" 
d="M536 -25q-113 0 -203 39t-152.5 109.5t-96 168t-33.5 214.5q0 127 35.5 228t101 171t157 107t202.5 37q109 0 196.5 -37t149 -106.5t94.5 -169.5t33 -226q0 -118 -33.5 -216t-96 -169t-152.5 -110.5t-202 -39.5zM543 965q-90 0 -163 -31.5t-125 -90.5t-80 -144.5
t-28 -194.5q0 -100 27 -182t78 -140.5t123.5 -90.5t163.5 -32q92 0 164 31t121 89.5t74.5 142.5t25.5 190q0 221 -98.5 337t-282.5 116z" />
    <glyph glyph-name="p" unicode="p" horiz-adv-x="979" 
d="M145 843q109 207 340 207q102 0 187 -36t146.5 -104t95.5 -167.5t34 -226.5q0 -116 -36 -215.5t-98 -172t-147 -113t-182 -37.5q-84 3 -145 33t-102.5 69t-65 77t-31.5 55v-685h-92v1498h92v-182h4zM141 280q39 -51 74 -90t73.5 -66t83 -42.5t101.5 -19.5
q75 0 143.5 35.5t121 97t83.5 144.5t31 179q0 108 -26.5 191.5t-74 140.5t-113.5 86.5t-145 29.5q-65 0 -116 -17t-93 -45.5t-76.5 -66t-66.5 -79.5v-478z" />
    <glyph glyph-name="q" unicode="q" horiz-adv-x="980" 
d="M856 843v182h92v-1498h-92v685q-8 -17 -31.5 -55t-65 -77t-102.5 -69t-145 -33q-98 -3 -182.5 37.5t-146.5 113t-98 172t-36 215.5q0 127 34 226.5t95.5 167.5t146.5 104t187 36q230 0 340 -207h4zM856 758q-32 42 -66.5 79.5t-76.5 66t-93.5 45.5t-115.5 17
q-79 0 -145 -29.5t-113.5 -86.5t-74 -140.5t-26.5 -191.5q0 -96 31 -179t83.5 -144.5t121 -97t143.5 -35.5q57 4 101.5 19.5t83 42.5t73.5 66t74 90v478z" />
    <glyph glyph-name="r" unicode="r" horiz-adv-x="555" 
d="M554 928q-26 18 -54 25.5t-62 7.5q-176 0 -277 -203v-758h-90v1024h90v-161q63 94 133.5 137.5t157.5 43.5q14 0 32 -3t36.5 -7t35 -9.5t27.5 -9.5z" />
    <glyph glyph-name="s" unicode="s" horiz-adv-x="738" 
d="M48 75l40 81q25 -22 58 -40t68 -30.5t68.5 -19.5t59.5 -7q241 0 241 197q0 34 -13 62t-40 53.5t-69.5 49.5t-102.5 50q-75 32 -125.5 64t-82 68t-45 77t-13.5 90q0 63 26 114.5t71 88t105 56.5t129 20q130 0 261 -77l-35 -81q-116 74 -236 74q-50 0 -91.5 -14t-71 -39
t-46 -59.5t-16.5 -76.5q0 -37 7.5 -65t30 -53t64 -50t109.5 -55q81 -36 135 -68t86 -66t45.5 -73t13.5 -90q0 -61 -23.5 -112.5t-68 -89t-108.5 -58.5t-144 -21q-148 0 -287 100z" />
    <glyph glyph-name="t" unicode="t" horiz-adv-x="570" 
d="M558 14q-69 -34 -135 -34q-227 0 -227 272v688h-184v84h184v297h92v-297h270v-84h-270v-676q0 -106 33.5 -153.5t113.5 -47.5q57 0 96 24z" />
    <glyph glyph-name="u" unicode="u" horiz-adv-x="923" 
d="M760 0v186q-140 -212 -317 -212q-190 0 -285 110t-95 348v592h93v-569q0 -105 17 -180t52 -123t89 -70.5t128 -22.5q191 0 318 220v745h92v-1024h-92z" />
    <glyph glyph-name="v" unicode="v" horiz-adv-x="938" 
d="M506 0h-84l-396 1024h103l305 -815q11 -29 18.5 -56t12.5 -51h4q5 32 13 57.5t16 45.5l315 819h100z" />
    <glyph glyph-name="w" unicode="w" horiz-adv-x="1402" 
d="M1040 0h-86l-223 772q-5 16 -9 37.5t-7 48.5h-5q-2 -10 -5.5 -31t-14.5 -53l-250 -774h-86l-309 1024h102l238 -817q5 -17 8.5 -38.5t5.5 -47.5h8q1 14 6 35.5t13 50.5l260 817h63l232 -817q5 -16 7.5 -37t6.5 -49h8q0 14 4 35.5t13 50.5l243 817h95z" />
    <glyph glyph-name="x" unicode="x" horiz-adv-x="904" 
d="M503 502l334 -502h-117l-270 432h-4l-36 -57q-4 -6 -8 -12.5t-9 -14.5l-226 -348h-112l342 500l-336 524h108l228 -367q22 -35 35 -57t18 -31h4l51 84l238 371h108z" />
    <glyph glyph-name="y" unicode="y" horiz-adv-x="950" 
d="M441 -209q-28 -69 -58 -120t-66 -85t-78.5 -50.5t-96.5 -16.5q-43 0 -80 14l28 84q7 -6 56 -6q123 0 194 170l95 227l-388 1016h103l309 -834l25 -78l26 72l330 840h100z" />
    <glyph glyph-name="z" unicode="z" horiz-adv-x="895" 
d="M179 84h661v-84h-811v35l680 905h-631v84h787v-25z" />
    <glyph glyph-name="braceleft" unicode="{" horiz-adv-x="449" 
d="M420 -326q-127 5 -191.5 72t-64.5 219v297q0 237 -156 260v64q156 22 156 243v314q0 152 64.5 219t191.5 72v-84q-44 -2 -74.5 -15t-49.5 -41t-27.5 -72t-8.5 -108v-293q0 -223 -145 -266v-4q145 -46 145 -281v-276q0 -64 8.5 -108.5t27.5 -72t49.5 -40.5t74.5 -15v-84z
" />
    <glyph glyph-name="bar" unicode="|" horiz-adv-x="243" 
d="M71 -481v2048h95v-2048h-95z" />
    <glyph glyph-name="braceright" unicode="}" horiz-adv-x="448" 
d="M440 522q-155 -23 -155 -260v-297q0 -77 -16 -131t-48.5 -88.5t-80.5 -51.5t-111 -20v84q41 2 71 13.5t49.5 38.5t29 71.5t9.5 112.5v276q0 234 146 281v4q-146 45 -146 266v293q0 67 -9.5 112t-29 72t-49.5 38.5t-71 13.5v84q63 -3 111 -20t80.5 -51.5t48.5 -88.5
t16 -131v-314q0 -220 155 -243v-64z" />
    <glyph glyph-name="asciitilde" unicode="~" horiz-adv-x="956" 
d="M898 711q-7 -115 -68.5 -178.5t-164.5 -63.5q-95 0 -201 84q-107 84 -176 84q-141 0 -153 -158h-78q6 115 68 178.5t165 63.5q94 0 195 -80q36 -29 60 -46.5t44 -27.5t38 -13t42 -3q133 0 152 160h77z" />
    <glyph glyph-name="Aring" unicode="&#xc5;" horiz-adv-x="1229" 
d="M1088 0l-164 446h-622l-164 -446h-109l519 1374q-134 42 -134 176q0 40 16 74t43.5 59t64 38.5t77.5 13.5q42 0 78.5 -13t64 -37.5t43 -58.5t15.5 -76q0 -129 -131 -174l514 -1376h-111zM615 1667q-57 0 -92 -31.5t-35 -85.5q0 -26 9.5 -47.5t27 -36.5t40.5 -23.5
t50 -8.5q57 0 93 32t36 84q0 57 -37.5 87t-91.5 30zM648 1200q-11 28 -18 55t-15 54h-4q-16 -65 -33 -107l-241 -665h553z" />
    <glyph glyph-name="Udieresis" unicode="&#xdc;" horiz-adv-x="1327" 
d="M1060 573q0 -598 -510 -598q-485 0 -485 576v883h98v-869q0 -499 406 -499q393 0 393 485v883h98v-861zM755 1537q-27 0 -49 19.5t-22 52.5q0 31 21.5 50t47.5 19q29 0 52.5 -19.5t23.5 -49.5q0 -31 -21.5 -51.5t-52.5 -20.5zM422 1537q-28 0 -50 19.5t-22 52.5
q0 31 22 50t48 19q29 0 52 -19.5t23 -49.5q0 -31 -21 -51.5t-52 -20.5z" />
    <glyph glyph-name="aacute" unicode="&#xe1;" horiz-adv-x="1012" 
d="M478 1049q160 0 245.5 -97t85.5 -286v-666h-92v161q-14 -35 -50 -68t-84.5 -59.5t-105.5 -42.5t-114 -16q-73 0 -131.5 22t-99.5 60.5t-63 91.5t-22 115q2 88 36.5 148.5t90.5 99t126.5 57.5t144.5 24.5t145 -0.5t127 -17l-1 93q-12 296 -247 296q-183 0 -317 -122
l-58 61q139 145 384 145zM144 268q0 -46 15.5 -84.5t45 -66t72 -43t96.5 -15.5q147 0 239 74q93 76 103 127v239q-45 9 -105 14.5t-123.5 2.5t-125 -16t-110 -41.5t-78 -75t-29.5 -115.5zM327 1188h-90l234 328h104z" />
    <glyph glyph-name="agrave" unicode="&#xe0;" horiz-adv-x="1012" 
d="M478 1049q160 0 245.5 -97t85.5 -286v-666h-92v161q-14 -35 -50 -68t-84.5 -59.5t-105.5 -42.5t-114 -16q-73 0 -131.5 22t-99.5 60.5t-63 91.5t-22 115q2 88 36.5 148.5t90.5 99t126.5 57.5t144.5 24.5t145 -0.5t127 -17l-1 93q-12 296 -247 296q-183 0 -317 -122
l-58 61q139 145 384 145zM144 268q0 -46 15.5 -84.5t45 -66t72 -43t96.5 -15.5q147 0 239 74q93 76 103 127v239q-45 9 -105 14.5t-123.5 2.5t-125 -16t-110 -41.5t-78 -75t-29.5 -115.5zM452 1188l-248 328h104l234 -328h-90z" />
    <glyph glyph-name="acircumflex" unicode="&#xe2;" horiz-adv-x="1012" 
d="M478 1049q160 0 245.5 -97t85.5 -286v-666h-92v161q-14 -35 -50 -68t-84.5 -59.5t-105.5 -42.5t-114 -16q-73 0 -131.5 22t-99.5 60.5t-63 91.5t-22 115q2 88 36.5 148.5t90.5 99t126.5 57.5t144.5 24.5t145 -0.5t127 -17l-1 93q-12 296 -247 296q-183 0 -317 -122
l-58 61q139 145 384 145zM144 268q0 -46 15.5 -84.5t45 -66t72 -43t96.5 -15.5q147 0 239 74q93 76 103 127v239q-45 9 -105 14.5t-123.5 2.5t-125 -16t-110 -41.5t-78 -75t-29.5 -115.5zM568 1188l-157 239l-160 -239h-82l221 336h45l219 -336h-86z" />
    <glyph glyph-name="adieresis" unicode="&#xe4;" horiz-adv-x="1012" 
d="M478 1049q160 0 245.5 -97t85.5 -286v-666h-92v161q-14 -35 -50 -68t-84.5 -59.5t-105.5 -42.5t-114 -16q-73 0 -131.5 22t-99.5 60.5t-63 91.5t-22 115q2 88 36.5 148.5t90.5 99t126.5 57.5t144.5 24.5t145 -0.5t127 -17l-1 93q-12 296 -247 296q-183 0 -317 -122
l-58 61q139 145 384 145zM144 268q0 -46 15.5 -84.5t45 -66t72 -43t96.5 -15.5q147 0 239 74q93 76 103 127v239q-45 9 -105 14.5t-123.5 2.5t-125 -16t-110 -41.5t-78 -75t-29.5 -115.5zM560 1188q-27 0 -49 19.5t-22 52.5q0 31 21.5 50t47.5 19q29 0 52.5 -19.5
t23.5 -49.5q0 -31 -21.5 -51.5t-52.5 -20.5zM227 1188q-28 0 -50 19.5t-22 52.5q0 31 22 50t48 19q29 0 52 -19.5t23 -49.5q0 -31 -21 -51.5t-52 -20.5z" />
    <glyph glyph-name="atilde" unicode="&#xe3;" horiz-adv-x="1012" 
d="M478 1049q160 0 245.5 -97t85.5 -286v-666h-92v161q-14 -35 -50 -68t-84.5 -59.5t-105.5 -42.5t-114 -16q-73 0 -131.5 22t-99.5 60.5t-63 91.5t-22 115q2 88 36.5 148.5t90.5 99t126.5 57.5t144.5 24.5t145 -0.5t127 -17l-1 93q-12 296 -247 296q-183 0 -317 -122
l-58 61q139 145 384 145zM144 268q0 -46 15.5 -84.5t45 -66t72 -43t96.5 -15.5q147 0 239 74q93 76 103 127v239q-45 9 -105 14.5t-123.5 2.5t-125 -16t-110 -41.5t-78 -75t-29.5 -115.5zM837 1423q0 -103 -48.5 -163t-130.5 -60q-65 0 -151 76q-32 28 -62.5 41.5
t-56.5 13.5q-102 0 -102 -143h-72q0 49 12.5 90t36 70t56 45t71.5 16q73 0 160 -72q35 -29 63 -44t54 -15q40 0 68 36.5t28 108.5h74z" />
    <glyph glyph-name="aring" unicode="&#xe5;" horiz-adv-x="849" 
d="M503 1188q-42 0 -79 13t-64 37t-42.5 58t-15.5 76q0 40 15 73.5t42 58t63.5 38.5t80.5 14q43 0 80 -13.5t64 -37.5t42 -58t15 -75q0 -40 -15.5 -73.5t-43 -58t-64 -38.5t-78.5 -14zM503 1489q-57 0 -92 -31.5t-35 -85.5q0 -27 9.5 -48.5t27 -36.5t40.5 -23.5t50 -8.5
q57 0 93 32.5t36 84.5q0 57 -37.5 87t-91.5 30zM460 1049q160 0 245.5 -97t85.5 -286v-666h-92v161q-14 -35 -50 -68t-84.5 -59.5t-105.5 -42.5t-114 -16q-73 0 -131.5 22t-99.5 60.5t-63 91.5t-22 115q8 81 42.5 143t87 103.5t119 62.5t138.5 21t144.5 -20.5t138.5 -65.5
l-1 161q-12 296 -247 296q-183 0 -317 -122l-58 61q139 145 384 145zM126 268q0 -46 15.5 -84.5t45 -66t72 -43t96.5 -15.5q147 0 239 74q93 76 103 127v168q-69 46 -137 67t-134 21q-63 0 -117.5 -18t-95 -51t-64 -78.5t-23.5 -100.5z" />
    <glyph glyph-name="ccedilla" unicode="&#xe7;" horiz-adv-x="909" 
d="M823 63q-58 -42 -130 -65t-157 -23q-113 0 -203 39t-152.5 109.5t-96 168t-33.5 214.5q0 127 35.5 228t101 171t157 107t202.5 37q83 0 152.5 -21t126.5 -62l-50 -71q-93 70 -233 70q-90 0 -163 -31.5t-125 -90.5t-80 -144.5t-28 -194.5q0 -100 27 -182t78 -140.5
t123.5 -90.5t163.5 -32q74 0 133.5 19.5t106.5 57.5zM404 -430v74q49 -6 86 -6q160 0 160 92q0 86 -145 86q-16 0 -32 -1t-32 -3v188h72v-117q225 0 225 -147q0 -170 -254 -170q-18 0 -38 1t-42 3z" />
    <glyph glyph-name="eacute" unicode="&#xe9;" horiz-adv-x="1034" 
d="M146 508q0 -106 25 -189.5t72.5 -141t115 -88t152.5 -30.5q174 0 307 109l42 -69q-172 -124 -368 -124q-99 0 -180 36.5t-139.5 106t-90.5 170.5t-32 230q0 111 33.5 207.5t94 168.5t145 113.5t186.5 41.5q96 0 169.5 -35t123.5 -99.5t76 -157.5t26 -208v-41h-758z
M808 592q-3 88 -24.5 157.5t-60.5 117.5t-94 73t-124 25q-72 0 -132 -24.5t-106 -71.5t-76 -117t-41 -160h658zM364 1188h-90l234 328h104z" />
    <glyph glyph-name="egrave" unicode="&#xe8;" horiz-adv-x="1034" 
d="M146 508q0 -106 25 -189.5t72.5 -141t115 -88t152.5 -30.5q174 0 307 109l42 -69q-172 -124 -368 -124q-99 0 -180 36.5t-139.5 106t-90.5 170.5t-32 230q0 111 33.5 207.5t94 168.5t145 113.5t186.5 41.5q96 0 169.5 -35t123.5 -99.5t76 -157.5t26 -208v-41h-758z
M808 592q-3 88 -24.5 157.5t-60.5 117.5t-94 73t-124 25q-72 0 -132 -24.5t-106 -71.5t-76 -117t-41 -160h658zM502 1188l-248 328h104l234 -328h-90z" />
    <glyph glyph-name="ecircumflex" unicode="&#xea;" horiz-adv-x="1034" 
d="M146 508q0 -106 25 -189.5t72.5 -141t115 -88t152.5 -30.5q174 0 307 109l42 -69q-172 -124 -368 -124q-99 0 -180 36.5t-139.5 106t-90.5 170.5t-32 230q0 111 33.5 207.5t94 168.5t145 113.5t186.5 41.5q96 0 169.5 -35t123.5 -99.5t76 -157.5t26 -208v-41h-758z
M808 592q-3 88 -24.5 157.5t-60.5 117.5t-94 73t-124 25q-72 0 -132 -24.5t-106 -71.5t-76 -117t-41 -160h658zM602 1188l-157 239l-160 -239h-82l221 336h45l219 -336h-86z" />
    <glyph glyph-name="edieresis" unicode="&#xeb;" horiz-adv-x="1034" 
d="M146 508q0 -106 25 -189.5t72.5 -141t115 -88t152.5 -30.5q174 0 307 109l42 -69q-172 -124 -368 -124q-99 0 -180 36.5t-139.5 106t-90.5 170.5t-32 230q0 111 33.5 207.5t94 168.5t145 113.5t186.5 41.5q96 0 169.5 -35t123.5 -99.5t76 -157.5t26 -208v-41h-758z
M808 592q-3 88 -24.5 157.5t-60.5 117.5t-94 73t-124 25q-72 0 -132 -24.5t-106 -71.5t-76 -117t-41 -160h658zM597 1188q-27 0 -49 19.5t-22 52.5q0 31 21.5 50t47.5 19q29 0 52.5 -19.5t23.5 -49.5q0 -31 -21.5 -51.5t-52.5 -20.5zM264 1188q-28 0 -50 19.5t-22 52.5
q0 31 22 50t48 19q29 0 52 -19.5t23 -49.5q0 -31 -21 -51.5t-52 -20.5z" />
    <glyph glyph-name="iacute" unicode="&#xed;" horiz-adv-x="364" 
d="M100 0v1024h92v-1024h-92zM-16 1188h-90l234 328h104z" />
    <glyph glyph-name="igrave" unicode="&#xec;" horiz-adv-x="380" 
d="M227 0v1024h92v-1024h-92zM250 1188l-248 328h104l234 -328h-90z" />
    <glyph glyph-name="icircumflex" unicode="&#xee;" horiz-adv-x="509" 
d="M206 0v1024h92v-1024h-92zM309 1188l-157 239l-160 -239h-82l221 336h45l219 -336h-86z" />
    <glyph glyph-name="idieresis" unicode="&#xef;" horiz-adv-x="497" 
d="M201 0v1024h92v-1024h-92zM309 1188q-27 0 -49 19.5t-22 52.5q0 31 21.5 50t47.5 19q29 0 52.5 -19.5t23.5 -49.5q0 -31 -21.5 -51.5t-52.5 -20.5zM-24 1188q-28 0 -50 19.5t-22 52.5q0 31 22 50t48 19q29 0 52 -19.5t23 -49.5q0 -31 -21 -51.5t-52 -20.5z" />
    <glyph glyph-name="ntilde" unicode="&#xf1;" horiz-adv-x="1096" 
d="M806 658v-658h-92v623q0 342 -260 342q-188 -16 -291 -208v-757h-92v1024h92v-170q66 100 144.5 147.5t172.5 47.5q55 0 113 -23.5t105 -71.5t77.5 -122t30.5 -174zM909 1423q0 -103 -48.5 -163t-130.5 -60q-65 0 -151 76q-32 28 -62.5 41.5t-56.5 13.5q-102 0 -102 -143
h-72q0 49 12.5 90t36 70t56 45t71.5 16q73 0 160 -72q35 -29 63 -44t54 -15q40 0 68 36.5t28 108.5h74z" />
    <glyph glyph-name="oacute" unicode="&#xf3;" horiz-adv-x="1149" 
d="M536 -25q-113 0 -203 39t-152.5 109.5t-96 168t-33.5 214.5q0 127 35.5 228t101 171t157 107t202.5 37q109 0 196.5 -37t149 -106.5t94.5 -169.5t33 -226q0 -118 -33.5 -216t-96 -169t-152.5 -110.5t-202 -39.5zM543 965q-90 0 -163 -31.5t-125 -90.5t-80 -144.5
t-28 -194.5q0 -100 27 -182t78 -140.5t123.5 -90.5t163.5 -32q92 0 164 31t121 89.5t74.5 142.5t25.5 190q0 221 -98.5 337t-282.5 116zM416 1188h-90l234 328h104z" />
    <glyph glyph-name="ograve" unicode="&#xf2;" horiz-adv-x="1149" 
d="M536 -25q-113 0 -203 39t-152.5 109.5t-96 168t-33.5 214.5q0 127 35.5 228t101 171t157 107t202.5 37q109 0 196.5 -37t149 -106.5t94.5 -169.5t33 -226q0 -118 -33.5 -216t-96 -169t-152.5 -110.5t-202 -39.5zM543 965q-90 0 -163 -31.5t-125 -90.5t-80 -144.5
t-28 -194.5q0 -100 27 -182t78 -140.5t123.5 -90.5t163.5 -32q92 0 164 31t121 89.5t74.5 142.5t25.5 190q0 221 -98.5 337t-282.5 116zM525 1188l-248 328h104l234 -328h-90z" />
    <glyph glyph-name="ocircumflex" unicode="&#xf4;" horiz-adv-x="1149" 
d="M536 -25q-113 0 -203 39t-152.5 109.5t-96 168t-33.5 214.5q0 127 35.5 228t101 171t157 107t202.5 37q109 0 196.5 -37t149 -106.5t94.5 -169.5t33 -226q0 -118 -33.5 -216t-96 -169t-152.5 -110.5t-202 -39.5zM543 965q-90 0 -163 -31.5t-125 -90.5t-80 -144.5
t-28 -194.5q0 -100 27 -182t78 -140.5t123.5 -90.5t163.5 -32q92 0 164 31t121 89.5t74.5 142.5t25.5 190q0 221 -98.5 337t-282.5 116zM646 1188l-157 239l-160 -239h-82l221 336h45l219 -336h-86z" />
    <glyph glyph-name="odieresis" unicode="&#xf6;" horiz-adv-x="1149" 
d="M536 -25q-113 0 -203 39t-152.5 109.5t-96 168t-33.5 214.5q0 127 35.5 228t101 171t157 107t202.5 37q109 0 196.5 -37t149 -106.5t94.5 -169.5t33 -226q0 -118 -33.5 -216t-96 -169t-152.5 -110.5t-202 -39.5zM543 965q-90 0 -163 -31.5t-125 -90.5t-80 -144.5
t-28 -194.5q0 -100 27 -182t78 -140.5t123.5 -90.5t163.5 -32q92 0 164 31t121 89.5t74.5 142.5t25.5 190q0 221 -98.5 337t-282.5 116zM644 1188q-27 0 -49 19.5t-22 52.5q0 31 21.5 50t47.5 19q29 0 52.5 -19.5t23.5 -49.5q0 -31 -21.5 -51.5t-52.5 -20.5zM311 1188
q-28 0 -50 19.5t-22 52.5q0 31 22 50t48 19q29 0 52 -19.5t23 -49.5q0 -31 -21 -51.5t-52 -20.5z" />
    <glyph glyph-name="otilde" unicode="&#xf5;" horiz-adv-x="1149" 
d="M536 -25q-113 0 -203 39t-152.5 109.5t-96 168t-33.5 214.5q0 127 35.5 228t101 171t157 107t202.5 37q109 0 196.5 -37t149 -106.5t94.5 -169.5t33 -226q0 -118 -33.5 -216t-96 -169t-152.5 -110.5t-202 -39.5zM543 965q-90 0 -163 -31.5t-125 -90.5t-80 -144.5
t-28 -194.5q0 -100 27 -182t78 -140.5t123.5 -90.5t163.5 -32q92 0 164 31t121 89.5t74.5 142.5t25.5 190q0 221 -98.5 337t-282.5 116zM924 1423q0 -103 -48.5 -163t-130.5 -60q-65 0 -151 76q-32 28 -62.5 41.5t-56.5 13.5q-102 0 -102 -143h-72q0 49 12.5 90t36 70t56 45
t71.5 16q73 0 160 -72q35 -29 63 -44t54 -15q40 0 68 36.5t28 108.5h74z" />
    <glyph glyph-name="uacute" unicode="&#xfa;" horiz-adv-x="1096" 
d="M760 0v186q-140 -212 -317 -212q-190 0 -285 110t-95 348v592h93v-569q0 -105 17 -180t52 -123t89 -70.5t128 -22.5q191 0 318 220v745h92v-1024h-92zM418 1188h-90l234 328h104z" />
    <glyph glyph-name="ugrave" unicode="&#xf9;" horiz-adv-x="1096" 
d="M760 0v186q-140 -212 -317 -212q-190 0 -285 110t-95 348v592h93v-569q0 -105 17 -180t52 -123t89 -70.5t128 -22.5q191 0 318 220v745h92v-1024h-92zM491 1188l-248 328h104l234 -328h-90z" />
    <glyph glyph-name="ucircumflex" unicode="&#xfb;" horiz-adv-x="1096" 
d="M760 0v186q-140 -212 -317 -212q-190 0 -285 110t-95 348v592h93v-569q0 -105 17 -180t52 -123t89 -70.5t128 -22.5q191 0 318 220v745h92v-1024h-92zM624 1188l-157 239l-160 -239h-82l221 336h45l219 -336h-86z" />
    <glyph glyph-name="udieresis" unicode="&#xfc;" horiz-adv-x="1096" 
d="M760 0v186q-140 -212 -317 -212q-190 0 -285 110t-95 348v592h93v-569q0 -105 17 -180t52 -123t89 -70.5t128 -22.5q191 0 318 220v745h92v-1024h-92zM630 1188q-27 0 -49 19.5t-22 52.5q0 31 21.5 50t47.5 19q29 0 52.5 -19.5t23.5 -49.5q0 -31 -21.5 -51.5t-52.5 -20.5
zM297 1188q-28 0 -50 19.5t-22 52.5q0 31 22 50t48 19q29 0 52 -19.5t23 -49.5q0 -31 -21 -51.5t-52 -20.5z" />
    <glyph glyph-name="dagger" unicode="&#x2020;" horiz-adv-x="670" 
d="M664 933l-272 30v-734h-66v734l-322 -30v110l312 -20l-30 410h116l-30 -410l292 20v-110z" />
    <glyph glyph-name="degree" unicode="&#xb0;" horiz-adv-x="602" 
d="M303 930q-52 0 -98 20.5t-80.5 55t-55 80.5t-20.5 98q0 51 20 96.5t54 79.5t79.5 54t96.5 20q52 0 98.5 -20t81 -54.5t54.5 -79.5t20 -96t-19.5 -97.5t-53.5 -81t-79.5 -55t-97.5 -20.5zM303 1358q-35 0 -66 -14t-54.5 -37.5t-37.5 -55t-14 -67.5t13 -68.5t36 -57
t53.5 -38.5t65.5 -14t66 14t54 38.5t36.5 57t13.5 68.5t-13 68t-35.5 55.5t-53 37t-64.5 13.5z" />
    <glyph glyph-name="cent" unicode="&#xa2;" horiz-adv-x="814" 
d="M787 219q-117 -66 -247 -78v-198h-92v198q-97 8 -175.5 49t-133.5 109t-85 159t-30 199q0 107 30 200t85.5 165t133.5 119.5t175 64.5v199h92v-193q116 0 252 -62l-27 -89q-105 63 -225 67v-903q130 10 221 80zM448 1122q-77 -14 -137.5 -54t-103 -100t-65 -137.5
t-22.5 -166.5q0 -90 22 -166t64 -133t103 -93.5t139 -46.5v897z" />
    <glyph glyph-name="sterling" unicode="&#xa3;" horiz-adv-x="905" 
d="M26 0v40q62 26 108.5 69t77.5 97t46.5 117t15.5 128v211h-228v90h228v290q0 93 26 170t73 131.5t114 84.5t149 30q24 0 51.5 -3t55 -8.5t54 -12.5t48.5 -16l-27 -89q-90 45 -186 45q-127 0 -196.5 -87t-69.5 -257v-278h307v-90h-307v-177q0 -83 -17.5 -148.5t-49 -119.5
t-75.5 -98t-97 -84l70 49h697v-84h-868z" />
    <glyph glyph-name="section" unicode="&#xa7;" horiz-adv-x="676" 
d="M491 403q95 -71 95 -200q0 -57 -23.5 -106t-65.5 -85t-101 -57t-130 -21q-27 0 -57.5 5t-62.5 14t-63.5 20.5t-59.5 23.5l26 85q118 -64 219 -64q109 0 165 50.5t56 132.5q0 26 -6 51t-24 49.5t-52 50t-89 52.5q-90 43 -145 82t-84.5 78.5t-39.5 81.5t-10 91
q0 172 162 256q-123 82 -123 219q0 62 21 113.5t61 88t97.5 57t129.5 20.5q28 0 58 -3.5t59.5 -10t56.5 -15t48 -17.5l-27 -87q-85 49 -197 49q-211 0 -211 -188q0 -41 12 -72t42 -59.5t82 -57.5t132 -65q102 -47 152.5 -117t50.5 -162q0 -162 -154 -283zM279 946
q-144 -65 -144 -203q0 -49 12.5 -86t44.5 -69.5t86.5 -63t139.5 -67.5q34 25 59 49t41 50.5t23.5 57.5t7.5 72q0 39 -9 69.5t-37.5 60t-82 60.5t-141.5 70z" />
    <glyph glyph-name="bullet" unicode="&#x2022;" horiz-adv-x="581" 
d="M293 477q-50 0 -94.5 18.5t-77.5 51t-52.5 75.5t-19.5 91q0 49 19.5 92.5t53 76.5t77.5 52.5t94 19.5q49 0 92.5 -19t76 -52t51.5 -77t19 -93t-19 -92t-51.5 -75t-76 -50.5t-92.5 -18.5z" />
    <glyph glyph-name="paragraph" unicode="&#xb6;" horiz-adv-x="823" 
d="M652 1348v-1348h-86v1348h-198v-1348h-87v903q-53 0 -98 20.5t-79 56t-53 83.5t-19 104q0 61 20.5 110.5t55.5 84t81.5 53.5t98.5 19h495v-86h-131z" />
    <glyph glyph-name="germandbls" unicode="&#xdf;" horiz-adv-x="920" 
d="M298 18l35 70q76 -29 141 -29q71 0 128 23.5t97 66t61.5 101.5t21.5 131q0 78 -28 142.5t-81 114.5t-130.5 84t-176.5 50v80q307 70 307 332q0 61 -16.5 110t-48 83t-77 52.5t-102.5 18.5q-65 0 -115 -18t-84.5 -64.5t-52.5 -128.5t-18 -209v-1026h-92v1040
q0 142 26.5 236.5t75 151t117 79.5t152.5 23q74 0 135 -24t104.5 -68t67.5 -105.5t24 -136.5q0 -264 -256 -375v-4q84 -22 151.5 -63.5t115 -98t73 -125.5t25.5 -145q0 -88 -29 -163.5t-81.5 -130.5t-126 -86.5t-163.5 -31.5q-18 0 -44.5 4t-53 10.5t-49.5 14t-33 14.5z" />
    <glyph glyph-name="uni00AD" unicode="&#xad;" horiz-adv-x="690" 
d="M71 555v90h547v-90h-547z" />
    <glyph glyph-name="registered" unicode="&#xae;" horiz-adv-x="1591" 
d="M796 -25q-312 0 -529 216q-218 216 -218 524q0 310 219 526q220 217 526 217q308 0 528 -217t220 -524q0 -308 -219 -525q-217 -217 -527 -217zM794 1382q-273 0 -469 -196t-196 -471q0 -273 195 -469q193 -195 470 -195t472 196q196 196 196 468q0 274 -197 471
q-196 196 -471 196zM1048 242l-262 428h-172v-428h-92v966h264q79 0 141 -18.5t104.5 -51.5t64.5 -80t22 -104q0 -222 -252 -268l287 -444h-105zM614 1137v-396h194q49 0 88.5 14.5t67.5 40.5t43.5 62t15.5 80q0 199 -239 199h-170z" />
    <glyph glyph-name="copyright" unicode="&#xa9;" horiz-adv-x="1591" 
d="M796 -25q-312 0 -529 216q-218 216 -218 524q0 310 219 526q220 217 526 217q308 0 528 -217t220 -524q0 -308 -219 -525q-217 -217 -527 -217zM794 1382q-273 0 -469 -196t-196 -471q0 -273 195 -469q193 -195 470 -195t472 196q196 196 196 468q0 274 -197 471
q-196 196 -471 196zM1110 283q-158 -84 -285 -84q-104 0 -194 37.5t-157.5 103.5t-106 156t-38.5 194q0 123 39 222t108 168.5t162.5 107t202.5 37.5q130 0 265 -67l-35 -73q-106 58 -246 58q-84 0 -157.5 -30.5t-128 -87t-86.5 -136t-32 -178.5q0 -96 33 -175t89.5 -135
t131.5 -87t160 -31q131 0 240 67z" />
    <glyph glyph-name="trademark" unicode="&#x2122;" horiz-adv-x="1424" 
d="M1271 772v533l-231 -533h-68l-221 533v-533h-82v662h115l223 -545h4l234 545h108v-662h-82zM350 1356v-584h-82v584h-221v78h526v-78h-223z" />
    <glyph glyph-name="acute" unicode="&#xb4;" horiz-adv-x="359" 
d="M102 1188h-90l234 328h104z" />
    <glyph glyph-name="dieresis" unicode="&#xa8;" horiz-adv-x="608" 
d="M470 1188q-27 0 -49 19.5t-22 52.5q0 31 21.5 50t47.5 19q29 0 52.5 -19.5t23.5 -49.5q0 -31 -21.5 -51.5t-52.5 -20.5zM137 1188q-28 0 -50 19.5t-22 52.5q0 31 22 50t48 19q29 0 52 -19.5t23 -49.5q0 -31 -21 -51.5t-52 -20.5z" />
    <glyph glyph-name="Oslash" unicode="&#xd8;" horiz-adv-x="1470" 
d="M284 147l-170 -202l-63 51l178 213q-153 199 -153 493q0 171 48 310.5t138 238.5t218 153t288 54q235 0 399 -131l139 166l64 -53l-141 -168q188 -203 188 -533q0 -177 -48 -318.5t-136.5 -240.5t-213.5 -152t-278 -53q-276 0 -457 172zM1106 1253q-142 115 -355 115
q-125 0 -230 -47.5t-181 -134t-119 -207t-43 -266.5q0 -258 117 -426zM1165 1196l-817 -973q153 -157 391 -157q133 0 239.5 44.5t181.5 129.5t115 206.5t40 276.5q0 297 -150 473z" />
    <glyph glyph-name="plusminus" unicode="&#xb1;" horiz-adv-x="919" 
d="M502 633v-412h-84v412h-412v84h412v411h84v-411h411v-84h-411zM6 0v84h907v-84h-907z" />
    <glyph glyph-name="yen" unicode="&#xa5;" horiz-adv-x="960" 
d="M553 745h344v-83h-373v-246h373v-84h-373v-332h-92v332h-372v84h372v246h-372v83h342l-377 689h102l307 -572q18 -34 30 -58t17 -38h5q10 33 21 58t22 42l311 568h96z" />
    <glyph glyph-name="uni00B5" unicode="&#xb5;" horiz-adv-x="887" 
d="M767 0v186h-4q-105 -211 -330 -211q-177 0 -262 123h-8v-489h-92v1415h92v-569q0 -105 17 -180t52.5 -123t89 -70.5t126.5 -22.5t132 28t100.5 79t64 121.5t22.5 156.5v580h92v-1024h-92z" />
    <glyph glyph-name="ordfeminine" unicode="&#xaa;" horiz-adv-x="685" 
d="M529 717v143q-21 -38 -49 -67.5t-61.5 -50t-71 -31.5t-76.5 -11q-53 0 -94 16t-70 43.5t-44 64.5t-15 79q0 81 44 135.5t113.5 84.5t155 36.5t168.5 -8.5q0 223 -166 223q-132 0 -254 -92l-18 86q64 38 138.5 62t141.5 24q248 0 248 -274v-463h-90zM149 906
q0 -57 34 -91.5t106 -34.5q24 0 55 5.5t64 22t64.5 46t56.5 77.5v146q-25 3 -62 9t-78.5 7t-83 -5t-75.5 -26.5t-56 -57.5t-25 -98z" />
    <glyph glyph-name="ordmasculine" unicode="&#xba;" horiz-adv-x="798" 
d="M399 696q-80 0 -144 28t-109.5 78.5t-70 119.5t-24.5 151q0 90 26 160.5t73 119.5t112 75t143 26q79 0 142 -26t107.5 -75t68.5 -119.5t24 -158.5q0 -81 -24.5 -150t-69.5 -120t-109.5 -80t-144.5 -29zM403 1374q-59 0 -106.5 -21t-81 -60t-52 -95.5t-18.5 -126.5
q0 -66 18.5 -120.5t52 -92.5t80.5 -59t105 -21q121 0 185.5 78.5t64.5 220.5q0 139 -65 218t-183 79z" />
    <glyph glyph-name="oslash" unicode="&#xf8;" horiz-adv-x="1192" 
d="M973 870q98 -140 98 -360q0 -118 -33.5 -216t-96 -169t-152.5 -110.5t-202 -39.5q-191 0 -319 113l-166 -184l-61 57l170 189q-109 145 -109 356q0 127 35.5 228t101 171t157 107t202.5 37q200 0 321 -115l172 190l62 -55zM858 866q-99 99 -264 99q-90 0 -163 -31.5
t-125 -90.5t-80 -144.5t-28 -194.5q0 -167 76 -285zM909 799l-582 -643q103 -97 263 -97q92 0 164 31t121 89.5t74.5 142.5t25.5 190q0 171 -66 287z" />
    <glyph glyph-name="questiondown" unicode="&#xbf;" horiz-adv-x="720" 
d="M429 626q10 -25 17.5 -65.5t7.5 -80.5q0 -47 -12.5 -85.5t-35.5 -72.5t-54.5 -66t-68.5 -65q-32 -29 -63 -60.5t-55 -67.5t-38.5 -78.5t-14.5 -93.5q0 -55 18.5 -98.5t51.5 -74t79.5 -46.5t102.5 -16q46 0 90.5 9t83 24.5t70 36t52.5 43.5l51 -65q-48 -43 -90 -70
t-83 -42t-83.5 -20.5t-91.5 -5.5q-74 0 -137.5 21t-110 61.5t-73 99t-26.5 133.5q0 57 16 104t41.5 87t58.5 75t67 68q52 50 86 84.5t53 62.5t26.5 54.5t7.5 62.5q0 46 -8 83.5t-16 63.5h81zM394 1042q34 0 56.5 -23.5t22.5 -57.5q0 -35 -22.5 -57.5t-56.5 -22.5
q-35 0 -58.5 22.5t-23.5 57.5q0 34 23.5 57.5t58.5 23.5z" />
    <glyph glyph-name="uni00A0" unicode="&#xa0;" horiz-adv-x="561" 
 />
    <glyph glyph-name="exclamdown" unicode="&#xa1;" horiz-adv-x="214" 
d="M105 881q-34 0 -58 22.5t-24 57.5q0 34 24 57.5t58 23.5t57 -23.5t23 -57.5q0 -35 -23 -57.5t-57 -22.5zM54 -408v1031h96v-1031h-96z" />
    <glyph glyph-name="logicalnot" unicode="&#xac;" horiz-adv-x="982" 
d="M824 147v408h-821v84h907v-492h-86z" />
    <glyph glyph-name="florin" unicode="&#x192;" horiz-adv-x="872" 
d="M803 1313q-29 39 -65 39q-179 0 -207 -201l-33 -231h172v-82h-184l-98 -705q-15 -111 -42 -189.5t-66 -128t-89 -72t-111 -22.5q-36 0 -71 13v82q38 -13 67 -13q174 0 219 324l97 711h-105v82h117l33 231q20 141 96.5 212t191.5 71q98 -5 143 -75z" />
    <glyph glyph-name="guillemotleft" unicode="&#xab;" horiz-adv-x="794" 
d="M624 201l-277 336l277 344h114l-282 -344l280 -336h-112zM306 201l-276 336l276 344h113l-281 -344l281 -336h-113z" />
    <glyph glyph-name="guillemotright" unicode="&#xbb;" horiz-adv-x="797" 
d="M489 201h-113l283 344l-283 336h113l278 -336zM174 201h-117l285 344l-285 336h115l276 -336z" />
    <glyph glyph-name="ellipsis" unicode="&#x2026;" horiz-adv-x="1216" 
d="M1066 -16q-34 0 -57 23.5t-23 58.5q0 34 23 56.5t57 22.5t58 -22.5t24 -56.5q0 -35 -24 -58.5t-58 -23.5zM605 -16q-34 0 -57 23.5t-23 58.5q0 34 23 56.5t57 22.5t58 -22.5t24 -56.5q0 -35 -24 -58.5t-58 -23.5zM148 -16q-34 0 -57 23.5t-23 58.5q0 34 23 56.5t57 22.5
t58 -22.5t24 -56.5q0 -35 -24 -58.5t-58 -23.5z" />
    <glyph glyph-name="endash" unicode="&#x2013;" horiz-adv-x="1167" 
d="M71 555v90h1024v-90h-1024z" />
    <glyph glyph-name="emdash" unicode="&#x2014;" horiz-adv-x="2190" 
d="M71 555v90h2048v-90h-2048z" />
    <glyph glyph-name="quotedblleft" unicode="&#x201c;" horiz-adv-x="556" 
d="M389 985h-105l156 449h74zM143 985h-106l153 449h76z" />
    <glyph glyph-name="quotedblright" unicode="&#x201d;" horiz-adv-x="557" 
d="M366 985h-76l123 449h107zM116 985h-73l125 449h104z" />
    <glyph glyph-name="quoteleft" unicode="&#x2018;" horiz-adv-x="262" 
d="M119 985h-106l153 449h76z" />
    <glyph glyph-name="quoteright" unicode="&#x2019;" horiz-adv-x="261" 
d="M93 985h-73l125 449h104z" />
    <glyph glyph-name="divide" unicode="&#xf7;" horiz-adv-x="919" 
d="M461 866q-32 0 -55 23t-23 55t23 54t55 22t53.5 -22t21.5 -54t-21.5 -55t-53.5 -23zM6 555v84h907v-84h-907zM461 174q-32 0 -55 23t-23 55t23 54t55 22t53.5 -22t21.5 -54t-21.5 -55t-53.5 -23z" />
    <glyph glyph-name="ydieresis" unicode="&#xff;" horiz-adv-x="922" 
d="M415 -209q-28 -69 -58 -120t-66 -85t-78.5 -50.5t-96.5 -16.5q-43 0 -80 14l28 84q7 -6 56 -6q123 0 194 170l95 227l-388 1016h103l309 -834l25 -78l26 72l330 840h100zM637 1188q-27 0 -49 19.5t-22 52.5q0 31 21.5 50t47.5 19q29 0 52.5 -19.5t23.5 -49.5
q0 -31 -21.5 -51.5t-52.5 -20.5zM304 1188q-28 0 -50 19.5t-22 52.5q0 31 22 50t48 19q29 0 52 -19.5t23 -49.5q0 -31 -21 -51.5t-52 -20.5z" />
    <glyph glyph-name="Ydieresis" unicode="&#x178;" horiz-adv-x="1106" 
d="M559 545v-545h-98v543l-439 891h111l334 -691q9 -19 20.5 -45.5t24.5 -60.5h4q7 19 19.5 44.5t29.5 59.5l350 693h107zM611 1535q-27 0 -49 19.5t-22 52.5q0 31 21.5 50t47.5 19q29 0 52.5 -19.5t23.5 -49.5q0 -31 -21.5 -51.5t-52.5 -20.5zM278 1535q-28 0 -50 19.5
t-22 52.5q0 31 22 50t48 19q29 0 52 -19.5t23 -49.5q0 -31 -21 -51.5t-52 -20.5z" />
    <glyph glyph-name="Euro" unicode="&#x20ac;" horiz-adv-x="947" 
d="M910 53q-131 -78 -275 -78q-89 0 -166 34.5t-137 101t-101.5 164.5t-60.5 225h-145v84h137q-2 24 -3 49.5t-1 52.5q0 70 6 135h-139v84h149q22 132 67.5 234.5t110.5 173.5t147 108t177 37q125 0 234 -53v-102q-119 71 -242 71q-72 0 -136.5 -30t-116.5 -89.5t-89.5 -147
t-56.5 -202.5h542v-84h-553q-2 -17 -3 -47.5t-1 -75.5q0 -29 1 -57.5t3 -56.5h553v-84h-542q16 -110 50.5 -192.5t83.5 -137.5t111 -83t133 -28q126 0 263 93v-99z" />
    <glyph glyph-name="guilsinglleft" unicode="&#x2039;" horiz-adv-x="447" 
d="M288 201l-278 336l278 344h113l-283 -344l281 -336h-111z" />
    <glyph glyph-name="guilsinglright" unicode="&#x203a;" horiz-adv-x="447" 
d="M161 201h-115l285 344l-283 336h113l276 -336z" />
    <glyph glyph-name="daggerdbl" unicode="&#x2021;" horiz-adv-x="680" 
d="M669 519l-292 30l30 -320h-116l30 320l-312 -30v110l292 -20l38 222l-38 222l-292 -20v110l312 -30l-30 320h116l-30 -320l292 30v-110l-272 20l-38 -222l38 -222l272 20v-110z" />
    <glyph glyph-name="periodcentered" unicode="&#xb7;" horiz-adv-x="262" 
d="M131 625q-34 0 -57 24t-23 58t23 56.5t57 22.5t58 -22.5t24 -56.5t-24 -58t-58 -24z" />
    <glyph glyph-name="quotesinglbase" unicode="&#x201a;" horiz-adv-x="261" 
d="M94 -225h-74l125 444h104z" />
    <glyph glyph-name="quotedblbase" unicode="&#x201e;" horiz-adv-x="556" 
d="M366 -229h-75l123 448h106zM117 -229h-74l125 448h104z" />
    <glyph glyph-name="perthousand" unicode="&#x2030;" horiz-adv-x="2355" 
d="M387 729q-78 0 -139.5 27t-104 75t-65.5 114.5t-23 146.5q0 88 25 156.5t70 116t108 72.5t139 25q75 0 135 -25t102.5 -72.5t65.5 -115.5t23 -155q0 -77 -23.5 -143.5t-67.5 -115.5t-106 -77.5t-139 -28.5zM395 1380q-57 0 -103 -19.5t-78.5 -57t-49.5 -91t-17 -122.5
q0 -64 16.5 -116t47.5 -88.5t76 -56.5t102 -20t102 20.5t76.5 58.5t48 90.5t16.5 117.5q0 141 -64 212.5t-173 71.5zM389 -33h-99l863 1465h96zM1994 -25q-78 0 -139 27t-104 75t-65.5 114.5t-22.5 146.5q0 88 25.5 157.5t71 116.5t108 72t137.5 25q74 0 134 -25.5
t102.5 -73.5t65.5 -116.5t23 -153.5q0 -77 -23.5 -143.5t-67.5 -115.5t-106 -77.5t-139 -28.5zM2003 627q-56 0 -102 -19.5t-78.5 -57t-50 -91.5t-17.5 -123q0 -64 16.5 -116t47.5 -88.5t75.5 -56.5t101.5 -20q58 0 103.5 20.5t76.5 58t47.5 90.5t16.5 118q0 142 -64 213.5
t-173 71.5zM1171 -25q-77 0 -138 26.5t-104.5 74.5t-66.5 115t-23 147q0 88 25.5 157.5t71 116.5t108 72t137.5 25t135 -25.5t102.5 -73t65.5 -116t23 -154.5q0 -77 -23.5 -143.5t-67.5 -115.5t-106 -77.5t-139 -28.5zM1179 627q-57 0 -103 -20.5t-78 -58t-49.5 -91.5
t-17.5 -121q0 -64 16.5 -116t47.5 -88.5t76 -56.5t102 -20q58 0 103.5 20.5t76.5 58t47.5 90.5t16.5 118q0 142 -63.5 213.5t-174.5 71.5z" />
    <glyph glyph-name="Iacute" unicode="&#xcd;" horiz-adv-x="463" 
d="M176 1434v-1434h-99v1434h99zM135 1536h-90l234 328h104z" />
    <glyph glyph-name="Icircumflex" unicode="&#xce;" horiz-adv-x="463" 
d="M176 1434v-1434h-99v1434h99zM291 1537l-157 239l-160 -239h-82l221 336h45l219 -336h-86z" />
    <glyph glyph-name="Idieresis" unicode="&#xcf;" horiz-adv-x="463" 
d="M176 1434v-1434h-99v1434h99zM296 1536q-27 0 -49 19.5t-22 52.5q0 31 21.5 50t47.5 19q29 0 52.5 -19.5t23.5 -49.5q0 -31 -21.5 -51.5t-52.5 -20.5zM-37 1536q-28 0 -50 19.5t-22 52.5q0 31 22 50t48 19q29 0 52 -19.5t23 -49.5q0 -31 -21 -51.5t-52 -20.5z" />
    <glyph glyph-name="Igrave" unicode="&#xcc;" horiz-adv-x="463" 
d="M176 1434v-1434h-99v1434h99zM148 1536l-248 328h104l234 -328h-90z" />
    <glyph glyph-name="Uacute" unicode="&#xda;" horiz-adv-x="1327" 
d="M1060 573q0 -598 -510 -598q-485 0 -485 576v883h98v-869q0 -499 406 -499q393 0 393 485v883h98v-861zM538 1535h-90l234 328h104z" />
    <glyph glyph-name="Ucircumflex" unicode="&#xdb;" horiz-adv-x="1327" 
d="M1060 573q0 -598 -510 -598q-485 0 -485 576v883h98v-869q0 -499 406 -499q393 0 393 485v883h98v-861zM757 1537l-157 239l-160 -239h-82l221 336h45l219 -336h-86z" />
    <glyph glyph-name="Ugrave" unicode="&#xd9;" horiz-adv-x="1327" 
d="M1060 573q0 -598 -510 -598q-485 0 -485 576v883h98v-869q0 -499 406 -499q393 0 393 485v883h98v-861zM616 1536l-248 328h104l234 -328h-90z" />
    <glyph glyph-name="circumflex" unicode="&#x2c6;" horiz-adv-x="539" 
d="M426 1188l-157 239l-160 -239h-82l221 336h45l219 -336h-86z" />
    <glyph glyph-name="tilde" unicode="&#x2dc;" horiz-adv-x="730" 
d="M677 1423q0 -103 -48.5 -163t-130.5 -60q-65 0 -151 76q-32 28 -62.5 41.5t-56.5 13.5q-102 0 -102 -143h-72q0 49 12.5 90t36 70t56 45t71.5 16q73 0 160 -72q35 -29 63 -44t54 -15q40 0 68 36.5t28 108.5h74z" />
    <glyph glyph-name="cedilla" unicode="&#xb8;" horiz-adv-x="415" 
d="M58 -430v74q49 -6 86 -6q160 0 160 92q0 86 -145 86q-16 0 -32 -1t-32 -3v188h72v-117q225 0 225 -147q0 -170 -254 -170q-18 0 -38 1t-42 3z" />
    <glyph glyph-name="Scaron" unicode="&#x160;" horiz-adv-x="835" 
d="M545 1567h-45l-220 336h86l158 -240l160 240h82zM331 -23q-182 9 -315 115l61 74q124 -99 270 -99q169 0 254.5 68.5t85.5 194.5q0 56 -12 97t-46 79t-95 79.5t-159 98.5q-217 126 -276 212q-58 85 -58 198q0 75 31 141.5t87.5 116t136.5 78t178 28.5q182 -9 315 -115
l-61 -74q-125 99 -267 99q-73 0 -131.5 -19.5t-100 -54.5t-63.5 -83t-22 -105t11.5 -97t45 -77.5t94.5 -78.5t160 -99q102 -58 167 -107.5t102 -96.5t51 -96t14 -106q0 -82 -28.5 -150t-85.5 -117t-143 -76.5t-201 -27.5z" />
    <glyph glyph-name="scaron" unicode="&#x161;" horiz-adv-x="716" 
d="M425 1188h-45l-220 336h86l158 -240l160 240h82zM28 75l40 81q25 -22 58 -40t68 -30.5t68.5 -19.5t59.5 -7q241 0 241 197q0 34 -13 62t-40 53.5t-69.5 49.5t-102.5 50q-75 32 -125.5 64t-82 68t-45 77t-13.5 90q0 63 26 114.5t71 88t105 56.5t129 20q130 0 261 -77
l-35 -81q-116 74 -236 74q-50 0 -91.5 -14t-71 -39t-46 -59.5t-16.5 -76.5q0 -37 7.5 -65t30 -53t64 -50t109.5 -55q81 -36 135 -68t86 -66t45.5 -73t13.5 -90q0 -61 -23.5 -112.5t-68 -89t-108.5 -58.5t-144 -21q-148 0 -287 100z" />
    <glyph glyph-name="Zcaron" unicode="&#x17d;" horiz-adv-x="1056" 
d="M649 1535h-45l-220 336h86l158 -240l160 240h82zM171 90h858v-90h-1007v31l868 1312h-799v91h952v-27z" />
    <glyph glyph-name="zcaron" unicode="&#x17e;" horiz-adv-x="880" 
d="M528 1188h-45l-220 336h86l158 -240l160 240h82zM177 84h661v-84h-811v35l680 905h-631v84h787v-25z" />
    <glyph glyph-name="brokenbar" unicode="&#xa6;" horiz-adv-x="221" 
d="M71 715v852h95v-852h-95zM71 -481v852h95v-852h-95z" />
    <glyph glyph-name="Eth" unicode="&#xd0;" horiz-adv-x="1331" 
d="M194 0v668h-149v88h149v678h359q358 0 543.5 -177.5t185.5 -519.5q0 -165 -52 -301t-149.5 -232.5t-236 -150t-312.5 -53.5h-338zM293 1343v-587h403v-88h-403v-578h225q159 0 282 42t207 123.5t128 201.5t44 276q0 610 -641 610h-245z" />
    <glyph glyph-name="eth" unicode="&#xf0;" horiz-adv-x="995" 
d="M749 956l4 5q-52 91 -106.5 164.5t-112.5 131.5l-299 -149l-35 70l276 133q-64 58 -126.5 107.5t-125.5 94.5h150q42 -29 87 -67.5t99 -87.5l301 149l35 -71l-280 -136q81 -84 143 -180t103.5 -197.5t63 -206t21.5 -206.5q0 -116 -31 -214.5t-89.5 -169.5t-142.5 -111
t-189 -40q-111 0 -196.5 38t-143 107.5t-87.5 167.5t-30 218t33.5 220t95 171.5t147.5 111.5t191 40q146 0 244 -93zM505 965q-84 0 -152 -33.5t-117 -94.5t-75.5 -145.5t-26.5 -187.5q0 -104 25 -186t72 -140t114 -88.5t152 -30.5q82 0 147.5 32t111.5 91.5t70.5 143
t24.5 186.5q0 453 -346 453z" />
    <glyph glyph-name="Yacute" unicode="&#xdd;" horiz-adv-x="1106" 
d="M559 545v-545h-98v543l-439 891h111l334 -691q9 -19 20.5 -45.5t24.5 -60.5h4q7 19 19.5 44.5t29.5 59.5l350 693h107zM407 1567h-90l234 328h104z" />
    <glyph glyph-name="yacute" unicode="&#xfd;" horiz-adv-x="928" 
d="M441 -209q-28 -69 -58 -120t-66 -85t-78.5 -50.5t-96.5 -16.5q-43 0 -80 14l28 84q7 -6 56 -6q123 0 194 170l95 227l-388 1016h103l309 -834l25 -78l26 72l330 840h100zM323 1188h-90l234 328h104z" />
    <glyph glyph-name="Thorn" unicode="&#xde;" horiz-adv-x="876" 
d="M170 338v-338h-99v1434h99v-238h247q455 0 455 -403q0 -102 -34.5 -185.5t-99 -143.5t-157 -93t-209.5 -33h-202zM170 1106v-678h204q193 0 294.5 90.5t101.5 261.5q0 326 -371 326h-229z" />
    <glyph glyph-name="thorn" unicode="&#xfe;" horiz-adv-x="966" 
d="M163 182v-653h-92v1987h92v-703q29 56 70 100t91.5 74t107.5 46t118 16q97 0 173.5 -35t130 -100t82 -157.5t28.5 -207.5q0 -126 -32.5 -231.5t-92.5 -181.5t-144.5 -118.5t-187.5 -42.5q-230 0 -344 207zM163 713v-458q97 -196 352 -196q79 0 144 35.5t111.5 100
t72 154.5t25.5 198q0 96 -23.5 173t-66.5 131.5t-104 84t-136 29.5q-128 0 -220 -63t-155 -189z" />
    <glyph glyph-name="multiply" unicode="&#xd7;" horiz-adv-x="911" 
d="M789 203l-333 336l-334 -336l-60 59l334 334l-334 336l60 59l334 -336l333 336l60 -59l-334 -336l334 -334z" />
    <glyph glyph-name="onenumerator" horiz-adv-x="542" 
d="M522 584h-471v82h195v682l-209 -70v88l295 94v-794h190v-82z" />
    <glyph glyph-name="twonumerator" horiz-adv-x="614" 
d="M571 584h-518v100l239 234q61 59 97.5 102t56 77t25.5 62.5t6 59.5q0 153 -158 153q-108 0 -221 -98v102q57 38 112 58t115 20q57 0 102 -16t76.5 -45.5t48.5 -70.5t17 -91q0 -39 -9.5 -77.5t-34 -81.5t-67 -93.5t-108.5 -114.5l-193 -186v-4h414v-90z" />
    <glyph glyph-name="threenumerator" horiz-adv-x="572" 
d="M524 811q0 -54 -19 -100t-55 -79.5t-88 -53t-118 -19.5q-107 0 -193 47v96q100 -63 195 -63q91 0 141.5 47t50.5 125q0 168 -235 168h-70v80h61q215 0 215 172q0 137 -153 137q-71 0 -172 -53v90q49 23 96.5 34t93.5 11q52 0 93.5 -15t70.5 -42.5t44.5 -65.5t15.5 -84
q0 -163 -148 -215v-4q85 -19 129.5 -77t44.5 -136z" />
    <glyph glyph-name="onehalf" unicode="&#xbd;" horiz-adv-x="1510" 
d="M358 0h-98l862 1434h96zM1470 0h-518v100l240 234q60 59 96.5 102t56 77t25.5 63t6 59q0 153 -158 153q-111 0 -221 -98v103q113 77 227 77q57 0 102 -16t76.5 -45.5t48.5 -70.5t17 -91q0 -38 -9.5 -76t-34 -81t-67 -94t-108.5 -115l-193 -187v-4h414v-90zM336 584h-86
v764l-209 -70v88l295 94v-876z" />
    <glyph glyph-name="onequarter" unicode="&#xbc;" horiz-adv-x="1437" 
d="M336 584h-86v764l-209 -70v88l295 94v-876zM356 0h-20l784 1434h96zM1284 219l-68 -219h-14v219h-393v64l385 567h90v-553h110v-78h-110zM1200 741q-17 -31 -28.5 -50t-16.5 -27l-246 -367h293v444h-2z" />
    <glyph glyph-name="threequarters" unicode="&#xbe;" horiz-adv-x="1463" 
d="M511 811q0 -54 -19 -100t-55 -79.5t-88 -53t-118 -19.5q-107 0 -193 47v96q100 -63 195 -63q91 0 141.5 47t50.5 125q0 168 -235 168h-70v80h61q215 0 215 172q0 137 -153 137q-71 0 -172 -53v90q49 23 96.5 34t93.5 11q52 0 93.5 -15t70.5 -42.5t44.5 -65.5t15.5 -84
q0 -163 -148 -215v-4q85 -19 129.5 -77t44.5 -136zM380 0h-98l862 1434h96zM1308 219l-68 -219h-14v219h-393v64l385 567h90v-553h110v-78h-110zM1224 741q-17 -31 -28.5 -50t-16.5 -27l-246 -367h293v444h-2z" />
    <glyph glyph-name="uni00AF" unicode="&#xaf;" horiz-adv-x="850" 
d="M71 1641v90h850v-90h-850z" />
    <glyph glyph-name="fournumerator" horiz-adv-x="626" 
d="M481 803v-219h-82v219h-393v63l385 568h90v-553h111v-78h-111zM397 1325q-35 -62 -45 -78l-246 -366h293v444h-2z" />
    <glyph glyph-name="fivenumerator" horiz-adv-x="574" 
d="M540 844q0 -69 -23.5 -122.5t-65 -89.5t-97.5 -54.5t-120 -18.5q-105 0 -178 43v86q48 -26 95 -37.5t85 -11.5q50 0 90.5 14.5t69 40.5t43.5 62.5t15 81.5q0 172 -230 172q-16 0 -38 -1t-43 -2.5t-37.5 -3t-22.5 -2.5v433h418v-84h-338v-263q21 2 43.5 3.5t44.5 1.5
q62 0 115 -15.5t91.5 -46.5t60.5 -77.5t22 -108.5z" />
    <glyph glyph-name="sevennumerator" horiz-adv-x="590" 
d="M231 573h-86l331 779h-458v82h555v-54z" />
    <glyph glyph-name="eightnumerator" horiz-adv-x="663" 
d="M523 801q0 66 -47 112.5t-149 81.5q-91 -31 -139 -76t-48 -114q0 -42 16.5 -71.5t43 -49t60.5 -28.5t69 -9q33 0 67 9.5t62 28.5t46 48t19 68zM495 1233q0 33 -12 59t-33 43.5t-50 27t-63 9.5t-63.5 -10t-52 -28.5t-35.5 -43.5t-13 -55q0 -62 42.5 -100t117.5 -66
q78 29 120 67t42 97zM613 809q0 -66 -26.5 -112.5t-68.5 -75.5t-93 -42.5t-100 -13.5q-45 0 -94 12t-89 39.5t-66 72.5t-26 110q0 84 49 140t134 93q-70 32 -111 80.5t-41 120.5q0 57 22.5 99t58.5 69t82 40t93 13q46 0 91 -13t80 -39.5t57 -65.5t22 -91q0 -41 -12.5 -73.5
t-34.5 -58t-52.5 -45.5t-66.5 -36q43 -16 78.5 -37.5t60.5 -48.5t39 -61t14 -76z" />
    <glyph glyph-name="dotlessi.alt" horiz-adv-x="240" 
d="M71 0v1024h92v-1024h-92z" />
    <glyph glyph-name="currency" unicode="&#xa4;" horiz-adv-x="997" 
d="M875 293l-135 135q-107 -86 -242 -86q-140 0 -241 86l-135 -135l-60 61l137 131q-84 115 -84 240q0 139 84 240l-137 133l60 61l135 -135q112 84 241 84q136 0 240 -84l137 135l60 -61l-138 -133q84 -101 84 -240q0 -132 -84 -240l138 -131zM500 1024q-63 0 -118 -24
t-95.5 -64.5t-64 -94.5t-23.5 -114t24.5 -115t65.5 -96t95.5 -65.5t113.5 -24.5q60 0 114.5 24t95.5 65.5t65 96t24 115.5q0 63 -25 117t-66 94t-95 63t-111 23z" />
    <glyph glyph-name="uni00B2" unicode="&#xb2;" horiz-adv-x="674" 
d="M571 884h-518v100l239 234q61 59 97.5 102t56 77t25.5 62.5t6 59.5q0 153 -158 153q-108 0 -221 -98v102q57 38 112 58t115 20q57 0 102 -16t76.5 -45.5t48.5 -70.5t17 -91q0 -39 -9.5 -77.5t-34 -81.5t-67 -93.5t-108.5 -114.5l-193 -186v-4h414v-90z" />
    <glyph glyph-name="uni00B3" unicode="&#xb3;" horiz-adv-x="674" 
d="M524 1111q0 -54 -19 -100t-55 -79.5t-88 -53t-118 -19.5q-107 0 -193 47v96q100 -63 195 -63q91 0 141.5 47t50.5 125q0 168 -235 168h-70v80h61q215 0 215 172q0 137 -153 137q-71 0 -172 -53v90q49 23 96.5 34t93.5 11q52 0 93.5 -15t70.5 -42.5t44.5 -65.5t15.5 -84
q0 -163 -148 -215v-4q85 -19 129.5 -77t44.5 -136z" />
    <glyph glyph-name="uni00B9" unicode="&#xb9;" horiz-adv-x="674" 
d="M522 884h-471v82h195v682l-209 -70v88l295 94v-794h190v-82z" />
    <glyph glyph-name="s_t" unicode="&#xfb06;" horiz-adv-x="1341" 
d="M625 891q-116 74 -236 74q-50 0 -91.5 -14t-71 -39t-46 -59.5t-16.5 -76.5q0 -37 7.5 -65t30 -53t64 -50t109.5 -55q81 -36 135 -68t86 -66t45.5 -73t13.5 -90q0 -61 -23.5 -112.5t-68 -89t-108.5 -58.5t-144 -21q-150 0 -292 88l45 93q25 -22 58 -40t68 -30.5
t68.5 -19.5t59.5 -7q241 0 241 197q0 34 -13 62t-40 53.5t-69.5 49.5t-102.5 50q-75 32 -125.5 64t-82 68t-45 77t-13.5 90q0 63 26 114.5t71 88t105 56.5t129 20q79 0 159 -24q-20 54 -20 104q0 64 29.5 115.5t76 87.5t103.5 55t111 19q38 0 72.5 -10t60.5 -31t41 -53.5
t15 -77.5v-210h270v-84h-270v-676q0 -106 33.5 -153.5t113.5 -47.5q57 0 96 24l27 -73q-69 -34 -135 -34q-227 0 -227 272v688h-184v84h184v187q0 31 -10.5 54t-29 38.5t-43 23t-52.5 7.5q-35 0 -71.5 -12.5t-65.5 -36.5t-47.5 -60t-18.5 -82q0 -35 12 -75t39 -86z" />
    <glyph glyph-name="c_t.001" horiz-adv-x="1440" 
 />
    <glyph glyph-name="f_t" horiz-adv-x="1213" 
d="M312 1024h516v297h92v-297h270v-84h-270v-676q0 -106 33.5 -153.5t113.5 -47.5q57 0 96 24l27 -73q-69 -34 -135 -34q-227 0 -227 272v688h-516v-940h-92v940h-184v84h184v178q0 82 22 144t60.5 103t90.5 62t112 21q65 0 145 -39l-37 -74q-38 29 -112 29
q-189 0 -189 -254v-170z" />
    <glyph glyph-name="ff" unicode="&#xfb00;" horiz-adv-x="1244" 
d="M313 1024h473v178q0 82 22 144t60.5 103t90.5 62t112 21q65 0 145 -39l-37 -74q-38 29 -112 29q-189 0 -189 -254v-170h271v-84h-271v-940h-92v940h-473v-940h-92v940h-184v84h184v178q0 82 22 144t60.5 103t90.5 62t112 21q65 0 145 -39l-37 -74q-38 29 -112 29
q-189 0 -189 -254v-170z" />
    <glyph glyph-name="ffi" unicode="&#xfb03;" horiz-adv-x="1448" 
d="M882 1024h510v-1024h-92v940h-418v-940h-92v940h-473v-940h-92v940h-184v84h184v178q0 82 22 144t60.5 103t90.5 62t112 21q65 0 145 -39l-37 -74q-38 29 -112 29q-189 0 -189 -254v-170h473v178q0 82 22 144t60.5 103t90.5 62t112 21q65 0 145 -39l-37 -74
q-38 29 -112 29q-189 0 -189 -254v-170z" />
    <glyph glyph-name="ffl" unicode="&#xfb04;" horiz-adv-x="1708" 
d="M321 1024h474v178q0 82 22 144t60.5 103t90.5 62t112 21q285 0 317 -204v-1064q0 -106 33.5 -153.5t113.5 -47.5q59 0 123 37v-86q-69 -34 -135 -34q-227 0 -227 272v1076q-29 120 -229 120q-189 0 -189 -254v-170h271v-84h-271v-940h-92v940h-474v-940h-92v940h-184v84
h184v178q0 82 22 144t60.5 103t90.5 62t112 21q65 0 145 -39l-37 -74q-38 29 -112 29q-189 0 -189 -254v-170z" />
    <glyph glyph-name="l.alt" horiz-adv-x="240" 
d="M163 1h-92v1515h92v-1515z" />
    <glyph glyph-name="a.alt" 
d="M925 243q-163 -268 -389 -268q-113 0 -203 39t-152.5 109.5t-96 168t-33.5 214.5q0 127 35.5 228t101 171t157 107t202.5 37q219 0 378 -180v155h92v-1024h-92v243zM543 965q-90 0 -163 -31.5t-125 -90.5t-80 -144.5t-28 -194.5q0 -100 27 -182t78 -140.5t123.5 -90.5
t163.5 -32q185 0 385 246v492q-200 168 -381 168z" />
    <glyph glyph-name="aacute.alt" 
d="M925 243q-163 -268 -389 -268q-113 0 -203 39t-152.5 109.5t-96 168t-33.5 214.5q0 127 35.5 228t101 171t157 107t202.5 37q219 0 378 -180v155h92v-1024h-92v243zM543 965q-90 0 -163 -31.5t-125 -90.5t-80 -144.5t-28 -194.5q0 -100 27 -182t78 -140.5t123.5 -90.5
t163.5 -32q185 0 385 246v492q-200 168 -381 168zM463 1188h-90l234 328h104z" />
    <glyph glyph-name="agrave.alt" 
d="M925 243q-163 -268 -389 -268q-113 0 -203 39t-152.5 109.5t-96 168t-33.5 214.5q0 127 35.5 228t101 171t157 107t202.5 37q219 0 378 -180v155h92v-1024h-92v243zM543 965q-90 0 -163 -31.5t-125 -90.5t-80 -144.5t-28 -194.5q0 -100 27 -182t78 -140.5t123.5 -90.5
t163.5 -32q185 0 385 246v492q-200 168 -381 168zM624 1188l-248 328h104l234 -328h-90z" />
    <glyph glyph-name="acircumflex.alt" 
d="M925 243q-163 -268 -389 -268q-113 0 -203 39t-152.5 109.5t-96 168t-33.5 214.5q0 127 35.5 228t101 171t157 107t202.5 37q219 0 378 -180v155h92v-1024h-92v243zM543 965q-90 0 -163 -31.5t-125 -90.5t-80 -144.5t-28 -194.5q0 -100 27 -182t78 -140.5t123.5 -90.5
t163.5 -32q185 0 385 246v492q-200 168 -381 168zM698 1188l-157 239l-160 -239h-82l221 336h45l219 -336h-86z" />
    <glyph glyph-name="atilde.alt" 
d="M925 243q-163 -268 -389 -268q-113 0 -203 39t-152.5 109.5t-96 168t-33.5 214.5q0 127 35.5 228t101 171t157 107t202.5 37q219 0 378 -180v155h92v-1024h-92v243zM543 965q-90 0 -163 -31.5t-125 -90.5t-80 -144.5t-28 -194.5q0 -100 27 -182t78 -140.5t123.5 -90.5
t163.5 -32q185 0 385 246v492q-200 168 -381 168zM854 1423q0 -103 -48.5 -163t-130.5 -60q-65 0 -151 76q-32 28 -62.5 41.5t-56.5 13.5q-102 0 -102 -143h-72q0 49 12.5 90t36 70t56 45t71.5 16q73 0 160 -72q35 -29 63 -44t54 -15q40 0 68 36.5t28 108.5h74z" />
    <glyph glyph-name="adieresis.alt" 
d="M925 243q-163 -268 -389 -268q-113 0 -203 39t-152.5 109.5t-96 168t-33.5 214.5q0 127 35.5 228t101 171t157 107t202.5 37q219 0 378 -180v155h92v-1024h-92v243zM543 965q-90 0 -163 -31.5t-125 -90.5t-80 -144.5t-28 -194.5q0 -100 27 -182t78 -140.5t123.5 -90.5
t163.5 -32q185 0 385 246v492q-200 168 -381 168zM707 1188q-27 0 -49 19.5t-22 52.5q0 31 21.5 50t47.5 19q29 0 52.5 -19.5t23.5 -49.5q0 -31 -21.5 -51.5t-52.5 -20.5zM374 1188q-28 0 -50 19.5t-22 52.5q0 31 22 50t48 19q29 0 52 -19.5t23 -49.5q0 -31 -21 -51.5
t-52 -20.5z" />
    <glyph glyph-name="aring.alt" horiz-adv-x="1052" 
d="M537 1188q-42 0 -79 13t-64 37t-42.5 58t-15.5 76q0 40 15 73.5t42 58t63.5 38.5t80.5 14q43 0 80 -13.5t64 -37.5t42 -58t15 -75q0 -40 -15.5 -73.5t-43 -58t-64 -38.5t-78.5 -14zM537 1489q-57 0 -92 -31.5t-35 -85.5q0 -27 9.5 -48.5t27 -36.5t40.5 -23.5t50 -8.5
q57 0 93 32.5t36 84.5q0 57 -37.5 87t-91.5 30zM914 243q-163 -268 -389 -268q-113 0 -203 39t-152.5 109.5t-96 168t-33.5 214.5q0 127 35.5 228t101 171t157 107t202.5 37q219 0 378 -180v155h92v-1024h-92v243zM532 965q-90 0 -163 -31.5t-125 -90.5t-80 -144.5
t-28 -194.5q0 -100 27 -182t78 -140.5t123.5 -90.5t163.5 -32q185 0 385 246v492q-200 168 -381 168z" />
    <glyph glyph-name="c_t" horiz-adv-x="1452" 
d="M787 997q13 -7 25.5 -14t25.5 -15l-51 -71q-110 68 -241 68q-90 0 -164 -34.5t-127.5 -96t-83 -147t-29.5 -187.5q0 -99 27 -180.5t76 -139.5t117.5 -89.5t152.5 -31.5q156 0 268 82l49 -71q-164 -95 -321 -95q-105 0 -190.5 38t-146.5 106.5t-94.5 164t-33.5 210.5
q0 121 38.5 223t106.5 176t162.5 115t206.5 41q59 0 117 -19q-9 24 -13 47.5t-4 46.5q0 64 29 116t75 89t103 57t114 20q38 0 72.5 -10.5t60.5 -31.5t41 -53.5t15 -77.5v-210h270v-84h-270v-676q0 -106 33.5 -153.5t113.5 -47.5q57 0 96 24l27 -73q-69 -34 -135 -34
q-227 0 -227 272v688h-184v84h184v187q0 31 -10.5 54.5t-28.5 38.5t-42.5 22.5t-52.5 7.5q-35 0 -71 -12t-65.5 -36t-48.5 -60t-19 -84q0 -35 11 -72t36 -72z" />
    <glyph glyph-name="Ccedilla" unicode="&#xc7;" horiz-adv-x="1193" 
d="M1114 94q-81 -59 -180 -89t-216 -30q-152 0 -275 53.5t-209.5 149.5t-133.5 229.5t-47 294.5q0 171 48 310.5t138 238.5t218 153t288 54q115 0 212.5 -33t177.5 -94l-51 -81q-70 58 -159.5 88t-196.5 30q-125 0 -230 -47.5t-181 -134t-119 -207t-43 -266.5
q0 -147 39.5 -266.5t113 -204t177 -130.5t231.5 -46q104 0 191.5 27t157.5 80zM429 -430v74q49 -6 86 -6q160 0 160 92q0 86 -145 86q-16 0 -32 -1t-32 -3v188h72v-117q225 0 225 -147q0 -170 -254 -170q-18 0 -38 1t-42 3z" />
    <glyph glyph-name="Ntilde" unicode="&#xd1;" horiz-adv-x="1235" 
d="M1089 0l-854 1159q-14 17 -24.5 35t-21.5 35l-13 20h-4q1 -13 1.5 -28.5t0.5 -34.5v-1186h-99v1434h76l848 -1149q14 -19 29 -42t32 -50h5q-2 35 -3.5 65t-1.5 55v1121h99v-1434h-70zM929 1833q0 -103 -48.5 -163t-130.5 -60q-65 0 -151 76q-32 28 -62.5 41.5t-56.5 13.5
q-102 0 -102 -143h-72q0 49 12.5 90t36 70t56 45t71.5 16q73 0 160 -72q35 -29 63 -44t54 -15q40 0 68 36.5t28 108.5h74z" />
    <glyph glyph-name="Adieresis" unicode="&#xc4;" horiz-adv-x="1227" 
d="M1087 0l-164 446h-622l-164 -446h-109l541 1434h94l535 -1434h-111zM647 1200q-11 28 -18 55t-15 54h-4q-16 -65 -33 -107l-241 -665h553zM779 1598q-27 0 -49 19.5t-22 52.5q0 31 21.5 50t47.5 19q29 0 52.5 -19.5t23.5 -49.5q0 -31 -21.5 -51.5t-52.5 -20.5zM446 1598
q-28 0 -50 19.5t-22 52.5q0 31 22 50t48 19q29 0 52 -19.5t23 -49.5q0 -31 -21 -51.5t-52 -20.5z" />
    <glyph glyph-name="Atilde" unicode="&#xc3;" horiz-adv-x="1227" 
d="M1087 0l-164 446h-622l-164 -446h-109l541 1434h94l535 -1434h-111zM647 1200q-11 28 -18 55t-15 54h-4q-16 -65 -33 -107l-241 -665h553zM925 1833q0 -103 -48.5 -163t-130.5 -60q-65 0 -151 76q-32 28 -62.5 41.5t-56.5 13.5q-102 0 -102 -143h-72q0 49 12.5 90t36 70
t56 45t71.5 16q73 0 160 -72q35 -29 63 -44t54 -15q40 0 68 36.5t28 108.5h74z" />
    <glyph glyph-name="Acircumflex" unicode="&#xc2;" horiz-adv-x="1227" 
d="M1087 0l-164 446h-622l-164 -446h-109l541 1434h94l535 -1434h-111zM647 1200q-11 28 -18 55t-15 54h-4q-16 -65 -33 -107l-241 -665h553zM770 1598l-157 239l-160 -239h-82l221 336h45l219 -336h-86z" />
    <glyph glyph-name="Aacute" unicode="&#xc1;" horiz-adv-x="1227" 
d="M1087 0l-164 446h-622l-164 -446h-109l541 1434h94l535 -1434h-111zM647 1200q-11 28 -18 55t-15 54h-4q-16 -65 -33 -107l-241 -665h553zM534 1598h-90l234 328h104z" />
    <glyph glyph-name="Agrave" unicode="&#xc0;" horiz-adv-x="1227" 
d="M1087 0l-164 446h-622l-164 -446h-109l541 1434h94l535 -1434h-111zM647 1200q-11 28 -18 55t-15 54h-4q-16 -65 -33 -107l-241 -665h553zM692 1598l-248 328h104l234 -328h-90z" />
    <glyph glyph-name="Edieresis" unicode="&#xcb;" horiz-adv-x="785" 
d="M79 0v1434h670v-91h-571v-575h530v-90h-530v-588h604v-90h-703zM558 1598q-27 0 -49 19.5t-22 52.5q0 31 21.5 50t47.5 19q29 0 52.5 -19.5t23.5 -49.5q0 -31 -21.5 -51.5t-52.5 -20.5zM225 1598q-28 0 -50 19.5t-22 52.5q0 31 22 50t48 19q29 0 52 -19.5t23 -49.5
q0 -31 -21 -51.5t-52 -20.5z" />
    <glyph glyph-name="Ecircumflex" unicode="&#xca;" horiz-adv-x="785" 
d="M79 0v1434h670v-91h-571v-575h530v-90h-530v-588h604v-90h-703zM549 1598l-157 239l-160 -239h-82l221 336h45l219 -336h-86z" />
    <glyph glyph-name="Eacute" unicode="&#xc9;" horiz-adv-x="785" 
d="M79 0v1434h670v-91h-571v-575h530v-90h-530v-588h604v-90h-703zM313 1598h-90l234 328h104z" />
    <glyph glyph-name="Egrave" unicode="&#xc8;" horiz-adv-x="785" 
d="M79 0v1434h670v-91h-571v-575h530v-90h-530v-588h604v-90h-703zM471 1598l-248 328h104l234 -328h-90z" />
    <glyph glyph-name="Odieresis" unicode="&#xd6;" horiz-adv-x="1447" 
d="M718 -25q-152 0 -275 53.5t-209.5 149.5t-133.5 229.5t-47 294.5q0 171 48 310.5t138 238.5t218 153t288 54q144 0 263.5 -52.5t205 -147t133 -227t47.5 -292.5q0 -177 -48 -318.5t-136.5 -240.5t-213.5 -152t-278 -53zM728 1368q-125 0 -230 -47.5t-181 -134t-119 -207
t-43 -266.5q0 -147 39.5 -266.5t113 -204t177 -130.5t231.5 -46q133 0 239.5 44.5t181.5 129.5t115 206.5t40 276.5q0 151 -39.5 271t-113 203t-178 127t-233.5 44zM889 1598q-27 0 -49 19.5t-22 52.5q0 31 21.5 50t47.5 19q29 0 52.5 -19.5t23.5 -49.5q0 -31 -21.5 -51.5
t-52.5 -20.5zM556 1598q-28 0 -50 19.5t-22 52.5q0 31 22 50t48 19q29 0 52 -19.5t23 -49.5q0 -31 -21 -51.5t-52 -20.5z" />
    <glyph glyph-name="Otilde" unicode="&#xd5;" horiz-adv-x="1447" 
d="M718 -25q-152 0 -275 53.5t-209.5 149.5t-133.5 229.5t-47 294.5q0 171 48 310.5t138 238.5t218 153t288 54q144 0 263.5 -52.5t205 -147t133 -227t47.5 -292.5q0 -177 -48 -318.5t-136.5 -240.5t-213.5 -152t-278 -53zM728 1368q-125 0 -230 -47.5t-181 -134t-119 -207
t-43 -266.5q0 -147 39.5 -266.5t113 -204t177 -130.5t231.5 -46q133 0 239.5 44.5t181.5 129.5t115 206.5t40 276.5q0 151 -39.5 271t-113 203t-178 127t-233.5 44zM1035 1833q0 -103 -48.5 -163t-130.5 -60q-65 0 -151 76q-32 28 -62.5 41.5t-56.5 13.5q-102 0 -102 -143
h-72q0 49 12.5 90t36 70t56 45t71.5 16q73 0 160 -72q35 -29 63 -44t54 -15q40 0 68 36.5t28 108.5h74z" />
    <glyph glyph-name="Ocircumflex" unicode="&#xd4;" horiz-adv-x="1447" 
d="M718 -25q-152 0 -275 53.5t-209.5 149.5t-133.5 229.5t-47 294.5q0 171 48 310.5t138 238.5t218 153t288 54q144 0 263.5 -52.5t205 -147t133 -227t47.5 -292.5q0 -177 -48 -318.5t-136.5 -240.5t-213.5 -152t-278 -53zM728 1368q-125 0 -230 -47.5t-181 -134t-119 -207
t-43 -266.5q0 -147 39.5 -266.5t113 -204t177 -130.5t231.5 -46q133 0 239.5 44.5t181.5 129.5t115 206.5t40 276.5q0 151 -39.5 271t-113 203t-178 127t-233.5 44zM880 1598l-157 239l-160 -239h-82l221 336h45l219 -336h-86z" />
    <glyph glyph-name="Oacute" unicode="&#xd3;" horiz-adv-x="1447" 
d="M718 -25q-152 0 -275 53.5t-209.5 149.5t-133.5 229.5t-47 294.5q0 171 48 310.5t138 238.5t218 153t288 54q144 0 263.5 -52.5t205 -147t133 -227t47.5 -292.5q0 -177 -48 -318.5t-136.5 -240.5t-213.5 -152t-278 -53zM728 1368q-125 0 -230 -47.5t-181 -134t-119 -207
t-43 -266.5q0 -147 39.5 -266.5t113 -204t177 -130.5t231.5 -46q133 0 239.5 44.5t181.5 129.5t115 206.5t40 276.5q0 151 -39.5 271t-113 203t-178 127t-233.5 44zM644 1598h-90l234 328h104z" />
    <glyph glyph-name="Ograve" unicode="&#xd2;" horiz-adv-x="1447" 
d="M718 -25q-152 0 -275 53.5t-209.5 149.5t-133.5 229.5t-47 294.5q0 171 48 310.5t138 238.5t218 153t288 54q144 0 263.5 -52.5t205 -147t133 -227t47.5 -292.5q0 -177 -48 -318.5t-136.5 -240.5t-213.5 -152t-278 -53zM728 1368q-125 0 -230 -47.5t-181 -134t-119 -207
t-43 -266.5q0 -147 39.5 -266.5t113 -204t177 -130.5t231.5 -46q133 0 239.5 44.5t181.5 129.5t115 206.5t40 276.5q0 151 -39.5 271t-113 203t-178 127t-233.5 44zM802 1598l-248 328h104l234 -328h-90z" />
    </font>
</defs>
</svg>
