<?xml version="1.0" standalone="no"?>
<!DOCTYPE svg PUBLIC "-//W3C//DTD SVG 1.1//EN" "http://www.w3.org/Graphics/SVG/1.1/DTD/svg11.dtd" >
<svg xmlns="http://www.w3.org/2000/svg" xmlns:xlink="http://www.w3.org/1999/xlink" version="1.1">
<metadata>
Created by FontForge 20170910 at Mon Jan  6 00:13:43 2014
 By Jimmy Wärting
Copyright (c) 2012 by Alvaro Thomaz Fonts. All rights reserved.
</metadata>
<defs>
<font id="HomizioNova" horiz-adv-x="1088" >
  <font-face 
    font-family="Homizio Nova"
    font-weight="400"
    font-stretch="normal"
    units-per-em="2048"
    panose-1="2 0 5 6 0 0 0 2 0 4"
    ascent="1638"
    descent="-410"
    x-height="1024"
    cap-height="1434"
    bbox="-139 -463 2284 1915"
    underline-thickness="119"
    underline-position="-237"
    unicode-range="U+000D-FB06"
  />
<missing-glyph horiz-adv-x="1151" 
d="M66 0v1399h1002v-1399h-1002zM249 183h636v1033h-636v-1033z" />
    <glyph glyph-name="AE" unicode="AE" horiz-adv-x="1587" 
d="M824 0v434h-457q-52 -105 -106.5 -217.5t-105.5 -216.5h-150l696 1434h814v-133h-557v-517h517v-126h-517v-532h588v-126h-722zM824 1301h-44q-45 -95 -89 -186.5t-87.5 -183t-87.5 -183.5t-90 -187h398v740z" />
    <glyph glyph-name="OE" unicode="OE" horiz-adv-x="1755" 
d="M1010 0q-81 -12 -153 -18t-124 -6q-164 0 -292 54t-215.5 150t-133.5 229.5t-46 292.5q0 171 48 310.5t139 238t221.5 152.5t294.5 54q69 0 135 -5.5t127 -17.5h668v-127h-556v-521h516v-126h-516v-534h588v-126h-701zM988 1309q-60 11 -121 16.5t-124 5.5
q-129 0 -232.5 -46t-176 -128t-111.5 -195.5t-39 -248.5q0 -136 36 -248.5t106 -192.5t172 -124.5t233 -44.5q63 0 126.5 6.5t130.5 19.5v1180z" />
    <glyph glyph-name="oe" unicode="oe" horiz-adv-x="1844" 
d="M1025 489q4 -88 29 -160.5t67.5 -124.5t101.5 -80.5t133 -28.5q162 0 330 133l52 -110q-208 -142 -395 -142q-136 0 -232.5 64.5t-152.5 189.5q-62 -125 -166 -189.5t-250 -64.5q-113 0 -203 39.5t-153 110t-96.5 167.5t-33.5 213q0 129 36 229.5t101.5 170t157 106
t201.5 36.5q72 0 135 -18t115.5 -51t92.5 -80.5t66 -105.5q63 122 162 188.5t233 66.5q96 0 170 -34.5t125 -99t77 -157.5t26 -209v-59h-729zM1622 608q-10 155 -80 238t-192 83q-129 0 -212 -84t-106 -237h590zM549 929q-83 0 -149.5 -29t-114 -83.5t-73 -133.5t-25.5 -179
q0 -92 24.5 -167.5t71 -129t112.5 -83t150 -29.5t149.5 28.5t110 82t68 131t23.5 175.5q0 204 -89.5 310.5t-257.5 106.5z" />
    <glyph glyph-name="fi" unicode="fi" horiz-adv-x="856" 
d="M807 1024v-1024h-127v905h-364v-905h-127v905h-177v119h177v152q0 84 22.5 147t62.5 105t93 63.5t115 21.5q34 0 75 -11.5t91 -36.5l-55 -110q-53 39 -115 39q-162 0 -162 -226v-144h491z" />
    <glyph glyph-name="fl" unicode="fl" horiz-adv-x="1117" 
d="M691 1297q-17 44 -67.5 70.5t-133.5 26.5q-163 0 -163 -226v-144h261v-119h-261v-905h-127v905h-177v119h177v152q0 84 22.5 147t62.5 105t93.5 63.5t115.5 21.5q291 0 324 -213v-1027q0 -92 28 -133t94 -41q53 0 138 49v-128q-40 -20 -77 -29.5t-72 -9.5
q-238 0 -238 281v1035z" />
    <glyph glyph-name="ae" unicode="ae" horiz-adv-x="1826" 
d="M377 277q0 -40 13.5 -73.5t39.5 -57.5t63.5 -37.5t84.5 -13.5q133 0 218 68v-1q41 32 63.5 60t28.5 49v150q-63 40 -122.5 58t-118.5 18q-57 0 -106 -16t-85.5 -45t-57.5 -69.5t-21 -89.5zM908 970q24 -28 42 -55.5t32 -55.5q123 189 369 189q97 0 171.5 -35t125 -99.5
t76.5 -157.5t26 -208v-59h-729q3 -91 27.5 -164t67 -124t102.5 -78.5t135 -27.5q161 0 300 115l61 -101q-184 -133 -379 -133q-259 0 -375 204q-95 -107 -188.5 -155.5t-202.5 -48.5q-75 0 -135 22.5t-102 62.5t-64.5 95t-22.5 119q8 83 43 145.5t88 104.5t120.5 63.5
t140.5 21.5q65 0 129 -15.5t124 -50.5q0 29 -0.5 59t-0.5 59q-7 130 -61 198.5t-157 68.5q-85 0 -161 -31.5t-145 -93.5l-81 85q153 159 395 159q161 0 229 -78zM1619 608q-10 155 -80 238t-192 83q-63 0 -116 -21t-94 -62t-69 -101t-40 -137h591z" />
    <glyph glyph-name=".notdef" horiz-adv-x="1151" 
d="M66 0v1399h1002v-1399h-1002zM249 183h636v1033h-636v-1033z" />
    <glyph glyph-name="uni000D" unicode="&#xd;" horiz-adv-x="0" 
 />
    <glyph glyph-name="nonmarkingreturn" horiz-adv-x="199" 
 />
    <glyph glyph-name="space" unicode=" " horiz-adv-x="561" 
 />
    <glyph glyph-name="exclam" unicode="!" horiz-adv-x="220" 
d="M168 388h-122v1031h131zM109 -17q-41 0 -68.5 28t-27.5 69q0 43 27.5 69.5t68.5 26.5t69.5 -26.5t28.5 -69.5q0 -41 -28.5 -69t-69.5 -28z" />
    <glyph glyph-name="quotedbl" unicode="&#x22;" horiz-adv-x="498" 
d="M420 948h-112v471h121zM191 948h-122v471h122v-471z" />
    <glyph glyph-name="numbersign" unicode="#" horiz-adv-x="1136" 
d="M1079 910h-260q-9 -40 -17 -75.5t-15.5 -70.5t-15.5 -71.5t-17 -76.5h274l-27 -114h-270q-20 -92 -42 -192t-41 -192h-118l83 384h-217q-20 -92 -42 -192t-41 -192h-118l83 384h-272l28 114h267q9 40 17 76t16 71t16 71t17 76h-282l28 114h277q20 95 42.5 197.5
t42.5 197.5h117l-85 -395h219q20 95 42 197.5t42 197.5h118l-86 -395h265zM484 910q-9 -40 -17 -75.5t-15.5 -70.5t-15.5 -71.5t-17 -76.5h217q9 40 17 76t16 71t16 71t17 76h-218z" />
    <glyph glyph-name="dollar" unicode="$" horiz-adv-x="785" 
d="M443 -201h-113v201q-84 4 -165 25.5t-150 60.5v144q82 -52 161 -80t154 -31v546q-98 56 -159.5 101.5t-96 89.5t-47 90.5t-12.5 103.5q0 65 23 124.5t65 107.5t100 82.5t127 49.5v178h113v-173q70 -2 133 -14t118 -35v-145q-116 69 -251 72v-552q88 -49 148.5 -93t97 -89
t52.5 -93.5t16 -107.5q0 -69 -22 -128t-62.5 -105t-98.5 -77.5t-131 -44.5v-208zM330 1291q-87 -20 -135.5 -80.5t-48.5 -148.5q0 -38 8 -70t28.5 -61.5t56 -59.5t91.5 -63v483zM443 126q93 22 138 79.5t45 139.5q0 39 -8 71t-28 61t-56 57.5t-91 62.5v-471z" />
    <glyph glyph-name="percent" unicode="%" horiz-adv-x="1551" 
d="M384 702q-79 0 -142 27.5t-106.5 76t-67 116t-23.5 148.5q0 89 25.5 159t71.5 118t110 73.5t142 25.5q76 0 137.5 -25.5t105 -73.5t67 -117.5t23.5 -157.5q0 -78 -24 -145.5t-69 -117.5t-108.5 -78.5t-141.5 -28.5zM392 1328q-103 0 -161.5 -68t-58.5 -192
q0 -57 14.5 -103.5t42 -79.5t67.5 -50.5t90 -17.5t90 18.5t67.5 52t42.5 81t15 105.5q0 126 -56.5 190t-152.5 64zM397 -32h-140l854 1449h136zM1139 -24q-78 0 -140.5 27t-107 75.5t-68 116.5t-23.5 150q0 90 26 160t72 118t110 73t140 25t137.5 -26t105 -74.5t67 -118
t23.5 -156.5q0 -77 -24 -144.5t-68.5 -117.5t-108 -79t-141.5 -29zM1146 603q-50 0 -90.5 -18t-69 -52t-44 -82t-15.5 -108q0 -57 14.5 -103.5t42 -79.5t67.5 -51t90 -18q51 0 91 18.5t67.5 52t42 81t14.5 105.5q0 128 -55.5 191.5t-154.5 63.5z" />
    <glyph glyph-name="ampersand" unicode="&#x26;" horiz-adv-x="1343" 
d="M1132 0l-176 173q-194 -197 -463 -197q-107 0 -190 29.5t-141 81.5t-88 123.5t-30 155.5q0 135 76 237.5t232 177.5q-69 85 -106.5 167.5t-37.5 154.5q0 71 27 133t74.5 107.5t113.5 72t144 26.5q72 0 130.5 -22t99 -61.5t62.5 -94.5t22 -120q0 -68 -18 -124
t-56.5 -104.5t-98.5 -90.5t-144 -82q35 -37 75 -78t87.5 -88t103 -100.5t121.5 -114.5q53 86 81 186.5t32 219.5h131q-4 -137 -43 -260.5t-113 -235.5q40 -40 81.5 -79.5t80 -75.5t71 -66.5t56.5 -53.5zM501 95q202 0 368 164q-156 151 -261 254.5t-169 174.5
q-125 -60 -194 -140t-69 -176q0 -60 22.5 -111t64.5 -88t102 -57.5t136 -20.5zM339 1101q0 -112 135 -267q78 35 130.5 69t85 69.5t46 75t13.5 85.5q0 43 -14.5 78t-40.5 59.5t-61 38t-75 13.5q-50 0 -90 -17t-69 -47t-44.5 -70.5t-15.5 -86.5z" />
    <glyph glyph-name="quotesingle" unicode="'" horiz-adv-x="233" 
d="M179 948h-121v471h121v-471z" />
    <glyph glyph-name="parenleft" unicode="(" horiz-adv-x="461" 
d="M317 -314q-302 355 -302 858q0 527 306 875h146q-325 -371 -325 -873q0 -472 319 -860h-144z" />
    <glyph glyph-name="parenright" unicode=")" horiz-adv-x="462" 
d="M-7 -314q318 388 318 860q0 501 -324 873h145q306 -348 306 -875q0 -506 -302 -858h-143z" />
    <glyph glyph-name="asterisk" unicode="*" horiz-adv-x="740" 
d="M446 1020q45 -61 94 -126t93 -125l-106 -72l-162 259q-40 -62 -84 -130.5t-82 -128.5l-104 72l187 251q-66 17 -138.5 35t-136.5 34l36 122l271 -96v304h114v-304q60 23 127.5 48.5t126.5 47.5l38 -122z" />
    <glyph glyph-name="plus" unicode="+" horiz-adv-x="917" 
d="M510 534v-396h-119v396h-397v119h397v397h119v-397h396v-119h-396z" />
    <glyph glyph-name="comma" unicode="," horiz-adv-x="283" 
d="M110 -239h-115l156 496h140z" />
    <glyph glyph-name="hyphen" unicode="-" horiz-adv-x="708" 
d="M64 534v125h565v-125h-565z" />
    <glyph glyph-name="period" unicode="." horiz-adv-x="278" 
d="M136 -17q-40 0 -68 28t-28 69q0 43 28 69.5t68 26.5q41 0 70 -26.5t29 -69.5q0 -41 -29 -69t-70 -28z" />
    <glyph glyph-name="slash" unicode="/" horiz-adv-x="797" 
d="M112 -229h-130l684 1648h134z" />
    <glyph glyph-name="zero" unicode="0" horiz-adv-x="986" 
d="M472 -24q-100 0 -179 45.5t-133.5 134.5t-83.5 220.5t-29 302.5q0 379 117.5 571t337.5 192q418 0 418 -727q0 -180 -30 -318t-87.5 -231.5t-141 -141.5t-189.5 -48zM494 1322q-149 0 -232.5 -157.5t-83.5 -473.5q0 -142 20 -252.5t58.5 -187t95.5 -116.5t132 -40
q72 0 128.5 40.5t95.5 118.5t59.5 191t20.5 257q0 620 -294 620z" />
    <glyph glyph-name="one" unicode="1" horiz-adv-x="524" 
d="M323 0v1305q-39 -14 -83 -29.5t-88.5 -31.5t-87 -31t-79.5 -28v129l465 161v-1475h-127z" />
    <glyph glyph-name="two" unicode="2" horiz-adv-x="913" 
d="M41 0v122l381 405q97 103 164.5 184t96.5 129q61 98 61 218q0 128 -68.5 196t-199.5 68q-176 0 -364 -166v156q171 130 375 130q93 0 165 -26.5t121.5 -75t75.5 -117t26 -151.5q0 -145 -71 -267q-35 -59 -107.5 -147.5t-187.5 -209.5l-311 -329h669v-119h-826z" />
    <glyph glyph-name="three" unicode="3" horiz-adv-x="855" 
d="M15 203q183 -108 317 -108q79 0 141.5 21t105.5 59.5t66 91.5t23 117q0 144 -103.5 218t-293.5 74h-126v119h114q179 0 269 72t90 209q0 116 -64.5 181t-191.5 65q-125 0 -292 -106v142q174 84 305 84q86 0 155.5 -25t118 -70t75 -108t26.5 -140q0 -260 -222 -353
q61 -16 111.5 -47.5t85.5 -76.5t54.5 -102t19.5 -123q0 -95 -34.5 -172.5t-97 -133t-148.5 -85.5t-189 -30q-161 0 -315 81v146z" />
    <glyph glyph-name="four" unicode="4" horiz-adv-x="982" 
d="M757 391v-391h-127v391h-636v98l645 930h118v-910h184v-118h-184zM630 509v689l-477 -689h477z" />
    <glyph glyph-name="five" unicode="5" horiz-adv-x="823" 
d="M38 182q156 -87 283 -87q80 0 143.5 23t107.5 65.5t67 102t23 132.5q0 317 -364 317q-152 0 -223 -53v737h660v-120h-533v-450q88 6 128 6q114 0 200.5 -29t145 -83.5t88 -134t29.5 -179.5q0 -101 -31.5 -184t-92.5 -143t-150.5 -93t-205.5 -33q-157 0 -275 59v147z" />
    <glyph glyph-name="six" unicode="6" horiz-adv-x="945" 
d="M818 1264q-119 58 -222 58q-92 0 -166.5 -43.5t-128.5 -122.5t-87 -190t-40 -245q110 181 328 181q89 0 162 -34.5t124.5 -94.5t80 -141.5t28.5 -174.5q0 -104 -32 -192.5t-89 -152.5t-136 -100t-174 -36q-100 0 -178.5 42t-133 124t-83 203.5t-28.5 279.5
q0 185 37 335.5t108 257.5t174 165.5t236 58.5q57 0 112 -10t108 -30v-138zM482 782q-65 0 -119.5 -26.5t-94.5 -70.5t-62.5 -100t-22.5 -114q0 -75 20.5 -143.5t59 -120t92 -82t119.5 -30.5q63 0 116 26t92 72t61 109t22 137q0 76 -19.5 139.5t-56 108.5t-89 70t-118.5 25z
" />
    <glyph glyph-name="seven" unicode="7" horiz-adv-x="888" 
d="M309 0h-138l535 1299h-708v120h870v-49z" />
    <glyph glyph-name="eight" unicode="8" horiz-adv-x="951" 
d="M43 345q0 259 288 394q-121 65 -181 151t-60 198q0 75 29 140t81.5 112.5t125 74.5t159.5 27q80 0 146.5 -25t114 -69t73.5 -105t26 -133q0 -235 -254 -365q299 -123 299 -387q0 -84 -30 -154t-87.5 -120.5t-141.5 -79t-193 -28.5q-88 0 -161 27t-125 75.5t-80.5 116.5
t-28.5 150zM760 346q0 119 -75 196t-229 130q-76 -31 -129.5 -64t-87.5 -72t-50 -85t-16 -103q0 -55 21 -101.5t59.5 -80t92.5 -52.5t121 -19q69 0 123.5 19.5t92 53t57.5 79.5t20 99zM221 1101q0 -190 241 -295q252 103 252 293q0 52 -18 93.5t-50 70.5t-76.5 44t-97.5 15
q-52 0 -98 -16.5t-80 -46t-53.5 -70t-19.5 -88.5z" />
    <glyph glyph-name="nine" unicode="9" horiz-adv-x="946" 
d="M103 158q135 -63 222 -63q198 0 306 150t121 447q-104 -167 -322 -167q-89 0 -163 33t-126.5 91.5t-81.5 140t-29 177.5q0 106 33 193.5t91 150t138 97t174 34.5q96 0 173.5 -40.5t132 -121t84 -201.5t29.5 -281q0 -197 -36.5 -350t-107.5 -258t-176 -159.5t-242 -54.5
q-110 0 -220 41v141zM453 1322q-63 0 -116.5 -25.5t-92.5 -70.5t-60.5 -106.5t-21.5 -133.5q0 -80 21 -143t59 -107.5t91 -68t118 -23.5q60 0 113 24t92.5 64.5t62.5 94t23 112.5q0 84 -21.5 154.5t-59.5 121t-91 79t-117 28.5z" />
    <glyph glyph-name="colon" unicode=":" horiz-adv-x="253" 
d="M125 848q-41 0 -69 28.5t-28 69.5t28 68t69 27t69.5 -27t28.5 -68t-28.5 -69.5t-69.5 -28.5zM125 -17q-41 0 -69 28t-28 69q0 43 28 69.5t69 26.5t69.5 -26.5t28.5 -69.5q0 -41 -28.5 -69t-69.5 -28z" />
    <glyph glyph-name="semicolon" unicode=";" horiz-adv-x="294" 
d="M196 848q-43 0 -69.5 28.5t-26.5 69.5t26.5 68t69.5 27q41 0 69 -27t28 -68t-28 -69.5t-69 -28.5zM103 -239h-115l156 496h141z" />
    <glyph glyph-name="less" unicode="&#x3c;" horiz-adv-x="910" 
d="M-10 566v39l840 472v-134l-634 -355q157 -78 317.5 -156.5t316.5 -155.5v-136z" />
    <glyph glyph-name="equal" unicode="=" horiz-adv-x="1001" 
d="M68 722v119h911v-119h-911zM68 348v120h911v-120h-911z" />
    <glyph glyph-name="greater" unicode="&#x3e;" horiz-adv-x="909" 
d="M62 140v136l634 312q-157 88 -317 177.5t-317 177.5v134l840 -472v-39z" />
    <glyph glyph-name="question" unicode="?" horiz-adv-x="754" 
d="M303 383q-6 15 -11 34t-9 40.5t-6.5 43.5t-2.5 42q0 47 13 86.5t36 74.5t54 67t68 64q30 26 58 55t50.5 62.5t36 72.5t13.5 85q0 48 -16.5 86.5t-46 65.5t-71 41t-90.5 14q-86 0 -161 -33t-122 -94l-107 61q117 185 391 191q75 0 140 -21.5t112.5 -63t74.5 -101.5
t27 -137q0 -58 -16 -105t-41.5 -87.5t-58 -75t-66.5 -67.5q-50 -48 -81 -79.5t-49 -57t-24.5 -49t-6.5 -54.5q0 -42 9.5 -85t20.5 -76h-118zM350 -17q-40 0 -67.5 28t-27.5 69q0 43 27.5 69.5t67.5 26.5q42 0 70.5 -26.5t28.5 -69.5q0 -20 -7.5 -38t-21 -31t-31.5 -20.5
t-39 -7.5z" />
    <glyph glyph-name="at" unicode="@" horiz-adv-x="1701" 
d="M1247 181q-200 0 -240 184q-93 -184 -275 -184q-72 0 -129.5 26.5t-98 75.5t-62 118t-21.5 154q0 111 30 208t85 168.5t132 112.5t171 41q63 0 113.5 -26.5t81.5 -64.5l4 40t4 37h123l-51 -583q0 -188 128 -188q55 0 102 31t81 85.5t53 130t19 164.5q0 139 -43.5 251.5
t-126 192.5t-202 123.5t-271.5 43.5q-150 0 -273.5 -55t-212 -151t-137.5 -225.5t-49 -278.5q0 -153 46 -277t132.5 -212.5t209.5 -136.5t277 -48q237 0 414 90l72 -89q-261 -120 -496 -120q-178 0 -323 58t-248 162.5t-159 250.5t-56 322q0 353 232 591q233 239 581 239
q172 0 313 -54.5t241.5 -151t155 -228.5t54.5 -287q0 -117 -29 -216t-80 -171t-121 -112.5t-151 -40.5zM835 966q-65 0 -117.5 -29t-89 -82t-56.5 -127t-20 -165q0 -122 50 -192.5t140 -70.5q62 0 111 34.5t83.5 95.5t53 144.5t18.5 181.5q0 105 -46 157.5t-127 52.5z" />
    <glyph glyph-name="A" unicode="A" horiz-adv-x="1227" 
d="M1052 0l-159 434h-578q-39 -106 -80.5 -217.5t-79.5 -216.5h-148l541 1434h119l535 -1434h-150zM619 1180l1 -1q-5 12 -8.5 23.5t-7.5 24.5q-5 -14 -9 -25t-7 -20q-59 -159 -113 -310.5t-112 -310.5h482z" />
    <glyph glyph-name="B" unicode="B" horiz-adv-x="947" 
d="M65 0v1434h386q86 0 156 -24.5t119.5 -69.5t76.5 -108t27 -140q0 -114 -52 -199t-149 -133q62 -15 112 -45.5t84.5 -74.5t53 -100t18.5 -122q0 -92 -31 -168.5t-88 -132t-138 -86.5t-181 -31h-394zM200 1307v-501h175q70 0 128.5 18.5t100 53.5t64.5 84.5t23 112.5
q0 232 -278 232h-213zM200 679v-553h240q158 0 238.5 73t80.5 211q0 269 -373 269h-186z" />
    <glyph glyph-name="C" unicode="C" horiz-adv-x="1193" 
d="M1117 106q-176 -130 -410 -130q-152 0 -275.5 53t-210.5 149t-134 229.5t-47 294.5q0 171 48 310.5t138 238t218.5 152.5t288.5 54q116 0 217 -36t189 -102l-71 -113q-75 61 -162.5 93t-189.5 32q-117 0 -215.5 -45t-170 -126.5t-112 -195t-40.5 -251.5
q0 -139 37.5 -251.5t106 -192t166 -123t217.5 -43.5q197 0 345 113z" />
    <glyph glyph-name="D" unicode="D" horiz-adv-x="1220" 
d="M67 0v1434h369q178 0 314 -45t228 -133t139 -218.5t47 -301.5q0 -162 -51 -297t-147.5 -232.5t-235.5 -152t-315 -54.5h-348zM202 1307v-1181h200q150 0 266.5 39.5t195.5 117t120 190.5t41 260q0 574 -604 574h-219z" />
    <glyph glyph-name="E" unicode="E" horiz-adv-x="785" 
d="M63 0v1434h691v-127h-556v-521h516v-126h-516v-534h588v-126h-723z" />
    <glyph glyph-name="F" unicode="F" horiz-adv-x="748" 
d="M197 1307v-531h516v-126h-516v-650h-135v1434h691v-127h-556z" />
    <glyph glyph-name="G" unicode="G" horiz-adv-x="1223" 
d="M1159 141q-60 -47 -116.5 -78.5t-111.5 -51t-110.5 -27.5t-113.5 -8q-152 0 -275.5 53t-210.5 149t-134 229.5t-47 294.5q0 171 48 310.5t138 238t218.5 152.5t288.5 54q116 0 217 -36t189 -102l-70 -111q-91 63 -179.5 92.5t-171.5 29.5q-108 0 -205.5 -43.5t-172 -124
t-118 -194.5t-43.5 -255q0 -139 37 -251.5t106 -192t166 -123t217 -43.5q189 0 319 94v409h-329v127h464v-592z" />
    <glyph glyph-name="H" unicode="H" horiz-adv-x="1175" 
d="M959 0v669h-759v-669h-136v1434h136v-638h759v638h135v-1434h-135z" />
    <glyph glyph-name="I" unicode="I" horiz-adv-x="259" 
d="M192 1434v-1434h-135v1434h135z" />
    <glyph glyph-name="J" unicode="J" horiz-adv-x="549" 
d="M489 299q0 -525 -370 -525q-29 0 -64.5 5.5t-77.5 17.5l51 124q52 -19 93 -19q124 0 178.5 96.5t54.5 302.5v1133h135v-1135z" />
    <glyph glyph-name="K" unicode="K" horiz-adv-x="997" 
d="M790 0l-593 666v-666h-135v1434h135v-626q67 75 138.5 154.5t144 159.5t143.5 159t139 153h178l-629 -696q81 -89 165 -182t169 -187t169 -187t164 -182h-188z" />
    <glyph glyph-name="L" unicode="L" horiz-adv-x="750" 
d="M60 0v1434h135v-1308h560v-126h-695z" />
    <glyph glyph-name="M" unicode="M" horiz-adv-x="1490" 
d="M1274 0v1112q-127 -278 -254.5 -556.5t-253.5 -555.5h-56l-517 1130v-1130h-128v1434h120l527 -1135q7 -16 13 -34.5t15 -38.5q4 11 11 31t18 48l518 1129h118v-1434h-131z" />
    <glyph glyph-name="N" unicode="N" horiz-adv-x="1235" 
d="M1058 0l-837 1135v-1q-6 7 -12 16.5t-12 18.5v-1169h-135v1434h103l831 -1126q5 -8 11.5 -16.5t13.5 -19.5q-1 15 -1 27.5v24.5v1110h135v-1434h-97z" />
    <glyph glyph-name="O" unicode="O" horiz-adv-x="1447" 
d="M708 -24q-152 0 -275 53t-210 149t-134 229.5t-47 294.5q0 171 48 310.5t138 238t218.5 152.5t288.5 54q144 0 264 -52.5t205.5 -147t133 -227t47.5 -292.5q0 -176 -48 -317t-136.5 -240t-213.5 -152t-279 -53zM718 1331q-117 0 -215.5 -45t-170 -126.5t-112 -195
t-40.5 -251.5q0 -139 37 -251.5t106 -192t166 -123t217 -43.5q125 0 225.5 42.5t170.5 122t107.5 194.5t37.5 261q0 142 -37 255t-106 191.5t-167 120t-219 41.5z" />
    <glyph glyph-name="P" unicode="P" horiz-adv-x="884" 
d="M194 559v-559h-135v1434h356q229 0 345.5 -103.5t116.5 -307.5q0 -100 -33.5 -185t-97.5 -147t-157.5 -97t-213.5 -35h-181zM194 1307v-620h179q182 0 274 83.5t92 241.5q0 295 -341 295h-204z" />
    <glyph glyph-name="Q" unicode="Q" horiz-adv-x="1423" 
d="M708 -24q-152 0 -275 53t-210 149t-134 229.5t-47 294.5q0 171 48 310.5t138 238t218.5 152.5t288.5 54q144 0 264 -52.5t205.5 -147t133 -227t47.5 -292.5q0 -214 -69 -373t-193 -257q43 -33 91 -69.5t89 -68.5l-80 -85l-204 158q-134 -67 -311 -67zM808 207l79 85
l130 -101q114 75 172 207.5t58 324.5q0 142 -37 255t-106 191.5t-167 120t-219 41.5q-117 0 -215.5 -45t-170 -126.5t-112 -195t-40.5 -251.5q0 -139 37 -251.5t106 -192t166 -123t217 -43.5q54 0 103.5 8t93.5 22z" />
    <glyph glyph-name="R" unicode="R" horiz-adv-x="968" 
d="M781 0l-351 622h-236v-622h-136v1434h407q96 0 173 -28t131 -78t82.5 -120.5t28.5 -155.5q0 -77 -22 -141.5t-63 -115.5t-100.5 -86.5t-135.5 -53.5q45 -79 92.5 -162t95.5 -166.5t95.5 -166t91.5 -160.5h-153zM194 1307v-559h220q75 0 135.5 20t103 58t66 92.5
t23.5 123.5q0 126 -78 195.5t-229 69.5h-241z" />
    <glyph glyph-name="S" unicode="S" horiz-adv-x="851" 
d="M347 -22q-181 7 -333 128l84 102q131 -104 266 -104q155 0 233 61.5t78 175.5q0 50 -12.5 87.5t-45 73.5t-89.5 75t-147 91q-106 62 -176 115.5t-99 96.5q-59 87 -59 204q0 77 31.5 145t89 118.5t139 80t180.5 29.5q183 -7 334 -128l-84 -102q-129 104 -262 104
q-67 0 -120.5 -17.5t-91 -49t-57.5 -75t-20 -94.5q0 -50 12 -87.5t44 -72.5t89.5 -73.5t147.5 -91.5q99 -58 163.5 -108t102.5 -98t53 -98t15 -108q0 -84 -29 -154t-86.5 -120t-145 -78t-204.5 -28h-1z" />
    <glyph glyph-name="T" unicode="T" horiz-adv-x="946" 
d="M534 1307v-1307h-135v1307h-402v127h939v-127h-402z" />
    <glyph glyph-name="U" unicode="U" horiz-adv-x="1125" 
d="M1058 577q0 -601 -515 -601q-492 0 -492 580v878h135v-865q0 -466 375 -466q363 0 363 453v878h134v-857z" />
    <glyph glyph-name="V" unicode="V" horiz-adv-x="1205" 
d="M629 0h-99l-525 1434h150l409 -1136q5 -17 10 -32.5t10 -32.5q5 16 10.5 32t11.5 35l434 1134h145z" />
    <glyph glyph-name="W" unicode="W" horiz-adv-x="1820" 
d="M1345 0h-109l-314 1063q-4 11 -7.5 22t-4.5 20q-3 -9 -5.5 -19t-5.5 -21q-82 -261 -167.5 -533t-167.5 -532h-109l-426 1434h149l322 -1132v1q4 -15 7 -28t7 -26q4 13 8 26.5t9 27.5q42 135 86 278t88 288t88 287.5t86 277.5h78l320 -1132q4 -15 7 -28t8 -27
q81 295 164 593.5t164 593.5h145z" />
    <glyph glyph-name="X" unicode="X" horiz-adv-x="1126" 
d="M923 0l-327 542q-11 17 -20 34l-18 34q-9 -18 -19.5 -35t-21.5 -34v1q-82 -134 -166 -271t-166 -271h-162l454 724q-51 85 -105 174.5t-108.5 180t-108.5 180t-105 175.5h161l318 -534q9 -16 17.5 -32t18.5 -33l18 32l18 32l317 535h157l-430 -709q53 -87 108.5 -179
t111.5 -184t111.5 -183.5t108.5 -178.5h-162z" />
    <glyph glyph-name="Y" unicode="Y" horiz-adv-x="1042" 
d="M570 545v-545h-134v543q-53 108 -108.5 220t-111 225.5t-111 225.5t-108.5 220h152l330 -683q6 -13 13.5 -29.5t15.5 -35.5q44 88 91.5 182t96 190t97 191t93.5 185h147z" />
    <glyph glyph-name="Z" unicode="Z" horiz-adv-x="1064" 
d="M209 126h818v-126h-1019v55l828 1252h-761v127h965v-52z" />
    <glyph glyph-name="bracketleft" unicode="[" horiz-adv-x="390" 
d="M53 -314v1733h344v-120h-217v-1493h217v-120h-344z" />
    <glyph glyph-name="backslash" unicode="\" horiz-adv-x="797" 
d="M670 -229l-688 1648h135l683 -1648h-130z" />
    <glyph glyph-name="bracketright" unicode="]" horiz-adv-x="393" 
d="M-14 -314v120h216v1493h-216v120h344v-1733h-344z" />
    <glyph glyph-name="asciicircum" unicode="^" horiz-adv-x="861" 
d="M708 676l-285 569q-71 -141 -144.5 -285t-142.5 -284h-136l391 766h63l390 -766h-136z" />
    <glyph glyph-name="underscore" unicode="_" horiz-adv-x="993" 
d="M58 -258v125h857v-125h-857z" />
    <glyph glyph-name="grave" unicode="`" horiz-adv-x="359" 
d="M241 1143l-268 355h149l253 -355h-134z" />
    <glyph glyph-name="a" unicode="a" horiz-adv-x="875" 
d="M468 1048q165 0 251.5 -98t86.5 -290v-660h-127v112q-26 -26 -63.5 -50.5t-80 -43.5t-88.5 -30.5t-90 -11.5q-75 0 -134.5 22.5t-101.5 62.5t-64.5 94.5t-22.5 117.5q2 101 45 166.5t109.5 103.5t149 53t164.5 15q49 0 94 -4t83 -10q0 160 -51 246t-169 86
q-166 0 -306 -125l-80 85q153 159 395 159zM166 277q0 -40 13.5 -73.5t39.5 -57.5t63.5 -37.5t84.5 -13.5q133 0 218 68v-1q40 32 63 60t29 49v212q-35 7 -76.5 11t-86.5 4q-62 0 -124 -10t-111.5 -35t-81 -67.5t-31.5 -108.5z" />
    <glyph glyph-name="b" unicode="b" horiz-adv-x="979" 
d="M476 -24q-203 0 -312 156v-132h-127v1498h127v-625q20 27 50.5 57t71.5 56t91.5 43t110.5 17q96 0 178.5 -41.5t143.5 -113.5t96 -170t35 -212q0 -127 -34.5 -226t-96 -167.5t-147 -104t-187.5 -35.5zM164 283q29 -38 61 -72t70 -59.5t84.5 -41t104.5 -15.5
q72 0 131.5 27t103 79.5t67.5 129.5t24 176q0 87 -28.5 163t-76.5 132.5t-110 89.5t-129 35q-50 -4 -90.5 -18.5t-76 -39t-68 -59.5t-67.5 -80v-447z" />
    <glyph glyph-name="c" unicode="c" horiz-adv-x="882" 
d="M825 74q-64 -47 -139.5 -72.5t-161.5 -25.5q-113 0 -203 39t-153 109t-96.5 167.5t-33.5 214.5q0 127 35.5 228t101 170.5t157 106.5t203.5 37q165 0 294 -94l-70 -100q-99 75 -228 75q-83 0 -149.5 -29t-114 -83.5t-73 -133.5t-25.5 -179q0 -92 24.5 -167.5t71 -129
t113 -83t149.5 -29.5q134 0 236 84z" />
    <glyph glyph-name="d" unicode="d" horiz-adv-x="979" 
d="M775 0v132q-111 -156 -312 -156q-102 0 -187.5 35.5t-147 104t-96 167.5t-34.5 226q0 114 35 212t95.5 170t143.5 113.5t179 41.5q66 0 118 -17t92 -42.5t68 -56t46 -57.5v625h127v-1498h-127zM775 730q-35 45 -68 80t-68 59.5t-75.5 39t-90.5 18.5q-67 -2 -129 -35
t-110 -89.5t-76.5 -132.5t-28.5 -163q0 -99 24 -176t67.5 -129.5t103 -79.5t131.5 -27q58 0 104 15.5t84.5 41t70.5 59.5t61 72v447z" />
    <glyph glyph-name="e" unicode="e" horiz-adv-x="951" 
d="M169 489q3 -91 27.5 -164t67 -124t102.5 -78.5t135 -27.5q161 0 300 115l61 -101q-185 -133 -380 -133q-99 0 -181 36.5t-140.5 105.5t-90.5 170t-32 230q0 110 33.5 206.5t94.5 168.5t146 113.5t187 41.5q97 0 171.5 -35t125 -99.5t76.5 -157.5t26 -208v-59h-729z
M766 608q-9 155 -79 238t-192 83q-126 0 -210.5 -83t-109.5 -238h591z" />
    <glyph glyph-name="f" unicode="f" horiz-adv-x="635" 
d="M583 1355q-53 39 -115 39q-163 0 -163 -226v-144h261v-119h-261v-905h-127v905h-177v119h177v152q0 84 22.5 147t62.5 105t93.5 63.5t115.5 21.5q33 0 74.5 -11.5t90.5 -36.5z" />
    <glyph glyph-name="g" unicode="g" horiz-adv-x="996" 
d="M924 92q0 -145 -31 -249.5t-94.5 -172.5t-161 -100.5t-230.5 -32.5q-148 0 -325 88l86 103q106 -72 240 -72q389 0 389 412v66q-122 -158 -339 -158q-95 0 -174.5 35t-136.5 101.5t-89 163t-32 219.5q0 121 33.5 222.5t95.5 175t148.5 114.5t193.5 41q96 0 171 -35
t129 -102v113h127v-932zM797 750q-133 179 -298 179q-77 0 -140 -31t-108 -87.5t-69.5 -135t-24.5 -173.5q0 -96 22 -171.5t63 -128t98.5 -80t128.5 -27.5q106 0 187 49.5t141 146.5v459z" />
    <glyph glyph-name="h" unicode="h" horiz-adv-x="880" 
d="M728 0v610q0 166 -59.5 242.5t-185.5 76.5q-170 0 -298 -222v-707h-127v1498h127v-608q121 158 323 158q172 0 259.5 -106.5t87.5 -311.5v-630h-127z" />
    <glyph glyph-name="i" unicode="i" horiz-adv-x="204" 
d="M98 1234q-37 0 -64.5 26t-27.5 68q0 20 8 37t20.5 29t29 18.5t34.5 6.5q38 0 66 -24.5t28 -66.5q0 -20 -7.5 -37t-20 -29.5t-30 -20t-36.5 -7.5zM36 0v1024h127v-1024h-127z" />
    <glyph glyph-name="j" unicode="j" horiz-adv-x="580" 
d="M448 1234q-37 0 -64.5 26t-27.5 68q0 20 8 37t20.5 29t29 18.5t34.5 6.5q38 0 66.5 -24.5t28.5 -66.5q0 -20 -7.5 -37t-20.5 -29.5t-30.5 -20t-36.5 -7.5zM513 47q0 -510 -368 -510q-27 0 -56 6.5t-55.5 16.5t-47.5 20.5t-33 19.5l41 110q47 -26 86.5 -40t74.5 -14
q231 0 231 375v993h127v-977z" />
    <glyph glyph-name="k" unicode="k" horiz-adv-x="792" 
d="M633 0l-449 463v-463h-127v1498h127v-917q106 110 212.5 222t212.5 221h167l-486 -497l129 -129t134.5 -135t134 -135t127.5 -128h-182z" />
    <glyph glyph-name="l" unicode="l" horiz-adv-x="241" 
d="M176 0h-127v1498h127v-1498z" />
    <glyph glyph-name="m" unicode="m" horiz-adv-x="1515" 
d="M809 0h-127v619q0 309 -229 310q-84 -9 -149.5 -54.5t-113.5 -131.5v-743h-127v1024h127v-123q61 75 131.5 111t154.5 36q35 0 73 -11.5t74.5 -32.5t69.5 -51.5t58 -69.5q63 85 136.5 125t161.5 40q57 0 116 -23.5t107 -72.5t79 -123t31 -176v-653h-127v619
q0 309 -229 310q-69 -8 -129.5 -44t-105.5 -98q9 -31 13.5 -63.5t4.5 -70.5v-653z" />
    <glyph glyph-name="n" unicode="n" horiz-adv-x="924" 
d="M803 0h-127v619q0 309 -229 310q-84 -9 -149.5 -54.5t-113.5 -131.5v-743h-127v1024h127v-123q61 75 132 111t154 36q56 0 115 -23.5t107.5 -72.5t79.5 -123t31 -176v-653z" />
    <glyph glyph-name="o" unicode="o" horiz-adv-x="1072" 
d="M526 -24q-113 0 -203 39t-153 109t-96.5 167.5t-33.5 214.5q0 127 35.5 228t101 170.5t157 106.5t202.5 37q109 0 197 -37t150 -106.5t95 -169t33 -225.5q0 -118 -33.5 -216t-96.5 -168.5t-153 -110t-202 -39.5zM533 929q-83 0 -149.5 -29t-114 -83.5t-73 -133.5
t-25.5 -179q0 -92 24.5 -167.5t71 -129t112.5 -83t150 -29.5t149.5 28.5t110 82t68 131t23.5 175.5q0 204 -89.5 310.5t-257.5 106.5z" />
    <glyph glyph-name="p" unicode="p" horiz-adv-x="979" 
d="M164 892q110 157 312 157q102 0 187.5 -35.5t147 -104t96 -167.5t34.5 -226q0 -114 -35 -212t-96 -170t-143.5 -113.5t-178.5 -41.5q-66 0 -118.5 17t-92 42.5t-67.5 56t-46 57.5v-607h-127v1480h127v-133zM164 294q35 -45 68 -79.5t68 -59t75.5 -39t90.5 -18.5
q67 2 129 35t110 89.5t76.5 132.5t28.5 163q0 99 -24 175.5t-67.5 129t-103 80t-131.5 27.5q-58 0 -104.5 -15.5t-84.5 -41t-70 -60t-61 -71.5v-448z" />
    <glyph glyph-name="q" unicode="q" horiz-adv-x="980" 
d="M502 1049q200 0 312 -157v133h127v-1480h-127v607q-20 -27 -51 -57t-71.5 -56t-91 -43t-110.5 -17q-96 0 -179 41.5t-143.5 113.5t-95.5 170t-35 212q0 127 34.5 226t96 167.5t147 104t187.5 35.5zM814 742q-29 37 -61 71.5t-70.5 60t-84.5 41t-104 15.5
q-72 0 -131.5 -27.5t-103 -80t-67.5 -129t-24 -175.5q0 -87 28.5 -163t76.5 -132.5t110.5 -89.5t129.5 -35q50 4 90.5 18.5t75.5 39t67.5 59t67.5 79.5v448z" />
    <glyph glyph-name="r" unicode="r" horiz-adv-x="555" 
d="M550 883q-34 23 -63 32.5t-59 9.5q-157 0 -248 -181v-744h-125v1024h125v-115q57 69 120.5 101.5t140.5 32.5q15 0 35 -3.5t41 -9t40.5 -11.5t33.5 -11z" />
    <glyph glyph-name="s" unicode="s" horiz-adv-x="738" 
d="M85 200q27 -24 60.5 -43t68 -33t66.5 -21.5t56 -7.5q213 0 213 171q0 57 -52.5 100.5t-152.5 88.5q-71 31 -121.5 64.5t-83 70t-48 78.5t-15.5 92q0 65 26.5 118.5t72.5 91t107.5 58t131.5 20.5q129 0 275 -86l-48 -114q-128 81 -237 81q-44 0 -80 -12t-62 -34
t-40.5 -51.5t-14.5 -65.5q0 -32 7 -56.5t27.5 -46.5t58 -44.5t99.5 -49.5q81 -36 135 -68.5t86.5 -67.5t46 -75t13.5 -92q0 -63 -24 -116.5t-69.5 -92t-110.5 -60t-147 -21.5q-75 0 -149.5 27.5t-151.5 82.5z" />
    <glyph glyph-name="t" unicode="t" horiz-adv-x="570" 
d="M566 23q-43 -22 -81 -32t-73 -10q-237 0 -237 281v643h-177v119h177v286h127v-286h260v-119h-260v-632q0 -92 27.5 -133t94.5 -41q49 0 103 33z" />
    <glyph glyph-name="u" unicode="u" horiz-adv-x="923" 
d="M721 0v138q-63 -77 -136 -120t-150 -43q-192 0 -288.5 110.5t-96.5 349.5v589h128v-567q0 -96 15 -164.5t46.5 -112.5t80 -64.5t114.5 -20.5q86 0 157.5 50t129.5 148v731h127v-1024h-127z" />
    <glyph glyph-name="v" unicode="v" horiz-adv-x="938" 
d="M509 0h-108l-395 1024h140l299 -797q6 -17 11 -38q4 10 7 18.5t7 16.5v-1l308 801h138z" />
    <glyph glyph-name="w" unicode="w" horiz-adv-x="1402" 
d="M1029 0h-112l-219 756q-1 1 -1 2t-1 2v-2q-60 -187 -123 -379t-123 -379h-111l-309 1024h139l233 -800q0 -2 0.5 -3t0.5 -2l2 4l254 801h89l228 -802q0 1 0.5 1t0.5 1q27 93 57.5 195t61 206t61 205.5t57.5 193.5h132z" />
    <glyph glyph-name="x" unicode="x" horiz-adv-x="904" 
d="M516 501q80 -120 167.5 -250.5t167.5 -250.5h-160l-251 401l-21 -31q-6 -11 -16 -26l-223 -344h-154l341 500q-39 62 -81.5 128.5t-86 134t-86 133.5t-81.5 128h150l225 -362q12 -20 20.5 -35t16.5 -26l34 56l235 367h151z" />
    <glyph glyph-name="y" unicode="y" horiz-adv-x="950" 
d="M452 -190q-28 -69 -59 -120.5t-67.5 -85t-80.5 -50.5t-99 -17q-24 0 -49 5.5t-52 14.5l41 126q25 -19 64 -19q104 0 169 152l89 210q-94 244 -190.5 499t-190.5 499h140l301 -813l8 -25q2 4 3 8t3 8l322 822h139z" />
    <glyph glyph-name="z" unicode="z" horiz-adv-x="895" 
d="M219 119h617v-119h-819v60l635 845h-588v119h796v-50z" />
    <glyph glyph-name="braceleft" unicode="{" horiz-adv-x="449" 
d="M427 -315q-70 3 -123 21t-89 54t-54 91.5t-18 134.5v285q0 212 -151 233v97q151 21 151 216v302q0 78 18 134t54 92t89 54t123 21v-120q-42 -2 -71.5 -13.5t-47.5 -36t-26.5 -63.5t-8.5 -96v-282q0 -196 -114 -259q114 -65 114 -271v-266q0 -57 8.5 -96t26.5 -63.5
t47.5 -36t71.5 -12.5v-120z" />
    <glyph glyph-name="bar" unicode="|" horiz-adv-x="243" 
d="M51 -463v2010h130v-2010h-130z" />
    <glyph glyph-name="braceright" unicode="}" horiz-adv-x="448" 
d="M447 504q-149 -21 -149 -233v-285q0 -79 -18 -134.5t-54 -91.5t-89.5 -54t-123.5 -21v120q39 1 68 11.5t48 34.5t28 63t9 99v266q0 208 116 271q-116 63 -116 259v282q0 60 -9 99.5t-28 63t-48 34t-68 12.5v120q70 -3 123.5 -21t89.5 -54t54 -91.5t18 -134.5v-302
q0 -195 149 -216v-97z" />
    <glyph glyph-name="asciitilde" unicode="~" horiz-adv-x="956" 
d="M893 723q-8 -130 -72.5 -201t-171.5 -71q-98 0 -205 85q-98 77 -158 77q-117 0 -129 -152h-113q6 129 71 200t173 71q98 0 199 -80q33 -27 55.5 -43.5t39.5 -25t33.5 -11.5t37.5 -3q110 0 129 154h111z" />
    <glyph glyph-name="Aring" unicode="&#xc5;" horiz-adv-x="1229" 
d="M1053 0l-159 434h-578q-39 -106 -80.5 -217.5t-79.5 -216.5h-148l508 1344q-124 49 -124 183q0 44 17 80.5t46.5 63t68.5 41.5t83 15q45 0 84 -14t68 -40.5t46 -63.5t17 -82q0 -130 -122 -181q124 -332 251.5 -673t251.5 -673h-150zM620 1180l1 -1q-5 12 -8.5 23.5
t-7.5 24.5q-5 -14 -9 -25t-7 -20q-59 -159 -113 -310.5t-112 -310.5h482zM607 1622q-48 0 -76 -25t-28 -70q0 -42 29.5 -67.5t74.5 -25.5q47 0 76.5 25.5t29.5 67.5q0 47 -30.5 71t-75.5 24z" />
    <glyph glyph-name="Udieresis" unicode="&#xdc;" horiz-adv-x="1327" 
d="M1058 577q0 -601 -515 -601q-492 0 -492 580v878h135v-865q0 -466 375 -466q363 0 363 453v878h134v-857zM743 1492q-17 0 -32.5 6.5t-28 18t-20 28t-7.5 36.5q0 19 7.5 35t19.5 27t27.5 17.5t31.5 6.5q18 0 34.5 -6.5t29.5 -18t21 -27t8 -34.5q0 -38 -26.5 -63.5
t-64.5 -25.5zM423 1492q-35 0 -62 24t-27 65q0 19 7.5 35t19.5 27t27.5 17.5t32.5 6.5q18 0 34 -6.5t29 -18t20.5 -27t7.5 -34.5q0 -38 -25.5 -63.5t-63.5 -25.5z" />
    <glyph glyph-name="aacute" unicode="&#xe1;" horiz-adv-x="1012" 
d="M468 1048q165 0 251.5 -98t86.5 -290v-660h-127v112q-26 -26 -63.5 -50.5t-80 -43.5t-88.5 -30.5t-90 -11.5q-75 0 -134.5 22.5t-101.5 62.5t-64.5 94.5t-22.5 117.5q2 101 45 166.5t109.5 103.5t149 53t164.5 15q49 0 94 -4t83 -10q0 160 -51 246t-169 86
q-166 0 -306 -125l-80 85q153 159 395 159zM166 277q0 -40 13.5 -73.5t39.5 -57.5t63.5 -37.5t84.5 -13.5q133 0 218 68v-1q40 32 63 60t29 49v212q-35 7 -76.5 11t-86.5 4q-62 0 -124 -10t-111.5 -35t-81 -67.5t-31.5 -108.5zM336 1143h-134l254 355h148z" />
    <glyph glyph-name="agrave" unicode="&#xe0;" horiz-adv-x="1012" 
d="M468 1048q165 0 251.5 -98t86.5 -290v-660h-127v112q-26 -26 -63.5 -50.5t-80 -43.5t-88.5 -30.5t-90 -11.5q-75 0 -134.5 22.5t-101.5 62.5t-64.5 94.5t-22.5 117.5q2 101 45 166.5t109.5 103.5t149 53t164.5 15q49 0 94 -4t83 -10q0 160 -51 246t-169 86
q-166 0 -306 -125l-80 85q153 159 395 159zM166 277q0 -40 13.5 -73.5t39.5 -57.5t63.5 -37.5t84.5 -13.5q133 0 218 68v-1q40 32 63 60t29 49v212q-35 7 -76.5 11t-86.5 4q-62 0 -124 -10t-111.5 -35t-81 -67.5t-31.5 -108.5zM436 1143l-268 355h149l253 -355h-134z" />
    <glyph glyph-name="acircumflex" unicode="&#xe2;" horiz-adv-x="1012" 
d="M468 1048q165 0 251.5 -98t86.5 -290v-660h-127v112q-26 -26 -63.5 -50.5t-80 -43.5t-88.5 -30.5t-90 -11.5q-75 0 -134.5 22.5t-101.5 62.5t-64.5 94.5t-22.5 117.5q2 101 45 166.5t109.5 103.5t149 53t164.5 15q49 0 94 -4t83 -10q0 160 -51 246t-169 86
q-166 0 -306 -125l-80 85q153 159 395 159zM166 277q0 -40 13.5 -73.5t39.5 -57.5t63.5 -37.5t84.5 -13.5q133 0 218 68v-1q40 32 63 60t29 49v212q-35 7 -76.5 11t-86.5 4q-62 0 -124 -10t-111.5 -35t-81 -67.5t-31.5 -108.5zM546 1143l-140 215q-34 -50 -72.5 -108
t-70.5 -107h-126l238 362h65l235 -362h-129z" />
    <glyph glyph-name="adieresis" unicode="&#xe4;" horiz-adv-x="1012" 
d="M468 1048q165 0 251.5 -98t86.5 -290v-660h-127v112q-26 -26 -63.5 -50.5t-80 -43.5t-88.5 -30.5t-90 -11.5q-75 0 -134.5 22.5t-101.5 62.5t-64.5 94.5t-22.5 117.5q2 101 45 166.5t109.5 103.5t149 53t164.5 15q49 0 94 -4t83 -10q0 160 -51 246t-169 86
q-166 0 -306 -125l-80 85q153 159 395 159zM166 277q0 -40 13.5 -73.5t39.5 -57.5t63.5 -37.5t84.5 -13.5q133 0 218 68v-1q40 32 63 60t29 49v212q-35 7 -76.5 11t-86.5 4q-62 0 -124 -10t-111.5 -35t-81 -67.5t-31.5 -108.5zM548 1143q-17 0 -32.5 6.5t-28 18t-20 28
t-7.5 36.5q0 19 7.5 35t19.5 27t27.5 17.5t31.5 6.5q18 0 34.5 -6.5t29.5 -18t21 -27t8 -34.5q0 -38 -26.5 -63.5t-64.5 -25.5zM228 1143q-35 0 -62 24t-27 65q0 19 7.5 35t19.5 27t27.5 17.5t32.5 6.5q18 0 34 -6.5t29 -18t20.5 -27t7.5 -34.5q0 -38 -25.5 -63.5
t-63.5 -25.5z" />
    <glyph glyph-name="atilde" unicode="&#xe3;" horiz-adv-x="1012" 
d="M468 1048q165 0 251.5 -98t86.5 -290v-660h-127v112q-26 -26 -63.5 -50.5t-80 -43.5t-88.5 -30.5t-90 -11.5q-75 0 -134.5 22.5t-101.5 62.5t-64.5 94.5t-22.5 117.5q2 101 45 166.5t109.5 103.5t149 53t164.5 15q49 0 94 -4t83 -10q0 160 -51 246t-169 86
q-166 0 -306 -125l-80 85q153 159 395 159zM166 277q0 -40 13.5 -73.5t39.5 -57.5t63.5 -37.5t84.5 -13.5q133 0 218 68v-1q40 32 63 60t29 49v212q-35 7 -76.5 11t-86.5 4q-62 0 -124 -10t-111.5 -35t-81 -67.5t-31.5 -108.5zM838 1408q0 -59 -13.5 -105.5t-38.5 -79.5
t-60.5 -50.5t-79.5 -17.5q-34 0 -75 20.5t-83 57.5q-56 48 -102 48q-79 0 -79 -138h-107q0 56 13.5 102.5t38.5 79.5t59.5 51.5t76.5 18.5q77 0 167 -75q31 -26 54.5 -39t45.5 -13q30 0 51.5 35.5t21.5 104.5h110z" />
    <glyph glyph-name="aring" unicode="&#xe5;" horiz-adv-x="849" 
d="M492 1143q-45 0 -84 14t-67.5 39.5t-45 62t-16.5 81.5q0 42 16 78t44.5 62.5t67.5 41t85 14.5t85 -14.5t67 -40t44 -62t16 -79.5t-16.5 -79t-45 -62.5t-67.5 -41t-83 -14.5zM492 1433q-47 0 -75 -25t-28 -68t29 -68.5t74 -25.5q46 0 75.5 26t29.5 68q0 45 -30 69t-75 24z
M450 1048q165 0 251.5 -98t86.5 -290v-660h-127v112q-26 -26 -63.5 -50.5t-80 -43.5t-88.5 -30.5t-89 -11.5q-75 0 -135 22.5t-102 62.5t-64.5 95t-22.5 119q8 83 43 145.5t88.5 104.5t120.5 63.5t140 21.5q65 0 129 -15.5t124 -50.5q0 29 -0.5 59t-0.5 59
q-6 130 -60.5 198.5t-157.5 68.5q-85 0 -161 -31.5t-145 -93.5l-81 85q153 159 395 159zM148 277q0 -40 13.5 -73.5t39.5 -57.5t63.5 -37.5t84.5 -13.5q133 0 218 68v-1q41 32 64 60t28 49v150q-63 40 -122.5 58t-118.5 18q-56 0 -105.5 -16t-86 -45t-57.5 -69.5t-21 -89.5z
" />
    <glyph glyph-name="ccedilla" unicode="&#xe7;" horiz-adv-x="909" 
d="M825 74q-64 -47 -139.5 -72.5t-161.5 -25.5q-113 0 -203 39t-153 109t-96.5 167.5t-33.5 214.5q0 127 35.5 228t101 170.5t157 106.5t203.5 37q165 0 294 -94l-70 -100q-99 75 -228 75q-83 0 -149.5 -29t-114 -83.5t-73 -133.5t-25.5 -179q0 -92 24.5 -167.5t71 -129
t113 -83t149.5 -29.5q134 0 236 84zM387 -301q72 -9 102 -9q135 0 135 69q0 64 -121 64q-14 0 -34 -1.5t-47 -5.5v222h108v-112q217 -6 217 -161q0 -183 -264 -183q-35 0 -96 6v111z" />
    <glyph glyph-name="eacute" unicode="&#xe9;" horiz-adv-x="1034" 
d="M169 489q3 -91 27.5 -164t67 -124t102.5 -78.5t135 -27.5q161 0 300 115l61 -101q-185 -133 -380 -133q-99 0 -181 36.5t-140.5 105.5t-90.5 170t-32 230q0 110 33.5 206.5t94.5 168.5t146 113.5t187 41.5q97 0 171.5 -35t125 -99.5t76.5 -157.5t26 -208v-59h-729z
M766 608q-9 155 -79 238t-192 83q-126 0 -210.5 -83t-109.5 -238h591zM373 1143h-134l254 355h148z" />
    <glyph glyph-name="egrave" unicode="&#xe8;" horiz-adv-x="1034" 
d="M169 489q3 -91 27.5 -164t67 -124t102.5 -78.5t135 -27.5q161 0 300 115l61 -101q-185 -133 -380 -133q-99 0 -181 36.5t-140.5 105.5t-90.5 170t-32 230q0 110 33.5 206.5t94.5 168.5t146 113.5t187 41.5q97 0 171.5 -35t125 -99.5t76.5 -157.5t26 -208v-59h-729z
M766 608q-9 155 -79 238t-192 83q-126 0 -210.5 -83t-109.5 -238h591zM486 1143l-268 355h149l253 -355h-134z" />
    <glyph glyph-name="ecircumflex" unicode="&#xea;" horiz-adv-x="1034" 
d="M169 489q3 -91 27.5 -164t67 -124t102.5 -78.5t135 -27.5q161 0 300 115l61 -101q-185 -133 -380 -133q-99 0 -181 36.5t-140.5 105.5t-90.5 170t-32 230q0 110 33.5 206.5t94.5 168.5t146 113.5t187 41.5q97 0 171.5 -35t125 -99.5t76.5 -157.5t26 -208v-59h-729z
M766 608q-9 155 -79 238t-192 83q-126 0 -210.5 -83t-109.5 -238h591zM580 1143l-140 215q-34 -50 -72.5 -108t-70.5 -107h-126l238 362h65l235 -362h-129z" />
    <glyph glyph-name="edieresis" unicode="&#xeb;" horiz-adv-x="1034" 
d="M169 489q3 -91 27.5 -164t67 -124t102.5 -78.5t135 -27.5q161 0 300 115l61 -101q-185 -133 -380 -133q-99 0 -181 36.5t-140.5 105.5t-90.5 170t-32 230q0 110 33.5 206.5t94.5 168.5t146 113.5t187 41.5q97 0 171.5 -35t125 -99.5t76.5 -157.5t26 -208v-59h-729z
M766 608q-9 155 -79 238t-192 83q-126 0 -210.5 -83t-109.5 -238h591zM585 1143q-17 0 -32.5 6.5t-28 18t-20 28t-7.5 36.5q0 19 7.5 35t19.5 27t27.5 17.5t31.5 6.5q18 0 34.5 -6.5t29.5 -18t21 -27t8 -34.5q0 -38 -26.5 -63.5t-64.5 -25.5zM265 1143q-35 0 -62 24t-27 65
q0 19 7.5 35t19.5 27t27.5 17.5t32.5 6.5q18 0 34 -6.5t29 -18t20.5 -27t7.5 -34.5q0 -38 -25.5 -63.5t-63.5 -25.5z" />
    <glyph glyph-name="iacute" unicode="&#xed;" horiz-adv-x="364" 
d="M78 0v1024h127v-1024h-127zM-5 1143h-133l253 355h148z" />
    <glyph glyph-name="igrave" unicode="&#xec;" horiz-adv-x="380" 
d="M202 0v1024h127v-1024h-127zM234 1143l-267 355h148l253 -355h-134z" />
    <glyph glyph-name="icircumflex" unicode="&#xee;" horiz-adv-x="509" 
d="M182 0v1024h127v-1024h-127zM290 1143l-141 215q-34 -50 -72.5 -108t-70.5 -107h-125l237 362h65l236 -362h-129z" />
    <glyph glyph-name="idieresis" unicode="&#xef;" horiz-adv-x="497" 
d="M177 0v1024h127v-1024h-127zM300 1143q-17 0 -32.5 6.5t-28 18t-20 28t-7.5 36.5q0 19 7.5 35t19.5 27t27.5 17.5t31.5 6.5q18 0 34.5 -6.5t29.5 -18t21 -27t8 -34.5q0 -38 -26.5 -63.5t-64.5 -25.5zM-20 1143q-35 0 -62 24t-27 65q0 19 7.5 35t19.5 27t27.5 17.5
t32.5 6.5q18 0 34 -6.5t29 -18t20.5 -27t7.5 -34.5q0 -38 -25.5 -63.5t-63.5 -25.5z" />
    <glyph glyph-name="ntilde" unicode="&#xf1;" horiz-adv-x="1096" 
d="M803 0h-127v619q0 309 -229 310q-84 -9 -149.5 -54.5t-113.5 -131.5v-743h-127v1024h127v-123q61 75 132 111t154 36q56 0 115 -23.5t107.5 -72.5t79.5 -123t31 -176v-653zM910 1408q0 -59 -13.5 -105.5t-38.5 -79.5t-60.5 -50.5t-79.5 -17.5q-34 0 -75 20.5t-83 57.5
q-56 48 -102 48q-79 0 -79 -138h-107q0 56 13.5 102.5t38.5 79.5t59.5 51.5t76.5 18.5q77 0 167 -75q31 -26 54.5 -39t45.5 -13q30 0 51.5 35.5t21.5 104.5h110z" />
    <glyph glyph-name="oacute" unicode="&#xf3;" horiz-adv-x="1149" 
d="M526 -24q-113 0 -203 39t-153 109t-96.5 167.5t-33.5 214.5q0 127 35.5 228t101 170.5t157 106.5t202.5 37q109 0 197 -37t150 -106.5t95 -169t33 -225.5q0 -118 -33.5 -216t-96.5 -168.5t-153 -110t-202 -39.5zM533 929q-83 0 -149.5 -29t-114 -83.5t-73 -133.5
t-25.5 -179q0 -92 24.5 -167.5t71 -129t112.5 -83t150 -29.5t149.5 28.5t110 82t68 131t23.5 175.5q0 204 -89.5 310.5t-257.5 106.5zM425 1143h-134l254 355h148z" />
    <glyph glyph-name="ograve" unicode="&#xf2;" horiz-adv-x="1149" 
d="M526 -24q-113 0 -203 39t-153 109t-96.5 167.5t-33.5 214.5q0 127 35.5 228t101 170.5t157 106.5t202.5 37q109 0 197 -37t150 -106.5t95 -169t33 -225.5q0 -118 -33.5 -216t-96.5 -168.5t-153 -110t-202 -39.5zM533 929q-83 0 -149.5 -29t-114 -83.5t-73 -133.5
t-25.5 -179q0 -92 24.5 -167.5t71 -129t112.5 -83t150 -29.5t149.5 28.5t110 82t68 131t23.5 175.5q0 204 -89.5 310.5t-257.5 106.5zM509 1143l-268 355h149l253 -355h-134z" />
    <glyph glyph-name="ocircumflex" unicode="&#xf4;" horiz-adv-x="1149" 
d="M526 -24q-113 0 -203 39t-153 109t-96.5 167.5t-33.5 214.5q0 127 35.5 228t101 170.5t157 106.5t202.5 37q109 0 197 -37t150 -106.5t95 -169t33 -225.5q0 -118 -33.5 -216t-96.5 -168.5t-153 -110t-202 -39.5zM533 929q-83 0 -149.5 -29t-114 -83.5t-73 -133.5
t-25.5 -179q0 -92 24.5 -167.5t71 -129t112.5 -83t150 -29.5t149.5 28.5t110 82t68 131t23.5 175.5q0 204 -89.5 310.5t-257.5 106.5zM624 1143l-140 215q-34 -50 -72.5 -108t-70.5 -107h-126l238 362h65l235 -362h-129z" />
    <glyph glyph-name="odieresis" unicode="&#xf6;" horiz-adv-x="1149" 
d="M526 -24q-113 0 -203 39t-153 109t-96.5 167.5t-33.5 214.5q0 127 35.5 228t101 170.5t157 106.5t202.5 37q109 0 197 -37t150 -106.5t95 -169t33 -225.5q0 -118 -33.5 -216t-96.5 -168.5t-153 -110t-202 -39.5zM533 929q-83 0 -149.5 -29t-114 -83.5t-73 -133.5
t-25.5 -179q0 -92 24.5 -167.5t71 -129t112.5 -83t150 -29.5t149.5 28.5t110 82t68 131t23.5 175.5q0 204 -89.5 310.5t-257.5 106.5zM632 1143q-17 0 -32.5 6.5t-28 18t-20 28t-7.5 36.5q0 19 7.5 35t19.5 27t27.5 17.5t31.5 6.5q18 0 34.5 -6.5t29.5 -18t21 -27t8 -34.5
q0 -38 -26.5 -63.5t-64.5 -25.5zM312 1143q-35 0 -62 24t-27 65q0 19 7.5 35t19.5 27t27.5 17.5t32.5 6.5q18 0 34 -6.5t29 -18t20.5 -27t7.5 -34.5q0 -38 -25.5 -63.5t-63.5 -25.5z" />
    <glyph glyph-name="otilde" unicode="&#xf5;" horiz-adv-x="1149" 
d="M526 -24q-113 0 -203 39t-153 109t-96.5 167.5t-33.5 214.5q0 127 35.5 228t101 170.5t157 106.5t202.5 37q109 0 197 -37t150 -106.5t95 -169t33 -225.5q0 -118 -33.5 -216t-96.5 -168.5t-153 -110t-202 -39.5zM533 929q-83 0 -149.5 -29t-114 -83.5t-73 -133.5
t-25.5 -179q0 -92 24.5 -167.5t71 -129t112.5 -83t150 -29.5t149.5 28.5t110 82t68 131t23.5 175.5q0 204 -89.5 310.5t-257.5 106.5zM925 1408q0 -59 -13.5 -105.5t-38.5 -79.5t-60.5 -50.5t-79.5 -17.5q-34 0 -75 20.5t-83 57.5q-56 48 -102 48q-79 0 -79 -138h-107
q0 56 13.5 102.5t38.5 79.5t59.5 51.5t76.5 18.5q77 0 167 -75q31 -26 54.5 -39t45.5 -13q30 0 51.5 35.5t21.5 104.5h110z" />
    <glyph glyph-name="uacute" unicode="&#xfa;" horiz-adv-x="1096" 
d="M721 0v138q-63 -77 -136 -120t-150 -43q-192 0 -288.5 110.5t-96.5 349.5v589h128v-567q0 -96 15 -164.5t46.5 -112.5t80 -64.5t114.5 -20.5q86 0 157.5 50t129.5 148v731h127v-1024h-127zM427 1143h-134l254 355h148z" />
    <glyph glyph-name="ugrave" unicode="&#xf9;" horiz-adv-x="1096" 
d="M721 0v138q-63 -77 -136 -120t-150 -43q-192 0 -288.5 110.5t-96.5 349.5v589h128v-567q0 -96 15 -164.5t46.5 -112.5t80 -64.5t114.5 -20.5q86 0 157.5 50t129.5 148v731h127v-1024h-127zM475 1143l-268 355h149l253 -355h-134z" />
    <glyph glyph-name="ucircumflex" unicode="&#xfb;" horiz-adv-x="1096" 
d="M721 0v138q-63 -77 -136 -120t-150 -43q-192 0 -288.5 110.5t-96.5 349.5v589h128v-567q0 -96 15 -164.5t46.5 -112.5t80 -64.5t114.5 -20.5q86 0 157.5 50t129.5 148v731h127v-1024h-127zM602 1143l-140 215q-34 -50 -72.5 -108t-70.5 -107h-126l238 362h65l235 -362
h-129z" />
    <glyph glyph-name="udieresis" unicode="&#xfc;" horiz-adv-x="1096" 
d="M721 0v138q-63 -77 -136 -120t-150 -43q-192 0 -288.5 110.5t-96.5 349.5v589h128v-567q0 -96 15 -164.5t46.5 -112.5t80 -64.5t114.5 -20.5q86 0 157.5 50t129.5 148v731h127v-1024h-127zM618 1143q-17 0 -32.5 6.5t-28 18t-20 28t-7.5 36.5q0 19 7.5 35t19.5 27
t27.5 17.5t31.5 6.5q18 0 34.5 -6.5t29.5 -18t21 -27t8 -34.5q0 -38 -26.5 -63.5t-64.5 -25.5zM298 1143q-35 0 -62 24t-27 65q0 19 7.5 35t19.5 27t27.5 17.5t32.5 6.5q18 0 34 -6.5t29 -18t20.5 -27t7.5 -34.5q0 -38 -25.5 -63.5t-63.5 -25.5z" />
    <glyph glyph-name="dagger" unicode="&#x2020;" horiz-adv-x="670" 
d="M665 896l-262 28v-704h-102v705q-75 -8 -156 -15t-154 -14v147l299 -19q-7 96 -14.5 198t-15.5 196h153l-28 -394q66 5 141.5 10t138.5 9v-147z" />
    <glyph glyph-name="degree" unicode="&#xb0;" horiz-adv-x="602" 
d="M297 895q-54 0 -101.5 21t-83.5 57t-57 84t-21 102q0 53 20.5 100t56 82.5t82.5 56.5t100 21q55 0 103 -21t84 -56.5t56.5 -83t20.5 -99.5q0 -54 -20 -102t-55.5 -84t-83 -57t-101.5 -21zM297 1307q-29 0 -55.5 -11.5t-46.5 -32t-32 -47.5t-12 -57q0 -31 11 -58.5
t30.5 -48.5t45 -33t55.5 -12t56 12t46 33t31.5 48.5t11.5 58.5t-11 58t-30 47t-45 31.5t-55 11.5z" />
    <glyph glyph-name="cent" unicode="&#xa2;" horiz-adv-x="814" 
d="M787 221q-61 -35 -121 -55.5t-119 -27.5v-193h-127v193q-94 10 -169.5 52.5t-128.5 110t-81.5 157t-28.5 194.5t28.5 195.5t81.5 162t128.5 119.5t169.5 67v195h127v-186q107 -6 246 -68l-38 -126q-111 65 -208 74v-828q56 7 105 28.5t99 59.5zM420 1075
q-65 -16 -116.5 -53.5t-87.5 -92.5t-55 -124t-19 -147q0 -79 19 -146.5t54.5 -119t87 -86t117.5 -47.5v816z" />
    <glyph glyph-name="sterling" unicode="&#xa3;" horiz-adv-x="905" 
d="M14 0v70q60 25 104.5 65.5t74.5 91t45 108.5t15 118v184h-219v125h219v260q0 94 26 171.5t74 132.5t116 85.5t152 30.5q24 0 52 -3.5t58 -10t59 -15t55 -18.5l-38 -125q-103 52 -190 52q-113 0 -175 -78t-62 -233v-249h296v-125h-296v-151q0 -62 -10 -114.5t-29 -97.5
t-45 -83t-59 -72h651v-119h-874z" />
    <glyph glyph-name="section" unicode="&#xa7;" horiz-adv-x="676" 
d="M646 679q0 -155 -137 -272q80 -72 80 -192q0 -59 -24 -109.5t-67 -88.5t-103 -59.5t-133 -21.5q-27 0 -58.5 6t-65.5 16t-68 22.5t-65 25.5l37 121q66 -36 121.5 -53.5t100.5 -17.5q96 0 145 43t49 114q0 22 -5.5 43.5t-22 43t-46.5 44.5t-80 47q-90 43 -145 82.5
t-84.5 79t-39.5 82.5t-10 94q0 161 139 248q-48 41 -75 93.5t-27 115.5q0 64 21.5 116.5t62.5 90.5t100 59t133 21q27 0 58 -4.5t62.5 -11.5t61.5 -16.5t54 -19.5l-37 -124q-50 29 -99.5 43t-101.5 14q-184 0 -184 -162q0 -36 11 -63t39 -52.5t75.5 -52t120.5 -59.5
q207 -95 207 -286zM515 679q0 34 -8 61t-33.5 52.5t-72.5 53.5t-126 63q-120 -57 -120 -175q0 -43 11 -75.5t39.5 -61t77.5 -56t124 -60.5q28 21 48.5 42t34 44t19.5 50.5t6 61.5z" />
    <glyph glyph-name="bullet" unicode="&#x2022;" horiz-adv-x="581" 
d="M287 459q-52 0 -98 19.5t-80.5 53t-55 78.5t-20.5 95q0 51 20.5 96.5t55 80t81 55t97.5 20.5t96.5 -20t79.5 -54.5t54 -80t20 -97.5q0 -51 -20 -96t-54 -78t-79.5 -52.5t-96.5 -19.5z" />
    <glyph glyph-name="paragraph" unicode="&#xb6;" horiz-adv-x="823" 
d="M654 1297v-1297h-121v1297h-152v-1297h-122v870q-51 4 -95 26.5t-76 59t-50.5 84t-18.5 102.5q0 63 21 114.5t57.5 87.5t85 55.5t102.5 19.5h495v-122h-126z" />
    <glyph glyph-name="germandbls" unicode="&#xdf;" horiz-adv-x="920" 
d="M320 128q43 -16 79.5 -24.5t65.5 -8.5q64 0 115 21.5t87 59.5t55.5 91.5t19.5 118.5q0 71 -27 130t-78 105t-125.5 77.5t-169.5 47.5v108q295 67 295 305q0 109 -57 172t-158 63q-57 0 -102 -16.5t-76 -59.5t-47 -117.5t-16 -191.5v-1007h-127v1020q0 143 27 237.5
t76 151t118.5 79.5t154.5 23q76 0 138 -24.5t106.5 -69.5t69 -108t24.5 -139q0 -246 -217 -360q75 -26 134.5 -67.5t101 -96t64 -119.5t22.5 -137q0 -89 -29 -165t-82.5 -132t-128 -87.5t-164.5 -31.5q-18 0 -46 5t-57.5 13.5t-55.5 18t-39 18.5z" />
    <glyph glyph-name="uni00AD" unicode="&#xad;" horiz-adv-x="690" 
d="M56 534v125h564v-125h-564z" />
    <glyph glyph-name="registered" unicode="&#xae;" horiz-adv-x="1591" 
d="M781 -24q-306 0 -523 214q-215 212 -215 517q0 307 216 520q218 215 520 215t522 -215q217 -214 217 -518t-216 -518q-215 -215 -521 -215zM779 1330q-255 0 -438 -183t-183 -440q0 -254 182 -438q180 -181 439 -181q260 0 441 182q183 184 183 437q0 256 -184 440
q-183 183 -440 183zM1013 233l-252 412h-136v-412h-127v968h273q81 0 144.5 -19t106.5 -53.5t65.5 -83.5t22.5 -108q0 -216 -230 -271q33 -52 69 -107t72 -110.5t71.5 -110t67.5 -105.5h-147zM625 1094v-342h168q42 0 76.5 12.5t59 35t38 53.5t13.5 69q0 172 -211 172h-144z
" />
    <glyph glyph-name="copyright" unicode="&#xa9;" horiz-adv-x="1591" 
d="M781 -24q-306 0 -523 214q-215 212 -215 517q0 307 216 520q218 215 520 215t522 -215q217 -214 217 -518t-216 -518q-215 -215 -521 -215zM779 1330q-255 0 -438 -183t-183 -440q0 -254 182 -438q180 -181 439 -181q260 0 441 182q183 184 183 437q0 256 -184 440
q-183 183 -440 183zM1109 283q-169 -91 -300 -91q-104 0 -194.5 37.5t-157.5 103.5t-106 156t-39 194q0 123 39 222t108 168t162.5 106.5t202.5 37.5q128 0 280 -75l-50 -105q-116 63 -245 63q-77 0 -144 -28t-117.5 -79.5t-79.5 -125t-29 -163.5q0 -88 30.5 -160.5t82 -124
t120.5 -80t147 -28.5q119 0 238 72z" />
    <glyph glyph-name="trademark" unicode="&#x2122;" horiz-adv-x="1424" 
d="M1217 743v441q-48 -110 -96 -222t-94 -219h-91l-181 435v-435h-117v676h143l204 -499q53 123 107 250t107 249h136v-676h-118zM369 1305v-562h-117v562h-213v114h545v-114h-215z" />
    <glyph glyph-name="acute" unicode="&#xb4;" horiz-adv-x="359" 
d="M111 1143h-134l254 355h148z" />
    <glyph glyph-name="dieresis" unicode="&#xa8;" horiz-adv-x="608" 
d="M458 1143q-17 0 -32.5 6.5t-28 18t-20 28t-7.5 36.5q0 19 7.5 35t19.5 27t27.5 17.5t31.5 6.5q18 0 34.5 -6.5t29.5 -18t21 -27t8 -34.5q0 -38 -26.5 -63.5t-64.5 -25.5zM138 1143q-35 0 -62 24t-27 65q0 19 7.5 35t19.5 27t27.5 17.5t32.5 6.5q18 0 34 -6.5t29 -18
t20.5 -27t7.5 -34.5q0 -38 -25.5 -63.5t-63.5 -25.5z" />
    <glyph glyph-name="Oslash" unicode="&#xd8;" horiz-adv-x="1470" 
d="M123 -61l-92 74l177 210q-144 196 -144 479q0 171 48 310.5t138 238t218.5 152.5t288.5 54q112 0 208.5 -30t176.5 -89q32 38 69 81.5t68 79.5l92 -76l-139 -165q88 -100 132 -230t44 -290q0 -176 -48.5 -317t-137 -240t-213.5 -152t-278 -53q-134 0 -243 38.5
t-200 119.5zM1058 1235q-66 48 -144 72t-173 24q-117 0 -215.5 -45t-170.5 -126.5t-112 -195t-40 -251.5q0 -115 24 -210.5t72 -171.5zM375 237q138 -134 354 -134q125 0 225.5 42.5t170.5 122t107.5 194.5t37.5 261q0 131 -33 240t-94 190z" />
    <glyph glyph-name="plusminus" unicode="&#xb1;" horiz-adv-x="919" 
d="M511 609v-396h-119v396h-397v120h397v395h119v-395h396v-120h-396zM-5 0v119h912v-119h-912z" />
    <glyph glyph-name="yen" unicode="&#xa5;" horiz-adv-x="960" 
d="M574 755h318v-118h-359v-198h359v-119h-359v-320h-127v320h-358v119h358v198h-358v118h315q-44 80 -89.5 164t-92 168.5t-92.5 168t-89 163.5h143l301 -561q8 -17 14 -30.5t14 -24.5q7 18 14 33t15 26q75 137 152 278.5t152 278.5h138z" />
    <glyph glyph-name="uni00B5" unicode="&#xb5;" horiz-adv-x="887" 
d="M728 0v133q-106 -157 -303 -157q-152 0 -240 93v-445h-127v1400h127v-567q0 -96 15.5 -164.5t47 -112.5t79.5 -64.5t113 -20.5q66 0 119 25.5t90.5 72t58 111.5t20.5 143v577h127v-1024h-127z" />
    <glyph glyph-name="ordfeminine" unicode="&#xaa;" horiz-adv-x="685" 
d="M496 690v93q-45 -52 -104.5 -80.5t-124.5 -28.5q-55 0 -98.5 17t-73.5 46t-46 68t-16 83q0 69 31 120t83 84t118.5 49t137.5 16q24 0 47 -2t46 -5q-4 88 -39 130t-101 42q-60 0 -124.5 -25.5t-132.5 -77.5l-27 125q34 21 71.5 38.5t75.5 29.5t74.5 19t69.5 7
q258 0 258 -283v-465h-125zM169 890q0 -46 27.5 -73.5t87.5 -27.5q21 0 48.5 4.5t56.5 18.5t56.5 40t50.5 68v118q-4 1 -7.5 1t-6.5 1h1q-26 4 -58 7.5t-64 3.5q-34 0 -67.5 -6.5t-60 -24t-44 -49t-20.5 -81.5z" />
    <glyph glyph-name="ordmasculine" unicode="&#xba;" horiz-adv-x="798" 
d="M391 670q-81 0 -146 28.5t-111.5 79.5t-71.5 121t-25 153q0 91 26.5 162.5t74.5 121t114 76t145 26.5q80 0 144.5 -26.5t110 -76t70 -120.5t24.5 -161q0 -82 -25 -152t-71 -121.5t-112 -81t-147 -29.5zM395 1322q-52 0 -94 -18.5t-72 -54t-46.5 -86t-16.5 -113.5
q0 -60 16.5 -108.5t46 -83t71.5 -53t93 -18.5q108 0 165 70.5t57 198.5q0 125 -57.5 195.5t-162.5 70.5z" />
    <glyph glyph-name="oslash" unicode="&#xf8;" horiz-adv-x="1192" 
d="M972 855q89 -136 89 -345q0 -118 -33.5 -216t-96.5 -168.5t-153 -110t-202 -39.5q-90 0 -166 25.5t-139 75.5q-38 -42 -81.5 -89.5t-79.5 -87.5l-85 81l165 184q-100 140 -100 341q0 127 35.5 228t101 170.5t157 106.5t203.5 37q189 0 308 -103q39 43 83.5 92t81.5 91
l88 -79zM810 852q-87 77 -227 77q-83 0 -149.5 -29t-114 -83.5t-73 -133.5t-25.5 -179q0 -69 14 -130t43 -112zM354 171q89 -76 225 -76q84 0 149.5 28.5t110 82t68 131t23.5 175.5q0 72 -11.5 132.5t-36.5 110.5z" />
    <glyph glyph-name="questiondown" unicode="&#xbf;" horiz-adv-x="720" 
d="M433 641q6 -15 11.5 -34t9.5 -40.5t6.5 -43.5t2.5 -42q0 -48 -13 -87t-36 -73.5t-54 -66.5t-68 -65q-29 -26 -57.5 -55.5t-51 -63.5t-36 -72.5t-13.5 -83.5q0 -48 16.5 -86.5t45.5 -65.5t70 -41t91 -14q43 0 84.5 9.5t79 26t69 38.5t53.5 46l75 -95q-52 -47 -96.5 -76
t-87.5 -45.5t-86 -22.5t-92 -6q-75 0 -139.5 21.5t-112 63t-74.5 101.5t-27 137q0 57 15.5 104t41 87.5t58.5 75.5t67 68q49 46 80 78t49 57.5t25 49.5t7 55q0 42 -10 85t-20 76h117zM386 1041q41 0 68 -28t27 -69q0 -43 -27 -69.5t-68 -26.5q-42 0 -70 26.5t-28 69.5
q0 20 7.5 38t20.5 31t31 20.5t39 7.5z" />
    <glyph glyph-name="uni00A0" unicode="&#xa0;" horiz-adv-x="561" 
 />
    <glyph glyph-name="exclamdown" unicode="&#xa1;" horiz-adv-x="214" 
d="M103 848q-41 0 -69.5 26.5t-28.5 69.5q0 41 28.5 69t69.5 28t68.5 -28t27.5 -69q0 -43 -27.5 -69.5t-68.5 -26.5zM35 -393v1031h131v-1031h-131z" />
    <glyph glyph-name="logicalnot" unicode="&#xac;" horiz-adv-x="982" 
d="M782 141v393h-790v119h912v-512h-122z" />
    <glyph glyph-name="florin" unicode="&#x192;" horiz-adv-x="872" 
d="M777 1256q-32 45 -58 45q-155 0 -180 -177l-29 -200h162v-118h-179q-23 -168 -46 -330.5t-46 -331.5q-31 -216 -112 -314.5t-204 -98.5q-40 0 -87 19v120q60 -21 83 -21q75 0 122.5 75t69.5 220q23 169 45 331t45 331h-98v118h115q7 49 14.5 102.5t15.5 103.5
q21 144 99 216.5t197 72.5q104 -5 164 -97z" />
    <glyph glyph-name="guillemotleft" unicode="&#xab;" horiz-adv-x="794" 
d="M599 193l-283 343l282 350h160l-287 -350q33 -39 69.5 -83.5t74 -89.5t73.5 -88.5t68 -81.5h-157zM293 193l-282 343l281 350h159l-287 -350q33 -40 70 -84l74 -88t73.5 -87.5t69.5 -83.5h-158z" />
    <glyph glyph-name="guillemotright" unicode="&#xbb;" horiz-adv-x="797" 
d="M488 193h-159l288 351q-33 40 -70.5 84t-75 88.5t-74 87.5t-69.5 82h159l284 -343zM185 193h-164l291 351q-34 40 -71 84t-75 88.5t-75 87.5t-70 82h161l282 -342z" />
    <glyph glyph-name="ellipsis" unicode="&#x2026;" horiz-adv-x="1216" 
d="M1037 -15q-41 0 -68.5 28t-27.5 70q0 41 27.5 68t68.5 27t70 -27t29 -68q0 -21 -8 -39t-21.5 -31t-31.5 -20.5t-38 -7.5zM594 -15q-20 0 -38 7.5t-31 20.5t-20.5 31t-7.5 39q0 41 28 68t69 27t69.5 -27t28.5 -68q0 -21 -7.5 -39t-21 -31t-31.5 -20.5t-38 -7.5zM154 -15
q-41 0 -68.5 28t-27.5 70q0 41 27.5 68t68.5 27t69.5 -27t28.5 -68q0 -21 -7.5 -39t-21 -31t-31.5 -20.5t-38 -7.5z" />
    <glyph glyph-name="endash" unicode="&#x2013;" horiz-adv-x="1167" 
d="M60 534v125h1024v-125h-1024z" />
    <glyph glyph-name="emdash" unicode="&#x2014;" horiz-adv-x="2190" 
d="M70 534v125h2009v-125h-2009z" />
    <glyph glyph-name="quotedblleft" unicode="&#x201c;" horiz-adv-x="556" 
d="M394 948h-142l163 471h110zM157 948h-143l161 471h111z" />
    <glyph glyph-name="quotedblright" unicode="&#x201d;" horiz-adv-x="557" 
d="M371 948h-112l129 471h145zM130 948h-108l131 471h141z" />
    <glyph glyph-name="quoteleft" unicode="&#x2018;" horiz-adv-x="262" 
d="M131 948h-143l161 471h111z" />
    <glyph glyph-name="quoteright" unicode="&#x2019;" horiz-adv-x="261" 
d="M106 948h-109l131 471h141z" />
    <glyph glyph-name="divide" unicode="&#xf7;" horiz-adv-x="919" 
d="M452 833q-20 0 -37 7.5t-29.5 20.5t-20 30t-7.5 37q0 39 27.5 65.5t66.5 26.5t65.5 -26.5t26.5 -65.5t-26.5 -67t-65.5 -28zM-5 534v119h912v-119h-912zM452 167q-20 0 -37 7.5t-29.5 20.5t-20 30t-7.5 37q0 39 27.5 65.5t66.5 26.5t65.5 -26.5t26.5 -65.5t-26.5 -67
t-65.5 -28z" />
    <glyph glyph-name="ydieresis" unicode="&#xff;" horiz-adv-x="922" 
d="M426 -190q-28 -69 -58.5 -120.5t-67.5 -85t-81 -50.5t-99 -17q-23 0 -48.5 5.5t-52.5 14.5l42 126q23 -19 63 -19q105 0 170 152l88 210q-94 244 -190.5 499t-190.5 499h141l301 -813l8 -25q1 7 5 16l323 822h138zM622 1143q-17 0 -32.5 6.5t-28 18t-20 28t-7.5 36.5
q0 19 7.5 35t19.5 27t27.5 17.5t31.5 6.5q18 0 34.5 -6.5t29 -18t20.5 -27t8 -34.5q0 -38 -26 -63.5t-64 -25.5zM301 1143q-34 0 -61 24t-27 65q0 19 7.5 35t19.5 27t27.5 17.5t31.5 6.5q18 0 34.5 -6.5t29.5 -18t20.5 -27t7.5 -34.5q0 -38 -26 -63.5t-64 -25.5z" />
    <glyph glyph-name="Ydieresis" unicode="&#x178;" horiz-adv-x="1106" 
d="M570 545v-545h-134v543q-53 108 -108.5 220t-111 225.5t-111 225.5t-108.5 220h152l330 -683q6 -13 13.5 -29.5t15.5 -35.5q44 88 91.5 182t96 190t97 191t93.5 185h147zM599 1490q-17 0 -32.5 6.5t-28 18t-20 28t-7.5 36.5q0 19 7.5 35t19.5 27t27.5 17.5t31.5 6.5
q18 0 34.5 -6.5t29.5 -18t21 -27t8 -34.5q0 -38 -26.5 -63.5t-64.5 -25.5zM279 1490q-35 0 -62 24t-27 65q0 19 7.5 35t19.5 27t27.5 17.5t32.5 6.5q18 0 34 -6.5t29 -18t20.5 -27t7.5 -34.5q0 -38 -25.5 -63.5t-63.5 -25.5z" />
    <glyph glyph-name="Euro" unicode="&#x20ac;" horiz-adv-x="947" 
d="M904 60q-141 -84 -284 -84q-88 0 -164 33t-136 97t-102 158.5t-62 216.5h-142v120h130q-2 19 -2 38.5v39.5q0 58 3 111h-131v119h146q23 127 68.5 226.5t110 167.5t146 103.5t174.5 35.5q63 0 124 -15t121 -43v-144q-141 82 -252 82q-64 0 -121 -27.5t-104 -80
t-82 -129.5t-54 -176h518v-119h-535q-1 -17 -1.5 -43.5t-0.5 -55.5v-25v-21t0.5 -20.5t1.5 -23.5h535v-120h-519q16 -96 48 -168.5t76 -120.5t99 -72.5t118 -24.5q115 0 273 107v-142z" />
    <glyph glyph-name="guilsinglleft" unicode="&#x2039;" horiz-adv-x="447" 
d="M273 193l-284 343l283 350h158l-287 -350q33 -39 69.5 -83.5t74 -89.5t73.5 -88.5t68 -81.5h-155z" />
    <glyph glyph-name="guilsinglright" unicode="&#x203a;" horiz-adv-x="447" 
d="M169 193h-162l291 351q-33 40 -70.5 84t-75 88.5t-74 87.5t-69.5 82h159l282 -342z" />
    <glyph glyph-name="daggerdbl" unicode="&#x2021;" horiz-adv-x="680" 
d="M669 498l-278 27q7 -72 14.5 -153t13.5 -152h-154l28 305q-71 -6 -149.5 -13.5t-147.5 -13.5v147l284 -19q8 51 16.5 96.5t16.5 96.5q-8 53 -16.5 96.5t-16.5 96.5q-69 -4 -143.5 -9t-140.5 -10v147l297 -28q-3 36 -6.5 75t-7 78.5t-7.5 78.5t-7 74h154l-28 -305
q68 7 140.5 14t137.5 13v-148l-264 20q-9 -51 -17.5 -96.5t-16.5 -96.5q9 -53 17 -96.5t17 -96.5q63 4 133.5 9t130.5 10v-147z" />
    <glyph glyph-name="periodcentered" unicode="&#xb7;" horiz-adv-x="262" 
d="M129 602q-41 0 -69 28.5t-28 69.5t28 68t69 27q40 0 69 -27t29 -68q0 -20 -8 -38t-21.5 -31.5t-31 -21t-37.5 -7.5z" />
    <glyph glyph-name="quotesinglbase" unicode="&#x201a;" horiz-adv-x="261" 
d="M107 -217h-110l131 466h141z" />
    <glyph glyph-name="quotedblbase" unicode="&#x201e;" horiz-adv-x="556" 
d="M371 -220h-111l129 469h144zM131 -220h-109l131 469h141z" />
    <glyph glyph-name="perthousand" unicode="&#x2030;" horiz-adv-x="2355" 
d="M395 702q-79 0 -142 27.5t-106.5 76t-67 116t-23.5 148.5q0 89 25.5 159t71.5 118t110 73.5t141 25.5q76 0 138 -25.5t105 -73.5t66.5 -117.5t23.5 -157.5q0 -78 -24 -145.5t-68.5 -117.5t-108 -78.5t-141.5 -28.5zM403 1328q-103 0 -161.5 -68t-58.5 -192
q0 -57 14.5 -103.5t42 -79.5t67.5 -50.5t90 -17.5t90 18.5t67.5 52t42 81t14.5 105.5q0 127 -55.5 190.5t-152.5 63.5zM407 -32h-139l853 1449h137zM1941 -24q-79 0 -141.5 27.5t-106 76t-66.5 116.5t-23 149q0 90 26 160t72 118t110 73t140 25q75 0 136.5 -26t105 -75
t67 -118t23.5 -156q0 -77 -24 -144.5t-69 -117.5t-108.5 -79t-141.5 -29zM1950 603q-50 0 -90.5 -17.5t-69 -51t-44 -82t-15.5 -109.5q0 -57 14.5 -103.5t42 -79.5t66.5 -51t89 -18q51 0 91.5 18.5t68 52t42 81t14.5 105.5q0 128 -56 191.5t-153 63.5zM1149 -24
q-78 0 -140.5 27t-106.5 75.5t-67.5 116.5t-23.5 150q0 90 26 160t72 118t110 73t140 25t137.5 -26t105 -74.5t67 -118t23.5 -156.5q0 -77 -24 -144.5t-69 -117.5t-108.5 -79t-141.5 -29zM1157 603q-51 0 -91.5 -18t-69 -52t-43.5 -82t-15 -108q0 -57 14.5 -103.5t42 -79.5
t67 -51t89.5 -18q51 0 91.5 18.5t68 52t42 81t14.5 105.5q0 128 -55.5 191.5t-154.5 63.5z" />
    <glyph glyph-name="Iacute" unicode="&#xcd;" horiz-adv-x="463" 
d="M192 1434v-1434h-135v1434h135zM144 1491h-134l254 355h148z" />
    <glyph glyph-name="Icircumflex" unicode="&#xce;" horiz-adv-x="463" 
d="M192 1434v-1434h-135v1434h135zM270 1492l-140 215q-34 -50 -72.5 -108t-70.5 -107h-126l238 362h65l235 -362h-129z" />
    <glyph glyph-name="Idieresis" unicode="&#xcf;" horiz-adv-x="463" 
d="M192 1434v-1434h-135v1434h135zM285 1491q-17 0 -32.5 6.5t-28 18t-20 28t-7.5 36.5q0 19 7.5 35t19.5 27t27.5 17.5t31.5 6.5q18 0 34.5 -6.5t29.5 -18t21 -27t8 -34.5q0 -38 -26.5 -63.5t-64.5 -25.5zM-35 1491q-35 0 -62 24t-27 65q0 19 7.5 35t19.5 27t27.5 17.5
t32.5 6.5q18 0 34 -6.5t29 -18t20.5 -27t7.5 -34.5q0 -38 -25.5 -63.5t-63.5 -25.5z" />
    <glyph glyph-name="Igrave" unicode="&#xcc;" horiz-adv-x="463" 
d="M192 1434v-1434h-135v1434h135zM133 1491l-268 355h149l253 -355h-134z" />
    <glyph glyph-name="Uacute" unicode="&#xda;" horiz-adv-x="1327" 
d="M1058 577q0 -601 -515 -601q-492 0 -492 580v878h135v-865q0 -466 375 -466q363 0 363 453v878h134v-857zM547 1490h-134l254 355h148z" />
    <glyph glyph-name="Ucircumflex" unicode="&#xdb;" horiz-adv-x="1327" 
d="M1058 577q0 -601 -515 -601q-492 0 -492 580v878h135v-865q0 -466 375 -466q363 0 363 453v878h134v-857zM735 1492l-140 215q-34 -50 -72.5 -108t-70.5 -107h-126l238 362h65l235 -362h-129z" />
    <glyph glyph-name="Ugrave" unicode="&#xd9;" horiz-adv-x="1327" 
d="M1058 577q0 -601 -515 -601q-492 0 -492 580v878h135v-865q0 -466 375 -466q363 0 363 453v878h134v-857zM600 1491l-268 355h149l253 -355h-134z" />
    <glyph glyph-name="circumflex" unicode="&#x2c6;" horiz-adv-x="539" 
d="M404 1143l-140 215q-34 -50 -72.5 -108t-70.5 -107h-126l238 362h65l235 -362h-129z" />
    <glyph glyph-name="tilde" unicode="&#x2dc;" horiz-adv-x="730" 
d="M678 1408q0 -59 -13.5 -105.5t-38.5 -79.5t-60.5 -50.5t-79.5 -17.5q-34 0 -75 20.5t-83 57.5q-56 48 -102 48q-79 0 -79 -138h-107q0 56 13.5 102.5t38.5 79.5t59.5 51.5t76.5 18.5q77 0 167 -75q31 -26 54.5 -39t45.5 -13q30 0 51.5 35.5t21.5 104.5h110z" />
    <glyph glyph-name="cedilla" unicode="&#xb8;" horiz-adv-x="415" 
d="M41 -301q72 -9 102 -9q135 0 135 69q0 64 -121 64q-14 0 -34 -1.5t-47 -5.5v222h108v-112q217 -6 217 -161q0 -183 -264 -183q-35 0 -96 6v111z" />
    <glyph glyph-name="Scaron" unicode="&#x160;" horiz-adv-x="835" 
d="M546 1524h-65l-239 366h130l143 -217q36 54 73 108.5t72 108.5h127zM326 -22q-181 7 -332 128l83 102q131 -104 266 -104q155 0 233 61.5t78 175.5q0 49 -12.5 87t-45 74t-89.5 75t-146 91q-107 63 -177 116t-99 96q-59 87 -59 204q0 77 31.5 145t89 118.5t139 80
t181.5 29.5q182 -7 333 -128l-83 -102q-131 104 -263 104q-67 0 -120.5 -17.5t-91 -49t-57.5 -75t-20 -94.5q0 -50 12 -87.5t44.5 -72.5t89.5 -73.5t147 -91.5q99 -58 163.5 -107.5t102.5 -98t53.5 -98.5t15.5 -108q0 -84 -29 -154t-87 -120t-145.5 -78t-204.5 -28h-1z" />
    <glyph glyph-name="scaron" unicode="&#x161;" horiz-adv-x="716" 
d="M426 1143h-64l-237 362h129l141 -214q35 54 72 107.5t72 106.5h125zM65 200q27 -24 60.5 -43t68 -33t66.5 -21.5t56 -7.5q213 0 213 171q0 57 -52.5 100.5t-152.5 88.5q-71 31 -121.5 64.5t-83 70t-47.5 78.5t-15 92q0 65 26.5 118.5t72 91t107 58t131.5 20.5
q128 0 276 -86l-49 -114q-126 81 -236 81q-44 0 -80.5 -12t-62.5 -34t-40.5 -51.5t-14.5 -65.5q0 -32 7 -56.5t27.5 -46.5t58 -44.5t99.5 -49.5q81 -36 135 -68.5t86.5 -67.5t46 -75t13.5 -92q0 -63 -24 -116.5t-69.5 -92t-110.5 -60t-146 -21.5q-148 0 -302 110z" />
    <glyph glyph-name="Zcaron" unicode="&#x17d;" horiz-adv-x="1056" 
d="M649 1493h-65l-239 366h130l143 -217q36 54 73 108.5t72 108.5h127zM210 126h818v-126h-1019v55l828 1252h-761v127h965v-52z" />
    <glyph glyph-name="zcaron" unicode="&#x17e;" horiz-adv-x="880" 
d="M527 1143h-64l-237 362h129l141 -214q35 54 72 107.5t72 106.5h125zM217 119h548l69 -119h-819v60l635 845h-588v119h796v-50z" />
    <glyph glyph-name="brokenbar" unicode="&#xa6;" horiz-adv-x="221" 
d="M51 688v859h130v-859h-130zM51 -463v859h130v-859h-130z" />
    <glyph glyph-name="Eth" unicode="&#xd0;" horiz-adv-x="1331" 
d="M178 0v650h-145v124h145v660h369q358 0 543.5 -177.5t185.5 -520.5q0 -165 -52 -300.5t-149 -232t-236 -150t-312 -53.5h-349zM314 1307v-533h392v-124h-392v-524h199q150 0 266 39.5t195.5 117t121 190.5t41.5 260q0 574 -605 574h-218z" />
    <glyph glyph-name="eth" unicode="&#xf0;" horiz-adv-x="995" 
d="M495 1048q102 0 182 -45q-38 60 -77.5 110.5t-80.5 92.5q-69 -35 -146 -73.5t-146 -72.5l-51 102l257 125q-57 49 -126.5 102t-141.5 106h209q45 -31 87 -66t90 -80q70 35 148 73.5t148 73.5l51 -103l-264 -129q75 -81 132 -173t96 -188.5t58.5 -196t19.5 -196.5
q0 -116 -31.5 -214t-90 -169t-142.5 -111t-190 -40q-112 0 -197.5 38t-143.5 107.5t-88 167t-30 217.5t33.5 219.5t95 171.5t148 111.5t191.5 39.5zM495 929q-76 0 -138.5 -31t-106.5 -87t-68.5 -134.5t-24.5 -172.5q0 -95 22.5 -171t65.5 -129t104.5 -81t138.5 -28
q75 0 134.5 29.5t101 84t63.5 131.5t22 172q0 417 -314 417z" />
    <glyph glyph-name="Yacute" unicode="&#xdd;" horiz-adv-x="1106" 
d="M570 545v-545h-134v543q-53 108 -108.5 220t-111 225.5t-111 225.5t-108.5 220h152l330 -683q6 -13 13.5 -29.5t15.5 -35.5q44 88 91.5 182t96 190t97 191t93.5 185h147zM416 1522h-134l254 355h148z" />
    <glyph glyph-name="yacute" unicode="&#xfd;" horiz-adv-x="928" 
d="M452 -190q-28 -69 -59 -120.5t-67.5 -85t-80.5 -50.5t-99 -17q-24 0 -49 5.5t-52 14.5l41 126q25 -19 64 -19q104 0 169 152l89 210q-94 244 -190.5 499t-190.5 499h140l301 -813l8 -25q2 4 3 8t3 8l322 822h139zM332 1143h-134l254 355h148z" />
    <glyph glyph-name="Thorn" unicode="&#xde;" horiz-adv-x="876" 
d="M191 329v-329h-135v1434h135v-232h221q462 0 462 -411q0 -103 -35 -188t-100 -146t-159 -94.5t-212 -33.5h-177zM191 1076v-621h179q180 0 273 82.5t93 240.5q0 298 -341 298h-204z" />
    <glyph glyph-name="thorn" unicode="&#xfe;" horiz-adv-x="966" 
d="M186 -453h-127v1951h127v-628q63 85 155 131.5t198 46.5q97 0 174.5 -35t131.5 -100t83 -157.5t29 -207.5q0 -126 -33 -231t-93 -180.5t-144.5 -118t-188.5 -42.5q-101 0 -178 37t-134 115v-581zM186 269q90 -174 319 -174q72 0 131 33t101.5 92.5t65.5 142.5t23 183
q0 88 -21.5 158.5t-60.5 120.5t-94 77t-123 27q-116 0 -199.5 -56.5t-141.5 -171.5v-432z" />
    <glyph glyph-name="multiply" unicode="&#xd7;" horiz-adv-x="911" 
d="M768 188l-321 323q-78 -78 -161 -161.5t-160 -161.5l-85 83l322 322l-161.5 161.5t-160.5 161.5l85 84l321 -323q78 78 161 161.5t160 161.5l85 -84l-322 -323l322 -322z" />
    <glyph glyph-name="onenumerator" horiz-adv-x="542" 
d="M527 562h-492v117h188v612q-48 -17 -103 -35.5t-98 -33.5v126l322 102v-771h183v-117z" />
    <glyph glyph-name="twonumerator" horiz-adv-x="614" 
d="M575 562h-537v123l235 231q57 55 91 94.5t52.5 70.5t24 57t5.5 54q0 128 -133 128q-97 0 -232 -117v151q62 42 119.5 63t118.5 21q59 0 106 -17t80 -47.5t50.5 -74t17.5 -95.5q0 -39 -9.5 -78t-34 -82t-66.5 -93.5t-107 -113.5l-156 -150h375v-125z" />
    <glyph glyph-name="threenumerator" horiz-adv-x="572" 
d="M529 800q0 -56 -19.5 -103.5t-56.5 -83t-91 -55.5t-122 -20q-110 0 -205 52v140q120 -77 207 -77q78 0 122 40t44 107q0 142 -207 142h-87v116h78q188 0 188 146q0 113 -128 113q-62 0 -185 -64v131q54 26 104.5 38t97.5 12q54 0 97.5 -16t74 -44.5t47 -69t16.5 -88.5
q0 -145 -112 -206q67 -28 102 -83.5t35 -126.5z" />
    <glyph glyph-name="onehalf" unicode="&#xbd;" horiz-adv-x="1510" 
d="M369 0h-138l852 1419h137zM1448 0h-537v123l237 231q56 55 90 94.5t52 70.5t23.5 57t5.5 54q0 128 -133 128q-100 0 -232 -117v152q122 83 238 83q59 0 106 -17t80 -48t50.5 -74t17.5 -95q0 -38 -9.5 -76t-33.5 -81.5t-66 -94.5t-107 -114l-156 -151h374v-125zM357 562
h-121v729q-48 -17 -103 -35.5t-99 -33.5v126l323 102v-888z" />
    <glyph glyph-name="onequarter" unicode="&#xbc;" horiz-adv-x="1437" 
d="M1264 211q-16 -51 -33.5 -106t-32.5 -105h-47v211h-378v87l379 559h116v-533h106v-113h-110zM356 562h-121v729q-48 -17 -103 -35.5t-98 -33.5v126l322 102v-888zM367 0h-11l723 1419h138zM1151 324v339q-3 -5 -5.5 -9t-4.5 -6l-216 -324h226z" />
    <glyph glyph-name="threequarters" unicode="&#xbe;" horiz-adv-x="1463" 
d="M1287 211q-15 -51 -32.5 -106t-32.5 -105h-48v211h-378v87l379 559h117v-533h106v-113h-111zM525 800q0 -56 -19.5 -103.5t-56.5 -83t-91 -55.5t-122 -20q-110 0 -205 52v140q120 -77 207 -77q78 0 121.5 40t43.5 107q0 142 -206 142h-87v116h78q188 0 188 146
q0 113 -128 113q-62 0 -185 -64v131q54 26 104.5 38t97.5 12q54 0 97.5 -16t74 -44.5t47 -69t16.5 -88.5q0 -145 -112 -206q67 -28 102 -83.5t35 -126.5zM390 0h-139l853 1419h137zM1174 324v339q-6 -11 -9 -15l-217 -324h226z" />
    <glyph glyph-name="uni00AF" unicode="&#xaf;" horiz-adv-x="850" 
d="M58 1651v125h857v-125h-857z" />
    <glyph glyph-name="fournumerator" horiz-adv-x="626" 
d="M488 773v-211h-118v211h-378v86l379 560h117v-533h107v-113h-107zM370 886v338q-2 -5 -4.5 -9t-4.5 -6l-217 -323h226z" />
    <glyph glyph-name="fivenumerator" horiz-adv-x="574" 
d="M545 832q0 -72 -24.5 -126.5t-66.5 -92t-99.5 -56.5t-123.5 -19q-107 0 -191 50v126q60 -32 109 -46.5t84 -14.5q44 0 79 12.5t60 35.5t38 54.5t13 70.5q0 146 -202 146q-15 0 -38 -1.5t-46 -3.5t-43 -4.5l-28 -3.5v460h441v-120h-325v-212q17 1 32.5 1.5t32.5 0.5
q64 0 118.5 -16t94.5 -48.5t62.5 -80.5t22.5 -112z" />
    <glyph glyph-name="sevennumerator" horiz-adv-x="590" 
d="M240 551h-124l319 750h-431v118h572v-75z" />
    <glyph glyph-name="eightnumerator" horiz-adv-x="663" 
d="M490 791q-1 55 -41 94.5t-128 71.5q-78 -28 -119.5 -67t-41.5 -96q0 -35 14 -60t37.5 -41.5t52.5 -24t59 -7.5q28 0 57.5 8t53.5 24.5t39.5 40.5t16.5 57zM463 1206q0 54 -37.5 84t-94.5 30q-29 0 -54 -8.5t-44 -23.5t-30 -35.5t-11 -44.5q0 -52 34.5 -83.5t100.5 -56.5
q68 26 102 57.5t34 80.5zM615 798q0 -69 -27.5 -117t-70 -78.5t-95 -44.5t-103.5 -14q-47 0 -97 12.5t-91.5 41t-68.5 75.5t-27 115q0 78 41.5 132.5t111.5 92.5q-62 34 -92.5 79t-30.5 114q0 60 23.5 104t61 72.5t85 42t96.5 13.5q48 0 94.5 -14t83 -41.5t59 -69
t22.5 -96.5q0 -74 -36.5 -122t-95.5 -81q73 -34 115 -86t42 -130z" />
    <glyph glyph-name="dotlessi.alt" horiz-adv-x="240" 
d="M51 0v1024h127v-1024h-127z" />
    <glyph glyph-name="currency" unicode="&#xa4;" horiz-adv-x="997" 
d="M851 274l-129 131q-103 -76 -233 -76q-132 0 -231 76l-131 -131l-85 86l133 129q-74 110 -74 228q0 134 74 230q-31 30 -67.5 65t-65.5 64l85 86l132 -132q108 75 230 75q65 0 122 -19t108 -55q31 31 67 66t65 65l85 -86l-134 -130q75 -96 75 -229q0 -125 -74 -228
q32 -31 68 -65.5t66 -62.5zM491 986q-57 0 -106.5 -21.5t-86 -58.5t-57.5 -85t-21 -102t22 -103t59 -86.5t86 -59.5t102 -22q54 0 102.5 22t85.5 59t58.5 86t21.5 104q0 56 -22.5 105t-59.5 85t-85 56.5t-99 20.5z" />
    <glyph glyph-name="uni00B2" unicode="&#xb2;" horiz-adv-x="674" 
d="M575 862h-537v123l235 231q57 55 91 94.5t52.5 70.5t24 57t5.5 54q0 128 -133 128q-97 0 -232 -117v151q62 42 119.5 63t118.5 21q59 0 106 -17t80 -47.5t50.5 -74t17.5 -95.5q0 -39 -9.5 -78t-34 -82t-66.5 -93.5t-107 -113.5l-156 -150h375v-125z" />
    <glyph glyph-name="uni00B3" unicode="&#xb3;" horiz-adv-x="674" 
d="M529 1100q0 -56 -19.5 -103.5t-56.5 -83t-91 -55.5t-122 -20q-110 0 -205 52v140q120 -77 207 -77q78 0 122 40t44 107q0 142 -207 142h-87v116h78q188 0 188 146q0 113 -128 113q-62 0 -185 -64v131q54 26 104.5 38t97.5 12q54 0 97.5 -16t74 -44.5t47 -69t16.5 -88.5
q0 -145 -112 -206q67 -28 102 -83.5t35 -126.5z" />
    <glyph glyph-name="uni00B9" unicode="&#xb9;" horiz-adv-x="674" 
d="M527 862h-492v117h188v612q-48 -17 -103 -35.5t-98 -33.5v126l322 102v-771h183v-117z" />
    <glyph glyph-name="s_t" unicode="&#xfb06;" horiz-adv-x="1341" 
d="M622 849q-125 80 -235 80q-44 0 -80 -12t-62 -34t-40.5 -51.5t-14.5 -65.5q0 -32 7 -56.5t27 -46.5t57.5 -44.5t99.5 -49.5q81 -36 135.5 -68.5t86.5 -67.5t45.5 -75t13.5 -92q0 -63 -24 -116.5t-69.5 -92t-110.5 -60t-146 -21.5q-150 0 -306 96l61 128q27 -24 61 -43
t68.5 -33t66.5 -21.5t56 -7.5q212 0 212 171q0 57 -52.5 100.5t-152.5 88.5q-71 31 -121.5 64.5t-82.5 70t-47.5 78.5t-15.5 92q0 65 26.5 118.5t72.5 91t107.5 58t131.5 20.5q59 0 124 -14q-10 36 -10 72q0 66 30.5 119t77.5 90t105 57t114 20q41 0 77.5 -11t64 -33.5
t43.5 -57.5t16 -83v-183h260v-119h-260v-632q0 -92 28 -133t95 -41q49 0 103 33l39 -109q-44 -22 -82 -32t-72 -10q-238 0 -238 281v643h-177v119h177v161q0 51 -32 75t-78 24q-31 0 -62 -10.5t-56.5 -31.5t-41.5 -52t-16 -71q0 -31 12 -69t40 -85z" />
    <glyph glyph-name="c_t.001" horiz-adv-x="1440" 
 />
    <glyph glyph-name="f_t" horiz-adv-x="1213" 
d="M331 1024h458v286h127v-286h260v-119h-260v-632q0 -92 28 -133t94 -41q50 0 103 33l40 -109q-44 -22 -82 -32t-72 -10q-238 0 -238 281v643h-458v-905h-127v905h-177v119h177v152q0 84 22.5 147t62.5 105t93.5 63.5t115.5 21.5q33 0 74.5 -11.5t90.5 -36.5l-55 -110
q-51 39 -114 39q-163 0 -163 -226v-144z" />
    <glyph glyph-name="ff" unicode="&#xfb00;" horiz-adv-x="1244" 
d="M332 1024h417v152q0 84 22.5 147t62.5 105t93.5 63.5t115.5 21.5q33 0 74.5 -11.5t90.5 -36.5l-55 -110q-51 39 -114 39q-163 0 -163 -226v-144h261v-119h-261v-905h-127v905h-417v-905h-127v905h-177v119h177v152q0 84 22.5 147t62.5 105t93.5 63.5t115.5 21.5
q33 0 74.5 -11.5t90.5 -36.5l-55 -110q-51 39 -114 39q-163 0 -163 -226v-144z" />
    <glyph glyph-name="ffi" unicode="&#xfb03;" horiz-adv-x="1448" 
d="M882 1024h490v-1024h-127v905h-363v-905h-127v905h-417v-905h-127v905h-177v119h177v152q0 84 22.5 147t62.5 105t93 63.5t115 21.5q34 0 75 -11.5t91 -36.5l-55 -110q-53 39 -115 39q-162 0 -162 -226v-144h417v152q0 84 22.5 147t62 105t93 63.5t115.5 21.5
q33 0 74.5 -11.5t91.5 -36.5l-55 -110q-53 39 -115 39q-162 0 -162 -226v-144z" />
    <glyph glyph-name="ffl" unicode="&#xfb04;" horiz-adv-x="1708" 
d="M344 1024h418v152q0 84 22.5 147t62.5 105t93 63.5t115 21.5q292 0 325 -213v-1027q0 -92 28 -133t94 -41q53 0 138 49v-128q-40 -20 -77.5 -29.5t-72.5 -9.5q-237 0 -237 281v1035q-17 44 -68 70.5t-133 26.5q-163 0 -163 -226v-144h261v-119h-261v-905h-127v905h-418
v-905h-127v905h-177v119h177v152q0 84 22.5 147t62.5 105t93.5 63.5t115.5 21.5q33 0 74.5 -11.5t90.5 -36.5l-55 -110q-51 39 -114 39q-163 0 -163 -226v-144z" />
    <glyph glyph-name="l.alt" horiz-adv-x="240" 
d="M178 1h-127v1497h127v-1497z" />
    <glyph glyph-name="a.alt" 
d="M881 190q-75 -106 -164 -160t-191 -54q-113 0 -203 39t-153 109t-96.5 167.5t-33.5 214.5q0 127 35.5 228t101 170.5t157 106.5t202.5 37q98 0 184.5 -36.5t160.5 -107.5v120h127v-1024h-127v190zM533 929q-83 0 -149.5 -29t-114 -83.5t-73 -133.5t-25.5 -179
q0 -92 24.5 -167.5t71 -129t112.5 -83t150 -29.5q83 0 170.5 55.5t180.5 169.5v458q-181 151 -347 151z" />
    <glyph glyph-name="aacute.alt" 
d="M881 190q-75 -106 -164 -160t-191 -54q-113 0 -203 39t-153 109t-96.5 167.5t-33.5 214.5q0 127 35.5 228t101 170.5t157 106.5t202.5 37q98 0 184.5 -36.5t160.5 -107.5v120h127v-1024h-127v190zM533 929q-83 0 -149.5 -29t-114 -83.5t-73 -133.5t-25.5 -179
q0 -92 24.5 -167.5t71 -129t112.5 -83t150 -29.5q83 0 170.5 55.5t180.5 169.5v458q-181 151 -347 151zM465 1143h-134l254 355h148z" />
    <glyph glyph-name="agrave.alt" 
d="M881 190q-75 -106 -164 -160t-191 -54q-113 0 -203 39t-153 109t-96.5 167.5t-33.5 214.5q0 127 35.5 228t101 170.5t157 106.5t202.5 37q98 0 184.5 -36.5t160.5 -107.5v120h127v-1024h-127v190zM533 929q-83 0 -149.5 -29t-114 -83.5t-73 -133.5t-25.5 -179
q0 -92 24.5 -167.5t71 -129t112.5 -83t150 -29.5q83 0 170.5 55.5t180.5 169.5v458q-181 151 -347 151zM601 1143l-268 355h149l253 -355h-134z" />
    <glyph glyph-name="acircumflex.alt" 
d="M881 190q-75 -106 -164 -160t-191 -54q-113 0 -203 39t-153 109t-96.5 167.5t-33.5 214.5q0 127 35.5 228t101 170.5t157 106.5t202.5 37q98 0 184.5 -36.5t160.5 -107.5v120h127v-1024h-127v190zM533 929q-83 0 -149.5 -29t-114 -83.5t-73 -133.5t-25.5 -179
q0 -92 24.5 -167.5t71 -129t112.5 -83t150 -29.5q83 0 170.5 55.5t180.5 169.5v458q-181 151 -347 151zM671 1143l-140 215q-35 -51 -73 -108.5t-71 -106.5h-125l238 362h64l236 -362h-129z" />
    <glyph glyph-name="atilde.alt" 
d="M881 190q-75 -106 -164 -160t-191 -54q-113 0 -203 39t-153 109t-96.5 167.5t-33.5 214.5q0 127 35.5 228t101 170.5t157 106.5t202.5 37q98 0 184.5 -36.5t160.5 -107.5v120h127v-1024h-127v190zM533 929q-83 0 -149.5 -29t-114 -83.5t-73 -133.5t-25.5 -179
q0 -92 24.5 -167.5t71 -129t112.5 -83t150 -29.5q83 0 170.5 55.5t180.5 169.5v458q-181 151 -347 151zM851 1408q0 -59 -13.5 -105.5t-38.5 -79.5t-60.5 -50.5t-78.5 -17.5q-35 0 -75 20.5t-83 57.5q-56 48 -102 48q-79 0 -79 -138h-108q0 56 13.5 102.5t38.5 79.5t60 51.5
t77 18.5q76 0 166 -75q31 -26 54.5 -39t45.5 -13q31 0 52 35.5t21 104.5h110z" />
    <glyph glyph-name="adieresis.alt" 
d="M881 190q-75 -106 -164 -160t-191 -54q-113 0 -203 39t-153 109t-96.5 167.5t-33.5 214.5q0 127 35.5 228t101 170.5t157 106.5t202.5 37q98 0 184.5 -36.5t160.5 -107.5v120h127v-1024h-127v190zM533 929q-83 0 -149.5 -29t-114 -83.5t-73 -133.5t-25.5 -179
q0 -92 24.5 -167.5t71 -129t112.5 -83t150 -29.5q83 0 170.5 55.5t180.5 169.5v458q-181 151 -347 151zM690 1143q-17 0 -32.5 6.5t-27.5 18t-19.5 28t-7.5 36.5q0 19 7 35t19 27t27.5 17.5t32.5 6.5q18 0 34.5 -6.5t29 -18t20.5 -27t8 -34.5t-7 -35t-19.5 -28t-29 -19
t-35.5 -7zM370 1143q-34 0 -61.5 24t-27.5 65q0 19 7.5 35t20 27t28 17.5t31.5 6.5q18 0 34 -6.5t29 -18t20.5 -27t7.5 -34.5q0 -38 -25.5 -63.5t-63.5 -25.5z" />
    <glyph glyph-name="aring.alt" horiz-adv-x="1052" 
d="M527 1143q-45 0 -84 14t-67.5 39.5t-45 62t-16.5 81.5q0 42 16 78t44 62.5t67 41t86 14.5q46 0 85 -14.5t67 -40t44 -62t16 -79.5t-16.5 -79t-45 -62.5t-67.5 -41t-83 -14.5zM527 1433q-47 0 -75 -25t-28 -68t29 -68.5t74 -25.5q46 0 75.5 26t29.5 68q0 45 -30.5 69
t-74.5 24zM870 190q-75 -106 -164 -160t-191 -54q-113 0 -203 39t-153 109t-96.5 167.5t-33.5 214.5q0 127 35.5 228t101 170.5t157 106.5t203.5 37q98 0 184 -36.5t160 -107.5v120h127v-1024h-127v190zM522 929q-83 0 -149.5 -29t-114 -83.5t-73 -133.5t-25.5 -179
q0 -92 24.5 -167.5t71 -129t113 -83t149.5 -29.5q168 0 351 225v458q-181 151 -347 151z" />
    <glyph glyph-name="c_t" horiz-adv-x="1452" 
d="M745 1117q0 -30 9 -61t29 -62q11 -6 25.5 -14t39.5 -24l-72 -98q-116 71 -237 71q-82 0 -150 -31.5t-116.5 -88.5t-75.5 -136t-27 -173q0 -91 24.5 -165.5t69.5 -128t107.5 -82.5t138.5 -29q142 0 261 87l71 -101q-92 -52 -175 -78.5t-161 -26.5q-105 0 -191 38
t-147.5 106.5t-95 164t-33.5 210.5q0 121 38.5 222.5t106.5 175t162.5 114.5t206.5 41q21 0 42 -2t42 -7q-7 29 -7 62q0 66 29.5 119.5t76.5 92t105.5 59t116.5 20.5q41 0 77.5 -11t64 -34t43.5 -58t16 -83v-183h260v-119h-260v-632q0 -92 28 -133t94 -41q50 0 103 33
l40 -109q-44 -22 -82 -32t-72 -10q-238 0 -238 281v643h-177v119h177v161q0 51 -31.5 75t-77.5 24q-30 0 -61.5 -10.5t-57.5 -31t-42.5 -51.5t-16.5 -73z" />
    <glyph glyph-name="Ccedilla" unicode="&#xc7;" horiz-adv-x="1193" 
d="M1117 106q-176 -130 -410 -130q-152 0 -275.5 53t-210.5 149t-134 229.5t-47 294.5q0 171 48 310.5t138 238t218.5 152.5t288.5 54q116 0 217 -36t189 -102l-71 -113q-75 61 -162.5 93t-189.5 32q-117 0 -215.5 -45t-170 -126.5t-112 -195t-40.5 -251.5
q0 -139 37.5 -251.5t106 -192t166 -123t217.5 -43.5q197 0 345 113zM412 -301q72 -9 102 -9q135 0 135 69q0 64 -121 64q-14 0 -34 -1.5t-47 -5.5v222h108v-112q217 -6 217 -161q0 -183 -264 -183q-35 0 -96 6v111z" />
    <glyph glyph-name="Ntilde" unicode="&#xd1;" horiz-adv-x="1235" 
d="M1058 0l-837 1135v-1q-6 7 -12 16.5t-12 18.5v-1169h-135v1434h103l831 -1126q5 -8 11.5 -16.5t13.5 -19.5q-1 15 -1 27.5v24.5v1110h135v-1434h-97zM930 1818q0 -59 -13.5 -105.5t-38.5 -79.5t-60.5 -50.5t-79.5 -17.5q-34 0 -75 20.5t-83 57.5q-56 48 -102 48
q-79 0 -79 -138h-107q0 56 13.5 102.5t38.5 79.5t59.5 51.5t76.5 18.5q77 0 167 -75q31 -26 54.5 -39t45.5 -13q30 0 51.5 35.5t21.5 104.5h110z" />
    <glyph glyph-name="Adieresis" unicode="&#xc4;" horiz-adv-x="1227" 
d="M1052 0l-159 434h-578q-39 -106 -80.5 -217.5t-79.5 -216.5h-148l541 1434h119l535 -1434h-150zM619 1180l1 -1q-5 12 -8.5 23.5t-7.5 24.5q-5 -14 -9 -25t-7 -20q-59 -159 -113 -310.5t-112 -310.5h482zM767 1553q-17 0 -32.5 6.5t-28 18t-20 28t-7.5 36.5q0 19 7.5 35
t19.5 27t27.5 17.5t31.5 6.5q18 0 34.5 -6.5t29.5 -18t21 -27t8 -34.5q0 -38 -26.5 -63.5t-64.5 -25.5zM447 1553q-35 0 -62 24t-27 65q0 19 7.5 35t19.5 27t27.5 17.5t32.5 6.5q18 0 34 -6.5t29 -18t20.5 -27t7.5 -34.5q0 -38 -25.5 -63.5t-63.5 -25.5z" />
    <glyph glyph-name="Atilde" unicode="&#xc3;" horiz-adv-x="1227" 
d="M1052 0l-159 434h-578q-39 -106 -80.5 -217.5t-79.5 -216.5h-148l541 1434h119l535 -1434h-150zM619 1180l1 -1q-5 12 -8.5 23.5t-7.5 24.5q-5 -14 -9 -25t-7 -20q-59 -159 -113 -310.5t-112 -310.5h482zM926 1818q0 -59 -13.5 -105.5t-38.5 -79.5t-60.5 -50.5
t-79.5 -17.5q-34 0 -75 20.5t-83 57.5q-56 48 -102 48q-79 0 -79 -138h-107q0 56 13.5 102.5t38.5 79.5t59.5 51.5t76.5 18.5q77 0 167 -75q31 -26 54.5 -39t45.5 -13q30 0 51.5 35.5t21.5 104.5h110z" />
    <glyph glyph-name="Acircumflex" unicode="&#xc2;" horiz-adv-x="1227" 
d="M1052 0l-159 434h-578q-39 -106 -80.5 -217.5t-79.5 -216.5h-148l541 1434h119l535 -1434h-150zM619 1180l1 -1q-5 12 -8.5 23.5t-7.5 24.5q-5 -14 -9 -25t-7 -20q-59 -159 -113 -310.5t-112 -310.5h482zM748 1553l-140 215q-34 -50 -72.5 -108t-70.5 -107h-126l238 362
h65l235 -362h-129z" />
    <glyph glyph-name="Aacute" unicode="&#xc1;" horiz-adv-x="1227" 
d="M1052 0l-159 434h-578q-39 -106 -80.5 -217.5t-79.5 -216.5h-148l541 1434h119l535 -1434h-150zM619 1180l1 -1q-5 12 -8.5 23.5t-7.5 24.5q-5 -14 -9 -25t-7 -20q-59 -159 -113 -310.5t-112 -310.5h482zM543 1553h-134l254 355h148z" />
    <glyph glyph-name="Agrave" unicode="&#xc0;" horiz-adv-x="1227" 
d="M1052 0l-159 434h-578q-39 -106 -80.5 -217.5t-79.5 -216.5h-148l541 1434h119l535 -1434h-150zM619 1180l1 -1q-5 12 -8.5 23.5t-7.5 24.5q-5 -14 -9 -25t-7 -20q-59 -159 -113 -310.5t-112 -310.5h482zM676 1553l-268 355h149l253 -355h-134z" />
    <glyph glyph-name="Edieresis" unicode="&#xcb;" horiz-adv-x="785" 
d="M63 0v1434h691v-127h-556v-521h516v-126h-516v-534h588v-126h-723zM546 1553q-17 0 -32.5 6.5t-28 18t-20 28t-7.5 36.5q0 19 7.5 35t19.5 27t27.5 17.5t31.5 6.5q18 0 34.5 -6.5t29.5 -18t21 -27t8 -34.5q0 -38 -26.5 -63.5t-64.5 -25.5zM226 1553q-35 0 -62 24t-27 65
q0 19 7.5 35t19.5 27t27.5 17.5t32.5 6.5q18 0 34 -6.5t29 -18t20.5 -27t7.5 -34.5q0 -38 -25.5 -63.5t-63.5 -25.5z" />
    <glyph glyph-name="Ecircumflex" unicode="&#xca;" horiz-adv-x="785" 
d="M63 0v1434h691v-127h-556v-521h516v-126h-516v-534h588v-126h-723zM527 1553l-140 215q-34 -50 -72.5 -108t-70.5 -107h-126l238 362h65l235 -362h-129z" />
    <glyph glyph-name="Eacute" unicode="&#xc9;" horiz-adv-x="785" 
d="M63 0v1434h691v-127h-556v-521h516v-126h-516v-534h588v-126h-723zM322 1553h-134l254 355h148z" />
    <glyph glyph-name="Egrave" unicode="&#xc8;" horiz-adv-x="785" 
d="M63 0v1434h691v-127h-556v-521h516v-126h-516v-534h588v-126h-723zM455 1553l-268 355h149l253 -355h-134z" />
    <glyph glyph-name="Odieresis" unicode="&#xd6;" horiz-adv-x="1447" 
d="M708 -24q-152 0 -275 53t-210 149t-134 229.5t-47 294.5q0 171 48 310.5t138 238t218.5 152.5t288.5 54q144 0 264 -52.5t205.5 -147t133 -227t47.5 -292.5q0 -176 -48 -317t-136.5 -240t-213.5 -152t-279 -53zM718 1331q-117 0 -215.5 -45t-170 -126.5t-112 -195
t-40.5 -251.5q0 -139 37 -251.5t106 -192t166 -123t217 -43.5q125 0 225.5 42.5t170.5 122t107.5 194.5t37.5 261q0 142 -37 255t-106 191.5t-167 120t-219 41.5zM877 1553q-17 0 -32.5 6.5t-28 18t-20 28t-7.5 36.5q0 19 7.5 35t19.5 27t27.5 17.5t31.5 6.5q18 0 34.5 -6.5
t29.5 -18t21 -27t8 -34.5q0 -38 -26.5 -63.5t-64.5 -25.5zM557 1553q-35 0 -62 24t-27 65q0 19 7.5 35t19.5 27t27.5 17.5t32.5 6.5q18 0 34 -6.5t29 -18t20.5 -27t7.5 -34.5q0 -38 -25.5 -63.5t-63.5 -25.5z" />
    <glyph glyph-name="Otilde" unicode="&#xd5;" horiz-adv-x="1447" 
d="M708 -24q-152 0 -275 53t-210 149t-134 229.5t-47 294.5q0 171 48 310.5t138 238t218.5 152.5t288.5 54q144 0 264 -52.5t205.5 -147t133 -227t47.5 -292.5q0 -176 -48 -317t-136.5 -240t-213.5 -152t-279 -53zM718 1331q-117 0 -215.5 -45t-170 -126.5t-112 -195
t-40.5 -251.5q0 -139 37 -251.5t106 -192t166 -123t217 -43.5q125 0 225.5 42.5t170.5 122t107.5 194.5t37.5 261q0 142 -37 255t-106 191.5t-167 120t-219 41.5zM1036 1818q0 -59 -13.5 -105.5t-38.5 -79.5t-60.5 -50.5t-79.5 -17.5q-34 0 -75 20.5t-83 57.5
q-56 48 -102 48q-79 0 -79 -138h-107q0 56 13.5 102.5t38.5 79.5t59.5 51.5t76.5 18.5q77 0 167 -75q31 -26 54.5 -39t45.5 -13q30 0 51.5 35.5t21.5 104.5h110z" />
    <glyph glyph-name="Ocircumflex" unicode="&#xd4;" horiz-adv-x="1447" 
d="M708 -24q-152 0 -275 53t-210 149t-134 229.5t-47 294.5q0 171 48 310.5t138 238t218.5 152.5t288.5 54q144 0 264 -52.5t205.5 -147t133 -227t47.5 -292.5q0 -176 -48 -317t-136.5 -240t-213.5 -152t-279 -53zM718 1331q-117 0 -215.5 -45t-170 -126.5t-112 -195
t-40.5 -251.5q0 -139 37 -251.5t106 -192t166 -123t217 -43.5q125 0 225.5 42.5t170.5 122t107.5 194.5t37.5 261q0 142 -37 255t-106 191.5t-167 120t-219 41.5zM858 1553l-140 215q-34 -50 -72.5 -108t-70.5 -107h-126l238 362h65l235 -362h-129z" />
    <glyph glyph-name="Oacute" unicode="&#xd3;" horiz-adv-x="1447" 
d="M708 -24q-152 0 -275 53t-210 149t-134 229.5t-47 294.5q0 171 48 310.5t138 238t218.5 152.5t288.5 54q144 0 264 -52.5t205.5 -147t133 -227t47.5 -292.5q0 -176 -48 -317t-136.5 -240t-213.5 -152t-279 -53zM718 1331q-117 0 -215.5 -45t-170 -126.5t-112 -195
t-40.5 -251.5q0 -139 37 -251.5t106 -192t166 -123t217 -43.5q125 0 225.5 42.5t170.5 122t107.5 194.5t37.5 261q0 142 -37 255t-106 191.5t-167 120t-219 41.5zM653 1553h-134l254 355h148z" />
    <glyph glyph-name="Ograve" unicode="&#xd2;" horiz-adv-x="1447" 
d="M708 -24q-152 0 -275 53t-210 149t-134 229.5t-47 294.5q0 171 48 310.5t138 238t218.5 152.5t288.5 54q144 0 264 -52.5t205.5 -147t133 -227t47.5 -292.5q0 -176 -48 -317t-136.5 -240t-213.5 -152t-279 -53zM718 1331q-117 0 -215.5 -45t-170 -126.5t-112 -195
t-40.5 -251.5q0 -139 37 -251.5t106 -192t166 -123t217 -43.5q125 0 225.5 42.5t170.5 122t107.5 194.5t37.5 261q0 142 -37 255t-106 191.5t-167 120t-219 41.5zM786 1553l-268 355h149l253 -355h-134z" />
    </font>
</defs>
</svg>
